<svg width="143" height="60" viewBox="0 0 143 60" fill="none" xmlns="http://www.w3.org/2000/svg">
<mask id="mask0_361_774" style="mask-type:luminance" maskUnits="userSpaceOnUse" x="15" y="19" width="20" height="20">
<path d="M15.4556 19.6042H34.6232V38.8804H15.4556V19.6042Z" fill="white"/>
</mask>
<g mask="url(#mask0_361_774)">
<path d="M25.0047 38.2897C20.0247 38.2897 15.9735 34.2142 15.9735 29.2074C15.9735 25.9001 17.743 22.9988 20.3791 21.4114C20.479 21.4856 20.6048 21.5351 20.7654 21.5351C20.7654 21.5351 20.9391 21.5351 19.8322 22.4052C18.7254 23.2753 18.8281 24.4815 19.1739 23.722C19.5212 22.9624 19.8322 23.2404 19.2781 24.32C18.7254 25.3982 19.5689 25.0504 19.8554 25.711C20.1433 26.3716 20.2475 25.5728 20.3849 26.8255C20.3849 26.8255 20.7322 27.2417 21.3543 27.0336C21.9764 26.8255 21.2501 27.5894 20.5933 28.2165C19.935 28.8437 20.1433 29.0503 20.4891 29.4344C20.8349 29.8171 20.9738 30.1299 20.6627 30.5475C20.3516 30.9651 21.146 31.1033 21.3543 31.3478C21.5612 31.5907 21.5265 32.3925 21.0432 32.7402C20.5585 33.088 21.2849 33.8533 21.1807 34.9315C21.0765 36.0097 21.1026 36.4622 21.5916 36.532C22.0806 36.6019 21.5265 35.5921 21.7348 35.141C21.9417 34.6885 22.1848 35.4538 22.6695 34.236C22.6695 34.236 23.5347 34.4455 23.9138 33.1229C23.9138 33.1229 24.6748 33.0181 24.8137 32.6005C24.9526 32.1829 24.779 31.905 25.8858 31C26.9926 30.095 25.1248 29.3995 24.1221 29.3646C24.1221 29.3646 23.7546 29.5159 24.3984 28.3548C24.6806 27.8484 23.8458 27.9721 23.6374 27.521C23.4305 27.0685 22.9458 26.5462 21.9764 26.6509C21.0085 26.7557 20.7307 27.1034 20.6974 26.5113C20.6627 25.9191 21.1112 25.6426 20.6265 25.5728C20.1433 25.5015 20.3849 25.468 20.9058 24.9806C20.9058 24.9806 20.5933 24.771 20.2822 25.0853C19.9697 25.3982 19.4155 24.9107 20.0739 24.2152C20.7322 23.5183 21.7695 22.9974 21.7001 24.32C21.6306 25.6426 22.1153 23.722 22.1153 23.722C22.1153 23.722 22.8416 22.7878 23.7416 22.7195C24.6401 22.6496 24.0874 22.6147 24.0874 22.3004C24.0874 21.989 24.5026 22.8228 25.0047 22.6147C25.5053 22.4052 24.4679 22.3368 24.5721 21.989C24.6748 21.6398 25.2651 21.7446 25.5053 22.1971C25.7483 22.6496 26.0247 21.9541 25.4025 21.2222C24.779 20.4918 24.8831 20.9443 24.2943 21.2572C23.7069 21.57 23.9499 21.7446 23.8458 21.2222C23.7416 20.7013 23.7069 21.2572 23.4305 20.9792C23.1527 20.7013 23.9239 20.8294 24.329 20.8745C24.7356 20.9196 24.6068 20.6315 24.6068 20.6315L25.0047 20.4569C25.0047 20.4569 25.2651 20.8396 25.5747 20.7697C25.8858 20.7013 25.3678 20.2124 25.6789 20.2823C25.99 20.3521 26.4052 20.0742 26.4399 20.4918C26.4747 20.9094 26.1969 21.4667 27.3399 20.8396C27.5714 20.713 27.7247 20.6315 27.8303 20.582C27.9085 20.6082 27.9837 20.6344 28.0604 20.6635C28.0676 20.7464 28.0937 20.8541 28.2398 20.9443C28.6883 21.2222 28.5509 20.9792 29.1383 21.327C29.7271 21.6747 29.3452 22.0574 29.7951 22.1273C30.2451 22.1971 30.6603 22.8228 30.316 22.8577C29.9688 22.8926 29.934 22.4765 29.4161 22.4052C28.8967 22.3368 29.6244 22.5783 29.9688 22.8926C30.316 23.2054 30.316 23.5765 29.9688 23.722C29.6244 23.8675 29.8791 24.6677 30.4433 24.563C31.0076 24.4582 30.7992 23.8675 31.1103 24.0072C31.4228 24.1454 31.3187 24.4931 31.8366 24.7027C32.3575 24.9107 31.7672 25.1886 32.3908 25.2236C33.0144 25.2585 33.3254 25.5015 32.7713 25.7459C32.2171 25.9904 32.4949 26.1984 32.0102 25.6062C31.5256 25.0155 31.5733 25.5815 31.5256 25.0155C31.4778 24.4495 30.6965 24.9806 30.2813 25.0504C29.8646 25.1202 30.2118 25.5378 29.8299 25.6062C29.4493 25.6761 29.2772 25.5728 29.3799 26.4763C29.4841 27.3814 29.2424 27.5894 28.8272 27.5894C28.412 27.5894 29.1744 28.0769 29.3799 28.704C29.5882 29.3296 29.6244 29.7123 30.5229 29.4693C31.4228 29.2249 31.145 29.2249 31.2492 29.7123C31.3534 30.1997 31.7339 29.4344 31.8019 29.9218C31.8713 30.4078 30.9381 30.5126 31.4561 30.8254C31.9755 31.1382 31.5965 31.8701 31.3534 32.0433C31.1103 32.2179 31.2839 32.8421 30.7645 33.1229C30.2451 33.4008 31.0076 33.8868 30.6965 34.2011C30.3854 34.5154 29.5535 34.8966 29.8646 35.6634C30.1771 36.4273 30.1771 35.9747 30.8354 35.4175C31.4908 34.8616 32.045 33.9232 32.3575 33.9581C32.4689 33.9697 32.5224 34.057 32.5875 34.1312C30.9772 36.6324 28.1805 38.2897 25.0047 38.2897ZM25.0047 19.6042C19.7382 19.6042 15.4556 23.9126 15.4556 29.2074C15.4556 34.5023 19.7382 38.8106 25.0047 38.8106C30.2697 38.8106 34.5538 34.5023 34.5538 29.2074C34.5538 23.9126 30.2697 19.6042 25.0047 19.6042Z" fill="#EFEFEF" fill-opacity="0.937255"/>
</g>
<path d="M25.0799 14.8376C27.784 14.8376 30.2538 15.4589 32.4877 16.7C34.7216 17.9426 36.4824 19.6479 37.7715 21.8159C39.0592 23.981 39.7045 26.3716 39.7045 28.9862C39.7045 31.6286 39.0592 34.0352 37.7715 36.2032C36.4824 38.3683 34.7216 40.0852 32.4877 41.354C30.2538 42.6198 27.784 43.2513 25.0799 43.2513C22.3743 43.2513 19.906 42.6198 17.6721 41.354C15.4382 40.0852 13.6759 38.3683 12.3882 36.2032C11.1035 34.0352 10.4611 31.6286 10.4611 28.9862C10.4611 26.3716 11.1035 23.981 12.3882 21.8159C13.6759 19.6479 15.4382 17.9426 17.6721 16.7C19.906 15.4589 22.3743 14.8376 25.0799 14.8376ZM25.1204 19.0746C23.3336 19.0746 21.6784 19.5169 20.1549 20.4016C18.6299 21.2862 17.4203 22.4837 16.5262 23.9926C15.6349 25.4986 15.1893 27.1631 15.1893 28.9862C15.1893 30.8109 15.6422 32.4885 16.5493 34.0206C17.4551 35.5542 18.6632 36.7706 20.1722 37.6698C21.6842 38.5661 23.3336 39.0143 25.1204 39.0143C26.9058 39.0143 28.548 38.5661 30.0454 37.6698C31.5415 36.7706 32.7308 35.5542 33.6104 34.0206C34.493 32.4885 34.9357 30.8109 34.9357 28.9862C34.9357 27.1631 34.493 25.4986 33.6104 23.9926C32.7308 22.4837 31.5415 21.2862 30.0454 20.4016C28.548 19.5169 26.9058 19.0746 25.1204 19.0746Z" fill="#EFEFEF" fill-opacity="0.937255"/>
<path d="M48.9243 26.0122C49.6333 24.5848 50.6056 23.5023 51.8411 22.7646C53.0753 22.024 54.5207 21.6529 56.1759 21.6529V26.0122C54.0997 25.9074 52.417 26.3963 51.1293 27.4789C49.8445 28.5614 49.1095 30.0281 48.9243 31.8789V42.8963H44.3928V21.8101H48.9243V26.0122Z" fill="#EFEFEF" fill-opacity="0.937255"/>
<path d="M64.7304 42.8963L56.6107 21.8101H61.339L67.1726 38.4148L72.9253 21.8101H77.4567L69.4181 42.8963H64.7304Z" fill="#EFEFEF" fill-opacity="0.937255"/>
<path d="M80.6123 42.8963V21.8101H85.1033V42.8963H80.6123ZM82.8578 13.0101C83.6217 13.0101 84.2525 13.2691 84.7503 13.7841C85.2509 14.3007 85.5026 14.9685 85.5026 15.7863C85.5026 16.5778 85.2509 17.2398 84.7503 17.7709C84.2525 18.2991 83.6217 18.5624 82.8578 18.5624C82.0968 18.5624 81.4659 18.2991 80.9653 17.7709C80.4676 17.2398 80.2188 16.5778 80.2188 15.7863C80.2188 14.9685 80.4676 14.3007 80.9653 13.7841C81.4659 13.2691 82.0968 13.0101 82.8578 13.0101Z" fill="#EFEFEF" fill-opacity="0.937255"/>
<path d="M108.832 42.8963H104.375V40.318C102.878 42.1688 100.567 43.0942 97.4421 43.0942C95.9678 43.0942 94.6714 42.8119 93.553 42.2445C92.4375 41.6741 91.5767 40.8942 90.9719 39.9048C90.37 38.9125 90.0691 37.795 90.0691 36.5524C90.0691 34.6245 90.765 33.0938 92.1583 31.9603C93.5501 30.824 95.4947 30.2419 97.9919 30.2143H104.335V29.5799C104.335 28.234 103.908 27.1908 103.056 26.4487C102.202 25.7081 100.962 25.3371 99.3346 25.3371C97.309 25.3371 95.2444 26.0515 93.1421 27.4789L91.2902 24.3069C92.8947 23.3568 94.3343 22.6773 95.6075 22.2699C96.8808 21.8595 98.4506 21.6529 100.318 21.6529C102.995 21.6529 105.07 22.3077 106.54 23.6143C108.013 24.9224 108.764 26.7382 108.791 29.0619L108.832 42.8963ZM98.3855 39.4857C99.99 39.4857 101.35 39.1103 102.466 38.3566C103.58 37.6044 104.203 36.6484 104.335 35.4873V33.5434H98.6633C97.1658 33.5434 96.0676 33.7631 95.3703 34.2011C94.6758 34.6361 94.3285 35.3535 94.3285 36.3545C94.3285 37.309 94.6888 38.07 95.4108 38.636C96.1313 39.2035 97.1238 39.4857 98.3855 39.4857Z" fill="#EFEFEF" fill-opacity="0.937255"/>
<path d="M127.158 21.6529C129.6 21.6529 131.51 22.3732 132.888 23.8122C134.268 25.2527 134.96 27.2402 134.96 29.7778V42.8963H130.428V31.0466C130.428 29.4606 129.98 28.2107 129.085 27.2984C128.194 26.3876 126.959 25.9307 125.381 25.9307C123.699 25.9584 122.326 26.5011 121.261 27.5603C120.199 28.6167 119.59 29.9902 119.432 31.681V42.8963H114.901V21.8101H119.432V25.855C120.851 23.0541 123.427 21.6529 127.158 21.6529Z" fill="#EFEFEF" fill-opacity="0.937255"/>
<mask id="mask1_361_774" style="mask-type:luminance" maskUnits="userSpaceOnUse" x="70" y="9" width="9" height="8">
<path d="M70.6234 9.00001H78.772V16.8222H70.6234V9.00001Z" fill="white"/>
</mask>
<g mask="url(#mask1_361_774)">
<mask id="mask2_361_774" style="mask-type:luminance" maskUnits="userSpaceOnUse" x="70" y="9" width="16" height="9">
<path d="M70.2834 9.02039L85.2798 9.40451L85.0816 17.2238L70.0866 16.8412L70.2834 9.02039Z" fill="white"/>
</mask>
<g mask="url(#mask2_361_774)">
<mask id="mask3_361_774" style="mask-type:luminance" maskUnits="userSpaceOnUse" x="55" y="8" width="31" height="36">
<path d="M56.1796 8.65954L85.3377 9.40597L84.4769 43.4769L55.3173 42.7319L56.1796 8.65954Z" fill="white"/>
</mask>
<g mask="url(#mask3_361_774)">
<path d="M76.2472 13.5281L77.2123 13.5528C77.6463 13.5644 78.0717 13.4218 78.4132 13.1512C78.5593 13.0363 78.5651 12.8166 78.4247 12.6929C78.0963 12.4048 77.6796 12.2418 77.2456 12.2316L76.2805 12.2069L74.0871 9.13097L73.2653 9.1106L74.1624 12.156C73.5995 12.1516 73.0353 12.1836 72.4768 12.2491L71.7794 12.3306L71.1934 11.1724C71.1645 11.1156 71.1052 11.0778 71.0401 11.0763L70.9301 11.0734C70.878 11.072 70.8375 11.1185 70.8448 11.1695L71.0285 12.4179L70.9099 12.4324C70.7608 12.4499 70.648 12.5736 70.6437 12.7249C70.6393 12.8748 70.7464 13.0057 70.894 13.0304L71.0126 13.0494L70.7666 14.2876C70.7565 14.3385 70.7941 14.3865 70.8462 14.388L70.9562 14.3909C71.0213 14.3923 71.082 14.3589 71.1139 14.3021L71.7577 13.1759L72.4493 13.2938C73.0063 13.3869 73.5663 13.4466 74.1291 13.4728L73.0801 16.4687L73.9019 16.489L76.2472 13.5281Z" fill="#EFEFEF" fill-opacity="0.937255"/>
</g>
</g>
</g>
<mask id="mask4_361_774" style="mask-type:luminance" maskUnits="userSpaceOnUse" x="69" y="12" width="16" height="6">
<path d="M69.8826 12.3524H84.6982V17.5672H69.8826V12.3524Z" fill="white"/>
</mask>
<g mask="url(#mask4_361_774)">
<mask id="mask5_361_774" style="mask-type:luminance" maskUnits="userSpaceOnUse" x="70" y="9" width="16" height="9">
<path d="M70.2834 9.02039L85.2798 9.40451L85.0816 17.2238L70.0866 16.8412L70.2834 9.02039Z" fill="white"/>
</mask>
<g mask="url(#mask5_361_774)">
<mask id="mask6_361_774" style="mask-type:luminance" maskUnits="userSpaceOnUse" x="55" y="8" width="31" height="36">
<path d="M56.1796 8.65954L85.3377 9.40597L84.4769 43.4769L55.3173 42.7319L56.1796 8.65954Z" fill="white"/>
</mask>
<g mask="url(#mask6_361_774)">
<path d="M70.7637 43.0418C70.6784 43.0404 70.6118 42.9705 70.6118 42.8847C70.6133 42.7988 70.6827 42.729 70.7681 42.7304C71.0068 42.7319 71.247 42.7275 71.4843 42.7174C71.5696 42.713 71.642 42.7814 71.6463 42.8658C71.6492 42.9531 71.5827 43.0244 71.4973 43.0287C71.2557 43.0389 71.0097 43.0433 70.7666 43.0418C70.7652 43.0418 70.7637 43.0418 70.7637 43.0418ZM69.4225 42.9749C69.4182 42.9749 69.4153 42.9749 69.411 42.9749C69.1693 42.9516 68.9248 42.9225 68.6861 42.8876C68.6007 42.8759 68.5429 42.7959 68.5544 42.7115C68.566 42.6257 68.6456 42.566 68.7295 42.5791C68.9639 42.6126 69.2041 42.6402 69.4399 42.6635C69.5253 42.6708 69.5875 42.7479 69.5802 42.8338C69.573 42.9152 69.5036 42.9778 69.4225 42.9749ZM72.8255 42.9123C72.7503 42.9109 72.6851 42.8541 72.675 42.777C72.6649 42.6926 72.7242 42.614 72.8096 42.6024C73.044 42.5718 73.2827 42.534 73.5171 42.4904C73.601 42.4758 73.682 42.5311 73.6965 42.617C73.7124 42.7013 73.656 42.7828 73.5721 42.7974C73.3333 42.841 73.0903 42.8789 72.8501 42.9109C72.84 42.9123 72.8327 42.9123 72.8255 42.9123ZM67.3839 42.6373C67.3738 42.6373 67.3637 42.6359 67.3521 42.6344C67.1163 42.5777 66.879 42.5151 66.6446 42.4482C66.5636 42.4249 66.5158 42.3376 66.539 42.2547C66.5621 42.1732 66.6489 42.1252 66.73 42.1484C66.9586 42.2139 67.1915 42.2765 67.423 42.3303C67.5055 42.3507 67.5576 42.4351 67.5373 42.518C67.5214 42.5922 67.4563 42.6402 67.3839 42.6373ZM74.8482 42.4991C74.7831 42.4962 74.7223 42.4511 74.7035 42.3841C74.6803 42.3012 74.7295 42.2154 74.812 42.1921C75.0406 42.1281 75.2706 42.0582 75.4963 41.984C75.5774 41.9564 75.6642 42.0015 75.6917 42.083C75.7192 42.1644 75.6743 42.2532 75.5933 42.2794C75.3632 42.3565 75.1274 42.4278 74.8945 42.4933C74.8785 42.4962 74.8641 42.4991 74.8482 42.4991ZM65.4119 42.0218C65.3945 42.0218 65.3772 42.0175 65.3598 42.0117C65.1341 41.9229 64.907 41.8269 64.6841 41.7279C64.606 41.693 64.5698 41.6013 64.606 41.5213C64.6407 41.4427 64.7319 41.4078 64.81 41.4427C65.0285 41.5402 65.2513 41.6334 65.4727 41.7207C65.5522 41.7512 65.5928 41.8429 65.5609 41.9215C65.5363 41.9855 65.4756 42.0233 65.4119 42.0218ZM76.7942 41.808C76.7363 41.8065 76.6813 41.7716 76.6567 41.7134C76.622 41.6348 76.6582 41.5431 76.7363 41.5082C76.9548 41.4136 77.1732 41.3118 77.3859 41.207C77.4626 41.1692 77.5552 41.2012 77.5943 41.2783C77.6319 41.3554 77.6 41.4486 77.5234 41.4864C77.3049 41.5941 77.0821 41.6974 76.8607 41.7949C76.839 41.8036 76.8173 41.808 76.7942 41.808ZM63.5411 41.1357C63.518 41.1357 63.4934 41.1285 63.4702 41.1154C63.2576 40.9975 63.0463 40.8709 62.8394 40.7414C62.7671 40.6963 62.7454 40.6003 62.7902 40.5261C62.8351 40.4533 62.9306 40.4315 63.0044 40.4766C63.2069 40.6032 63.4138 40.7269 63.6222 40.8433C63.696 40.8855 63.7234 40.98 63.6815 41.0557C63.6525 41.1081 63.5976 41.1372 63.5411 41.1357ZM78.6287 40.8535C78.5767 40.852 78.5289 40.8244 78.5 40.7778C78.4551 40.705 78.4783 40.609 78.5521 40.5639C78.7532 40.4402 78.9572 40.3093 79.1539 40.1754C79.2234 40.1274 79.3203 40.1449 79.3695 40.2176C79.4173 40.2889 79.3985 40.3849 79.3276 40.4344C79.1265 40.5697 78.9196 40.705 78.7127 40.8302C78.6866 40.8462 78.6562 40.8535 78.6287 40.8535ZM61.8107 39.9994C61.7803 39.9979 61.7485 39.9877 61.721 39.9674C61.5271 39.8204 61.3362 39.6662 61.1495 39.5105C61.083 39.4552 61.0743 39.3577 61.1293 39.2908C61.1842 39.2253 61.2812 39.2151 61.3477 39.2704C61.53 39.4246 61.7196 39.5745 61.9091 39.7185C61.9771 39.7709 61.9916 39.8684 61.9395 39.9382C61.9077 39.979 61.8599 40.0008 61.8107 39.9994ZM80.3143 39.6545C80.2709 39.6531 80.2275 39.6341 80.1986 39.5963C80.145 39.5294 80.1552 39.4319 80.2203 39.3766C80.4055 39.2253 80.5892 39.0681 80.7643 38.9095C80.8279 38.8513 80.9263 38.8572 80.9842 38.9212C81.0406 38.9852 81.0348 39.0842 80.9712 39.1409C80.7918 39.3024 80.6051 39.4639 80.4156 39.6196C80.3867 39.6429 80.3505 39.656 80.3143 39.6545ZM60.2525 38.636C60.2149 38.6345 60.1758 38.62 60.1469 38.5894C59.9747 38.4177 59.8054 38.2388 59.6419 38.0584C59.5855 37.9943 59.5884 37.8968 59.652 37.8372C59.7157 37.7804 59.8141 37.7834 59.872 37.8488C60.0311 38.0249 60.1975 38.1995 60.3653 38.3697C60.4261 38.4294 60.4261 38.5283 60.3653 38.5894C60.3364 38.6215 60.2944 38.636 60.2525 38.636ZM81.8219 38.2344C81.7857 38.233 81.7481 38.2199 81.7206 38.1922C81.657 38.134 81.6541 38.0351 81.712 37.9725C81.874 37.7979 82.0346 37.616 82.188 37.4341C82.2429 37.3672 82.3399 37.3599 82.4064 37.4152C82.4715 37.4705 82.4788 37.5695 82.4238 37.6349C82.2675 37.8212 82.104 38.006 81.9391 38.1849C81.9073 38.2184 81.8653 38.2359 81.8219 38.2344ZM58.8954 37.0704C58.8505 37.0704 58.8056 37.0486 58.7753 37.0093C58.6291 36.8143 58.4859 36.615 58.3484 36.4142C58.2993 36.3429 58.3181 36.2454 58.389 36.1974C58.4584 36.1479 58.5553 36.1668 58.6045 36.2381C58.7391 36.4345 58.8794 36.631 59.0227 36.8201C59.0748 36.89 59.0603 36.9875 58.9923 37.0398C58.9634 37.0617 58.9301 37.0718 58.8954 37.0704ZM83.1226 36.6193C83.0937 36.6193 83.0633 36.6091 83.0373 36.5917C82.9664 36.5422 82.9504 36.4447 82.9996 36.3734C83.1356 36.1785 83.2702 35.9762 83.3961 35.774C83.4424 35.7027 83.5379 35.6794 83.6102 35.7259C83.6825 35.7725 83.7043 35.8685 83.658 35.9413C83.5292 36.1479 83.3917 36.3531 83.2528 36.5539C83.2225 36.5975 83.1718 36.6208 83.1226 36.6193ZM57.7625 35.3345C57.7104 35.3331 57.6598 35.3054 57.6323 35.2545C57.5136 35.0435 57.3993 34.8253 57.2908 34.607C57.2517 34.5299 57.2821 34.4368 57.3588 34.3975C57.4355 34.3597 57.5281 34.3902 57.5672 34.4674C57.6728 34.6812 57.7856 34.8951 57.9014 35.1017C57.9448 35.1774 57.9173 35.272 57.8421 35.3142C57.8175 35.3287 57.79 35.336 57.7625 35.3345ZM84.1904 34.8413C84.1672 34.8413 84.1455 34.8355 84.1238 34.8238C84.0486 34.7845 84.0182 34.69 84.0573 34.6143C84.1658 34.4019 84.27 34.1836 84.3683 33.9639C84.4045 33.8868 84.4957 33.8519 84.5738 33.8868C84.6519 33.9217 84.6867 34.0148 84.6519 34.0934C84.5506 34.3146 84.4436 34.5386 84.3336 34.7554C84.3047 34.8107 84.2483 34.8427 84.1904 34.8413ZM56.8799 33.459C56.8191 33.4576 56.7627 33.4197 56.7396 33.3601C56.6513 33.1331 56.5674 32.9017 56.4893 32.6704C56.4618 32.5889 56.5052 32.5002 56.5862 32.4725C56.6672 32.4449 56.7555 32.4885 56.783 32.57C56.8582 32.797 56.9407 33.024 57.0275 33.2451C57.0593 33.3252 57.0188 33.4154 56.9392 33.4474C56.9204 33.4561 56.8987 33.459 56.8799 33.459ZM56.2621 31.4787C56.1941 31.4773 56.1319 31.4293 56.116 31.3594C56.0596 31.1222 56.0075 30.8793 55.9626 30.6406C55.9467 30.5562 56.0017 30.4748 56.0856 30.4588C56.1695 30.4413 56.252 30.498 56.2679 30.5824C56.3113 30.8167 56.3619 31.0539 56.4169 31.2867C56.4357 31.3696 56.3851 31.454 56.3012 31.4744C56.2882 31.4773 56.2751 31.4787 56.2621 31.4787ZM55.9221 29.43C55.8454 29.4286 55.7803 29.3689 55.7731 29.2889C55.7499 29.0474 55.7311 28.8 55.7195 28.5556C55.7167 28.4697 55.7818 28.397 55.8671 28.3926C55.9525 28.3883 56.0263 28.4552 56.0306 28.541C56.0407 28.7811 56.0581 29.0212 56.0813 29.2584C56.0885 29.3442 56.0263 29.4213 55.9409 29.4286C55.9351 29.43 55.9293 29.43 55.9221 29.43ZM55.8657 27.3537C55.8642 27.3537 55.8642 27.3537 55.8628 27.3537C55.7774 27.3494 55.7109 27.2781 55.7138 27.1908C55.7239 26.9463 55.7398 26.7004 55.7615 26.4589C55.7687 26.373 55.8454 26.309 55.9293 26.3177C56.0147 26.325 56.0784 26.4007 56.0697 26.4865C56.0494 26.7237 56.0335 26.9652 56.0248 27.2053C56.0205 27.2897 55.9496 27.3552 55.8657 27.3537ZM56.0899 25.289C56.0813 25.289 56.074 25.2876 56.0653 25.2876C55.9814 25.273 55.925 25.1916 55.9409 25.1072C55.9829 24.8656 56.0321 24.6241 56.0856 24.3869C56.1059 24.3025 56.1883 24.2502 56.2722 24.2691C56.3562 24.2894 56.4082 24.3724 56.388 24.4568C56.3359 24.6896 56.2867 24.9267 56.2447 25.161C56.2317 25.2381 56.1637 25.292 56.0899 25.289ZM56.5934 23.2753C56.5775 23.2753 56.5631 23.2724 56.5486 23.268C56.4676 23.2404 56.4242 23.1531 56.4502 23.0716C56.5254 22.8388 56.6079 22.606 56.6933 22.3775C56.7237 22.2975 56.8134 22.2568 56.8929 22.2888C56.974 22.3193 57.013 22.4095 56.9826 22.4896C56.8987 22.7122 56.8177 22.9406 56.7439 23.1676C56.7222 23.2345 56.66 23.2767 56.5934 23.2753ZM57.3689 21.3503C57.3487 21.3488 57.3255 21.3445 57.3053 21.3343C57.2286 21.2965 57.1968 21.2033 57.2344 21.1262C57.34 20.9065 57.4543 20.6868 57.5715 20.4729C57.612 20.3958 57.7061 20.3696 57.7813 20.4118C57.858 20.4525 57.884 20.5471 57.8435 20.6228C57.7278 20.8338 57.6178 21.0476 57.5122 21.263C57.4847 21.3197 57.4283 21.3517 57.3689 21.3503ZM58.4034 19.5504C58.3745 19.549 58.3456 19.5417 58.3195 19.5242C58.2486 19.4748 58.2298 19.3787 58.279 19.3074C58.4136 19.1052 58.5568 18.9029 58.7015 18.708C58.7536 18.6381 58.8505 18.6236 58.9185 18.6759C58.9879 18.7269 59.001 18.8258 58.9503 18.8942C58.8071 19.0863 58.6682 19.2841 58.5351 19.482C58.5047 19.5271 58.4541 19.5519 58.4034 19.5504ZM59.6723 17.9106C59.6376 17.9106 59.6014 17.8975 59.5725 17.8713C59.5088 17.8131 59.5045 17.7156 59.5609 17.6516C59.7229 17.4683 59.8922 17.2893 60.0629 17.1147C60.1223 17.0536 60.2207 17.0536 60.2814 17.1132C60.3422 17.1729 60.3422 17.2733 60.2829 17.333C60.1165 17.5032 59.9515 17.6793 59.7924 17.8582C59.7606 17.8946 59.7172 17.9121 59.6723 17.9106ZM61.1539 16.4629C61.1105 16.4614 61.0685 16.4425 61.0396 16.4076C60.9846 16.3421 60.9918 16.2431 61.0569 16.1879C61.2421 16.0307 61.4331 15.875 61.6255 15.7266C61.6935 15.6728 61.7919 15.6873 61.8426 15.7543C61.8946 15.8241 61.8816 15.9216 61.8151 15.974C61.627 16.1195 61.4389 16.2708 61.258 16.425C61.2277 16.4512 61.19 16.4629 61.1539 16.4629ZM62.8163 15.2304C62.7671 15.229 62.7179 15.2043 62.689 15.1591C62.6427 15.0864 62.6644 14.9889 62.7367 14.9438C62.9422 14.8129 63.1519 14.6863 63.3617 14.5655C63.437 14.5233 63.531 14.5495 63.573 14.6237C63.6149 14.6994 63.5889 14.7939 63.5151 14.8361C63.3096 14.954 63.1028 15.0791 62.9031 15.2072C62.8756 15.2246 62.8467 15.2319 62.8163 15.2304ZM64.6306 14.241C64.5742 14.2396 64.5192 14.2061 64.4946 14.1508C64.4584 14.0722 64.4932 13.9791 64.5713 13.9442C64.7912 13.8424 65.0169 13.7463 65.2426 13.6547C65.3222 13.6226 65.4119 13.6619 65.4437 13.742C65.4756 13.822 65.4365 13.9136 65.3569 13.9457C65.137 14.033 64.9171 14.129 64.7015 14.2279C64.6769 14.2367 64.6538 14.2425 64.6306 14.241ZM66.5636 13.5135C66.497 13.5121 66.4377 13.4684 66.4189 13.4015C66.3943 13.32 66.4406 13.2327 66.5231 13.208C66.7546 13.1396 66.9918 13.0741 67.2277 13.0159C67.3102 12.9941 67.3941 13.0465 67.4158 13.1294C67.436 13.2138 67.3854 13.2982 67.3015 13.3185C67.0714 13.3753 66.8385 13.4393 66.6113 13.5062C66.5954 13.5106 66.5781 13.5135 66.5636 13.5135ZM68.579 13.0595C68.5052 13.0581 68.4401 13.0028 68.4286 12.9271C68.417 12.8413 68.4749 12.7627 68.5588 12.7496C68.7989 12.7132 69.042 12.6812 69.2836 12.6565C69.3704 12.6478 69.4457 12.7103 69.4544 12.7962C69.463 12.882 69.4008 12.9591 69.3155 12.9664C69.0782 12.9912 68.8395 13.0217 68.6051 13.0566C68.5964 13.0595 68.5877 13.0595 68.579 13.0595ZM70.6364 12.8908C70.554 12.8879 70.486 12.8209 70.4845 12.7365C70.4845 12.6507 70.5525 12.5808 70.6379 12.5794C70.8346 12.5765 71.0358 12.5779 71.2325 12.5823C71.3193 12.5852 71.3859 12.6565 71.3844 12.7424C71.3815 12.8282 71.3107 12.8966 71.2253 12.8951C71.0314 12.8893 70.8346 12.8879 70.6422 12.8908C70.6408 12.8908 70.6379 12.8908 70.6364 12.8908Z" fill="#EFEFEF" fill-opacity="0.937255"/>
</g>
</g>
</g>
<path d="M25.0047 12.6332H26.6685V12.9126H25.0047M26.9463 12.6332H28.6102V12.9126H26.9463M28.888 12.6332H30.5518V12.9126H28.888M30.8282 12.6332H32.4935V12.9126H30.8282M32.7698 12.6332H34.4337V12.9126H32.7698M34.7115 12.6332H36.3753V12.9126H34.7115M36.6531 12.6332H38.317V12.9126H36.6531M38.5948 12.6332H40.2586V12.9126H38.5948M40.535 12.6332H42.2003V12.9126H40.535M42.4766 12.6332H44.1405V12.9126H42.4766M44.4183 12.6332H46.0822V12.9126H44.4183M46.36 12.6332H48.0238V12.9126H46.36M48.3016 12.6332H49.9655V12.9126H48.3016M50.2418 12.6332H51.9071V12.9126H50.2418M52.1835 12.6332H53.8473V12.9126H52.1835M54.1251 12.6332H55.789V12.9126H54.1251M56.0668 12.6332H57.7306V12.9126H56.0668M58.0084 12.6332H59.6723V12.9126H58.0084M59.9486 12.6332H61.6139V12.9126H59.9486M61.8903 12.6332H63.5541V12.9126H61.8903M63.8319 12.6332H65.4958V12.9126H63.8319M65.7736 12.6332H67.4375V12.9126H65.7736M67.7153 12.6332H69.3791V12.9126H67.7153M69.6555 12.6332H70.0099V12.9126H69.6555" fill="#EFEFEF" fill-opacity="0.937255"/>
<mask id="mask7_361_774" style="mask-type:luminance" maskUnits="userSpaceOnUse" x="79" y="12" width="8" height="10">
<path d="M79.8889 12.7729H86.0004V21.6646H79.8889V12.7729Z" fill="white"/>
</mask>
<g mask="url(#mask7_361_774)">
<path d="M82.9447 12.7729C81.2592 12.7729 79.8919 14.1464 79.8919 15.843C79.8919 16.1253 79.931 16.3974 80.0019 16.6578C80.0626 16.8833 80.1494 17.0987 80.2579 17.3009C80.284 17.349 80.3115 17.397 80.3404 17.445L82.6423 21.455C82.6467 21.4638 82.651 21.4725 82.6568 21.4812C82.7205 21.5729 82.8261 21.6326 82.9447 21.6326C83.0648 21.6326 83.1704 21.5714 83.2341 21.4798L83.2442 21.4623L85.549 17.445L85.6329 17.3009C85.7414 17.0987 85.8268 16.8833 85.889 16.6578C85.9599 16.3974 85.999 16.1253 85.999 15.843C85.999 14.1464 84.6317 12.7729 82.9447 12.7729ZM82.9447 17.1307C82.2387 17.1307 81.6643 16.5531 81.6643 15.843C81.6643 15.1315 82.2372 14.5553 82.9447 14.5553C83.6522 14.5553 84.2252 15.1315 84.2252 15.843C84.2252 16.5531 83.6522 17.1307 82.9447 17.1307Z" fill="#EFEFEF" fill-opacity="0.937255"/>
</g>
<path d="M9.00121 23.1458C9.23559 22.6118 9.483 22.0996 9.74343 21.6078L9.98939 21.7388C9.73186 22.2247 9.48734 22.7311 9.25585 23.2578L9.00121 23.1458ZM9.87509 21.3634C10.15 20.8599 10.4394 20.3783 10.7417 19.9185L10.9732 20.0742C10.6752 20.5267 10.3902 21.0011 10.1182 21.4972L9.87509 21.3634ZM10.8995 19.6843C11.2192 19.2158 11.5534 18.7691 11.9036 18.3456L12.1177 18.5246C11.7733 18.9408 11.4435 19.3802 11.1281 19.8429L10.8995 19.6843ZM12.0873 18.1288C12.4577 17.6967 12.844 17.2908 13.2477 16.9095L13.4372 17.1132C13.0422 17.4872 12.6617 17.8873 12.2985 18.3107L12.0873 18.1288ZM13.4517 16.7204C13.8713 16.3392 14.3082 15.9841 14.7625 15.6553L14.9246 15.8823C14.4789 16.2039 14.0492 16.5531 13.6383 16.9285L13.4517 16.7204ZM14.9911 15.4923C15.4512 15.1737 15.9287 14.8812 16.4235 14.615L16.5537 14.8609C16.069 15.1213 15.6002 15.4094 15.1488 15.7222L14.9911 15.4923ZM16.6723 14.484C17.1657 14.2294 17.6764 14.0024 18.2045 13.8001L18.3029 14.0621C17.7849 14.2599 17.2829 14.4826 16.7982 14.7328L16.6723 14.484ZM18.4664 13.7027C18.9887 13.515 19.5255 13.3505 20.0796 13.2123L20.1462 13.483C19.6022 13.6197 19.0741 13.7798 18.5605 13.966L18.4664 13.7027ZM20.3473 13.1468C20.8841 13.0217 21.4368 12.9184 22.0054 12.8384L22.043 13.1148C21.4845 13.1934 20.9391 13.2953 20.4095 13.4189L20.3473 13.1468ZM22.2889 12.8005C22.8257 12.7336 23.3755 12.6856 23.9383 12.6594L23.9514 12.9373C23.3958 12.965 22.8532 13.0115 22.3237 13.0785L22.2889 12.8005ZM24.2219 12.6478C24.4795 12.6376 24.7413 12.6332 25.0047 12.6318L25.0061 12.9111C24.7442 12.9126 24.4867 12.9169 24.2306 12.9257L24.2219 12.6478Z" fill="#EFEFEF" fill-opacity="0.937255"/>
<path d="M13.2867 41.3001C12.8831 40.8869 12.5011 40.4664 12.1437 40.0415L12.355 39.8611C12.7095 40.2816 13.0856 40.6963 13.485 41.1052L13.2867 41.3001ZM11.9658 39.8277C11.6041 39.3853 11.2655 38.9372 10.953 38.4818L11.1816 38.3232C11.4898 38.7713 11.8225 39.2136 12.1814 39.6501L11.9658 39.8277ZM10.7953 38.249C10.4799 37.7761 10.1905 37.2974 9.92863 36.8114L10.1731 36.6775C10.4307 37.1562 10.7143 37.6277 11.0253 38.0933L10.7953 38.249ZM9.79552 36.5597C9.53509 36.0562 9.3036 35.547 9.0996 35.0304L9.35713 34.9271C9.55824 35.4349 9.78684 35.9369 10.0429 36.4316L9.79552 36.5597ZM8.99687 34.7656C8.79865 34.2345 8.63082 33.6976 8.49048 33.1535L8.75959 33.0836C8.89704 33.6176 9.06198 34.1458 9.2573 34.6667L8.99687 34.7656ZM8.42392 32.8799C8.29371 32.3328 8.19532 31.7785 8.12443 31.2183L8.40077 31.1833C8.46877 31.7348 8.56716 32.279 8.69448 32.8159L8.42392 32.8799ZM8.0926 30.9374C8.03328 30.3831 8.00145 29.8229 8 29.2554L8.27779 29.254C8.27924 29.8127 8.30962 30.3627 8.3675 30.9069L8.0926 30.9374ZM8.00145 28.9732C8.00868 28.4188 8.04341 27.8586 8.10417 27.2911L8.38052 27.3217C8.31975 27.879 8.28647 28.4319 8.27924 28.9761L8.00145 28.9732ZM8.13745 27.0132C8.20545 26.4618 8.29805 25.9045 8.41814 25.3414L8.68869 25.3996C8.5715 25.9554 8.48035 26.504 8.41235 27.0467L8.13745 27.0132ZM8.47601 25.0722C8.59754 24.5324 8.74223 23.9868 8.91006 23.4353L9.17628 23.5168C9.00989 24.061 8.86665 24.6008 8.74801 25.1333L8.47601 25.0722Z" fill="#EFEFEF" fill-opacity="0.937255"/>
<mask id="mask8_361_774" style="mask-type:luminance" maskUnits="userSpaceOnUse" x="12" y="40" width="21" height="8">
<path d="M32.8436 40.2889H12.1018V47.7386H32.8436V40.2889Z" fill="white"/>
</mask>
<g mask="url(#mask8_361_774)">
<mask id="mask9_361_774" style="mask-type:luminance" maskUnits="userSpaceOnUse" x="12" y="40" width="21" height="8">
<path d="M12.3087 40.3485H32.4877V47.5H12.3087V40.3485Z" fill="white"/>
</mask>
<g mask="url(#mask9_361_774)">
<mask id="mask10_361_774" style="mask-type:luminance" maskUnits="userSpaceOnUse" x="12" y="40" width="21" height="9">
<rect x="12.1018" y="40.2889" width="20.7418" height="7.82222"/>
</mask>
<g mask="url(#mask10_361_774)">
<mask id="mask11_361_774" style="mask-type:luminance" maskUnits="userSpaceOnUse" x="12" y="40" width="21" height="8">
<path d="M32.8436 40.2889H12.1018V47.7386H32.8436V40.2889Z" fill="white"/>
</mask>
<g mask="url(#mask11_361_774)">
<mask id="mask12_361_774" style="mask-type:luminance" maskUnits="userSpaceOnUse" x="13" y="41" width="19" height="5">
<path d="M13.2129 41.0339H31.7324V45.8762H13.2129V41.0339Z" fill="white"/>
</mask>
<g mask="url(#mask12_361_774)">
<mask id="mask13_361_774" style="mask-type:luminance" maskUnits="userSpaceOnUse" x="12" y="40" width="21" height="8">
<path d="M31.8149 47.4171L12.3275 44.571L12.925 40.4315L32.4125 43.2775L31.8149 47.4171Z" fill="white"/>
</mask>
<g mask="url(#mask13_361_774)">
<path d="M31.6037 44.069C31.0712 44.2888 30.5417 44.4852 30.0165 44.6569L29.9297 44.3921C30.4491 44.2218 30.9729 44.0283 31.4981 43.8101L31.6037 44.069ZM29.7532 44.7413C29.2092 44.913 28.6695 45.0585 28.1342 45.1778L28.0734 44.9057C28.6029 44.7878 29.1339 44.6438 29.6707 44.475L29.7532 44.7413ZM27.8607 45.2374C27.3066 45.3524 26.7568 45.4397 26.2113 45.5008L26.1809 45.2229C26.7177 45.1632 27.2588 45.0774 27.8043 44.9639L27.8607 45.2374ZM25.9306 45.5299C25.3707 45.5823 24.8137 45.607 24.261 45.6026L24.2639 45.3233C24.8064 45.3276 25.3533 45.3044 25.9046 45.252L25.9306 45.5299ZM23.9803 45.5983C23.4189 45.5823 22.8604 45.5386 22.3078 45.4644L22.3439 45.188C22.8879 45.2607 23.4348 45.3044 23.9875 45.3189L23.9803 45.5983ZM22.0314 45.4237C21.4787 45.3393 20.9318 45.2258 20.3892 45.0817L20.4601 44.8111C20.9926 44.9537 21.5308 45.0657 22.0719 45.1487L22.0314 45.4237ZM20.1187 45.0061C19.5863 44.8548 19.0582 44.6743 18.5358 44.4663L18.6371 44.2073C19.1522 44.4124 19.6716 44.5899 20.1939 44.7384L20.1187 45.0061ZM18.2754 44.3601C17.7676 44.1462 17.2641 43.9061 16.7635 43.6398L16.8937 43.3939C17.3871 43.6558 17.8819 43.893 18.3825 44.1025L18.2754 44.3601ZM16.519 43.506C16.0372 43.2382 15.5583 42.9458 15.0837 42.6271L15.2371 42.3958C15.7058 42.7101 16.1775 42.9981 16.6535 43.2615L16.519 43.506ZM14.8565 42.4729C14.4022 42.1601 13.9508 41.8239 13.5038 41.4631L13.6774 41.2448C14.1187 41.6013 14.5643 41.9331 15.0128 42.243L14.8565 42.4729Z" fill="#EFEFEF" fill-opacity="0.937255"/>
</g>
</g>
</g>
</g>
<mask id="mask14_361_774" style="mask-type:luminance" maskUnits="userSpaceOnUse" x="12" y="40" width="21" height="7">
<mask id="mask15_361_774" style="mask-type:luminance" maskUnits="userSpaceOnUse" x="12" y="40" width="21" height="8">
<path d="M32.8436 40.2889H12.1018V47.7386H32.8436V40.2889Z" fill="white"/>
</mask>
<g mask="url(#mask15_361_774)">
<mask id="mask16_361_774" style="mask-type:luminance" maskUnits="userSpaceOnUse" x="12" y="40" width="21" height="8">
<path d="M12.3087 40.3485H32.4877V47.5H12.3087V40.3485Z" fill="white"/>
</mask>
<g mask="url(#mask16_361_774)">
<mask id="mask17_361_774" style="mask-type:luminance" maskUnits="userSpaceOnUse" x="12" y="40" width="21" height="8">
<path d="M32.8436 40.2889H12.1018V47.7386H32.8436V40.2889Z" fill="white"/>
</mask>
<g mask="url(#mask17_361_774)">
<mask id="mask18_361_774" style="mask-type:luminance" maskUnits="userSpaceOnUse" x="12" y="40" width="21" height="7">
<path d="M12.4722 40.6614H32.1028V46.9937H12.4722V40.6614Z" fill="white"/>
</mask>
<g mask="url(#mask18_361_774)">
<mask id="mask19_361_774" style="mask-type:luminance" maskUnits="userSpaceOnUse" x="12" y="40" width="21" height="8">
<path d="M31.8149 47.4171L12.3275 44.571L12.925 40.4315L32.4125 43.2775L31.8149 47.4171Z" fill="white"/>
</mask>
<g mask="url(#mask19_361_774)">
<mask id="mask20_361_774" style="mask-type:luminance" maskUnits="userSpaceOnUse" x="12" y="40" width="21" height="8">
<path d="M31.5791 47.1013L12.6111 44.331L13.1261 40.7662L32.0942 43.5365L31.5791 47.1013Z" fill="white"/>
</mask>
<g mask="url(#mask20_361_774)">
<mask id="mask21_361_774" style="mask-type:luminance" maskUnits="userSpaceOnUse" x="12" y="40" width="82" height="28">
<rect x="12.1018" y="40.2889" width="81.4858" height="26.819"/>
</mask>
<g mask="url(#mask21_361_774)">
<rect x="12.5759" y="40.7061" width="19.5566" height="6.43657"/>
</g>
</g>
</g>
</g>
</g>
</g>
</g>
</mask>
<g mask="url(#mask14_361_774)">
<mask id="mask22_361_774" style="mask-type:luminance" maskUnits="userSpaceOnUse" x="12" y="40" width="21" height="8">
<path d="M32.8436 40.2889H12.1018V47.7386H32.8436V40.2889Z" fill="white"/>
</mask>
<g mask="url(#mask22_361_774)">
<mask id="mask23_361_774" style="mask-type:luminance" maskUnits="userSpaceOnUse" x="13" y="41" width="19" height="5">
<path d="M13.2129 41.0339H31.7324V45.8762H13.2129V41.0339Z" fill="white"/>
</mask>
<g mask="url(#mask23_361_774)">
<mask id="mask24_361_774" style="mask-type:luminance" maskUnits="userSpaceOnUse" x="12" y="40" width="21" height="8">
<path d="M31.8149 47.4171L12.3275 44.571L12.925 40.4315L32.4125 43.2775L31.8149 47.4171Z" fill="white"/>
</mask>
<g mask="url(#mask24_361_774)">
<path d="M31.6037 44.069C31.0712 44.2888 30.5417 44.4852 30.0165 44.6569L29.9297 44.3921C30.4491 44.2218 30.9729 44.0283 31.4981 43.8101L31.6037 44.069ZM29.7532 44.7413C29.2092 44.913 28.6695 45.0585 28.1342 45.1778L28.0734 44.9057C28.6029 44.7878 29.1339 44.6438 29.6707 44.475L29.7532 44.7413ZM27.8607 45.2374C27.3066 45.3524 26.7568 45.4397 26.2113 45.5008L26.1809 45.2229C26.7177 45.1632 27.2588 45.0774 27.8043 44.9639L27.8607 45.2374ZM25.9306 45.5299C25.3707 45.5823 24.8137 45.607 24.261 45.6026L24.2639 45.3233C24.8064 45.3276 25.3533 45.3044 25.9046 45.252L25.9306 45.5299ZM23.9803 45.5983C23.4189 45.5823 22.8604 45.5386 22.3078 45.4644L22.3439 45.188C22.8879 45.2607 23.4348 45.3044 23.9875 45.3189L23.9803 45.5983ZM22.0314 45.4237C21.4787 45.3393 20.9318 45.2258 20.3892 45.0817L20.4601 44.8111C20.9926 44.9537 21.5308 45.0657 22.0719 45.1487L22.0314 45.4237ZM20.1187 45.0061C19.5863 44.8548 19.0582 44.6743 18.5358 44.4663L18.6371 44.2073C19.1522 44.4124 19.6716 44.5899 20.1939 44.7384L20.1187 45.0061ZM18.2754 44.3601C17.7676 44.1462 17.2641 43.9061 16.7635 43.6398L16.8937 43.3939C17.3871 43.6558 17.8819 43.893 18.3825 44.1025L18.2754 44.3601ZM16.519 43.506C16.0372 43.2382 15.5583 42.9458 15.0837 42.6271L15.2371 42.3958C15.7058 42.7101 16.1775 42.9981 16.6535 43.2615L16.519 43.506ZM14.8565 42.4729C14.4022 42.1601 13.9508 41.8239 13.5038 41.4631L13.6774 41.2448C14.1187 41.6013 14.5643 41.9331 15.0128 42.243L14.8565 42.4729Z" fill="#EFEFEF" fill-opacity="0.937255"/>
</g>
</g>
</g>
</g>
</g>
</g>
<path d="M31.5646 43.9337C31.6529 44.1476 31.553 44.3921 31.3418 44.4823C31.1291 44.5711 30.8861 44.4707 30.7964 44.2568C30.7081 44.0443 30.8079 43.7984 31.0206 43.7097C31.2318 43.6209 31.4764 43.7213 31.5646 43.9337Z" stroke="#EFEFEF" stroke-opacity="0.937255" stroke-width="0.99837" stroke-linecap="round" stroke-linejoin="round"/>
<path d="M44.2583 49.4572C43.9602 49.4572 43.6911 49.399 43.4481 49.2826C43.2079 49.1633 43.0024 49.0003 42.8288 48.7937C42.6552 48.5885 42.5192 48.3572 42.4237 48.1011C42.3311 47.845 42.2848 47.5816 42.2848 47.3095C42.2848 47.0302 42.3326 46.7625 42.4295 46.5064C42.5293 46.2503 42.6682 46.0218 42.8462 45.8196C43.027 45.6188 43.2368 45.4588 43.477 45.3424C43.7201 45.2259 43.9819 45.1677 44.2641 45.1677C44.5607 45.1677 44.8283 45.2303 45.0685 45.354C45.3116 45.4748 45.517 45.6392 45.6878 45.8487C45.8614 46.0553 45.9945 46.2852 46.0871 46.5413C46.1826 46.7945 46.2318 47.0535 46.2318 47.3212C46.2318 47.6006 46.1811 47.8683 46.0813 48.1244C45.9844 48.3804 45.8469 48.6103 45.6704 48.8111C45.4924 49.0134 45.2826 49.172 45.0396 49.2884C44.7994 49.4019 44.539 49.4572 44.2583 49.4572ZM42.7015 47.3095C42.7015 47.5424 42.7377 47.7664 42.8115 47.9789C42.8881 48.1884 42.9938 48.3775 43.1298 48.5434C43.2687 48.7064 43.4336 48.8388 43.6275 48.9392C43.8199 49.0367 44.0297 49.0847 44.2583 49.0847C44.497 49.0847 44.7126 49.0352 44.9065 48.9334C45.0989 48.8286 45.2624 48.6933 45.3984 48.526C45.533 48.3557 45.6357 48.1651 45.7051 47.9556C45.7775 47.7461 45.8151 47.5307 45.8151 47.3095C45.8151 47.0811 45.776 46.8614 45.6993 46.6519C45.6255 46.4424 45.5199 46.2547 45.381 46.0873C45.2421 45.9215 45.0758 45.789 44.8833 45.6916C44.6938 45.5955 44.4854 45.5461 44.2583 45.5461C44.0225 45.5461 43.8083 45.597 43.6159 45.6974C43.422 45.7992 43.2585 45.9345 43.124 46.1048C42.988 46.2721 42.8838 46.4598 42.8115 46.6693C42.7377 46.8789 42.7015 47.0927 42.7015 47.3095Z" fill="#EFEFEF" fill-opacity="0.937255"/>
<path d="M48.4468 46.681C48.1763 46.6897 47.939 46.7654 47.735 46.908C47.5339 47.052 47.3907 47.2484 47.3067 47.4958V49.4281H46.9074V46.3201H47.2836V47.0651C47.3907 46.8483 47.5324 46.6737 47.7061 46.5413C47.8826 46.406 48.0707 46.3289 48.2674 46.3085C48.3094 46.3056 48.3441 46.3027 48.3716 46.3027C48.402 46.3027 48.4266 46.3056 48.4468 46.3085V46.681Z" fill="#EFEFEF" fill-opacity="0.937255"/>
<path d="M50.4975 49.4862C50.2544 49.4862 50.0302 49.4251 49.8262 49.3C49.6207 49.1763 49.4616 49.0192 49.3458 48.8286V49.428H48.987V45.0746H49.3863V46.972C49.5252 46.7624 49.6902 46.5937 49.8841 46.4656C50.0808 46.3347 50.3065 46.2677 50.5612 46.2677C50.7811 46.2677 50.975 46.3143 51.1457 46.4074C51.3193 46.4976 51.4654 46.6198 51.5855 46.7741C51.7085 46.9254 51.8011 47.0985 51.8633 47.2921C51.9284 47.487 51.9617 47.6849 51.9617 47.8857C51.9617 48.104 51.9241 48.3077 51.8518 48.4968C51.778 48.6874 51.6738 48.8577 51.5392 49.009C51.4032 49.1574 51.247 49.2738 51.0705 49.3582C50.8968 49.4426 50.7059 49.4862 50.4975 49.4862ZM50.4049 49.1312C50.5699 49.1312 50.7232 49.0992 50.8621 49.0323C51.0039 48.9624 51.1283 48.8693 51.2325 48.7529C51.3367 48.6336 51.4148 48.4997 51.4698 48.3513C51.5233 48.2 51.5508 48.0458 51.5508 47.8857C51.5508 47.6646 51.5045 47.4594 51.4119 47.2688C51.3193 47.0753 51.1891 46.9196 51.0242 46.8032C50.8621 46.6868 50.6711 46.6286 50.4512 46.6286C50.2921 46.6286 50.1445 46.6664 50.0056 46.7392C49.8696 46.809 49.7509 46.9021 49.6468 47.0185C49.5426 47.1349 49.4558 47.263 49.3863 47.4026V48.3688C49.4052 48.4735 49.4471 48.5754 49.5137 48.6714C49.5788 48.7646 49.6612 48.8446 49.7625 48.9101C49.8667 48.977 49.9723 49.0308 50.0808 49.073C50.1922 49.1123 50.3007 49.1312 50.4049 49.1312Z" fill="#EFEFEF" fill-opacity="0.937255"/>
<path d="M52.6426 49.428V46.3201H53.042V49.428H52.6426ZM52.6426 45.6741V45.0746H53.042V45.6741H52.6426Z" fill="#EFEFEF" fill-opacity="0.937255"/>
<path d="M55.4158 49.2767C55.384 49.2884 55.3348 49.3117 55.2653 49.3466C55.1988 49.3786 55.1178 49.4048 55.0223 49.4281C54.9297 49.4513 54.8269 49.463 54.7155 49.463C54.5998 49.463 54.4913 49.4412 54.3914 49.399C54.2902 49.3568 54.2091 49.2913 54.1484 49.2011C54.0905 49.1123 54.0616 49.0017 54.0616 48.8693V46.6461H53.6391V46.3201H54.0616V45.2725H54.4667V46.3201H55.1785V46.6461H54.4667V48.7529C54.4739 48.8664 54.5144 48.9508 54.5882 49.009C54.6605 49.0643 54.7445 49.0905 54.8371 49.0905C54.9485 49.0905 55.0483 49.0716 55.138 49.0323C55.2306 48.9945 55.2856 48.9668 55.3058 48.9508L55.4158 49.2767Z" fill="#EFEFEF" fill-opacity="0.937255"/>
<path d="M55.919 49.428V46.3201H56.3184V49.428H55.919ZM55.919 45.6741V45.0746H56.3184V45.6741H55.919Z" fill="#EFEFEF" fill-opacity="0.937255"/>
<path d="M59.8034 49.4281H59.4041V47.6937C59.4041 47.3299 59.3491 47.0636 59.242 46.8963C59.1335 46.7261 58.9657 46.6402 58.7385 46.6402C58.5794 46.6402 58.4231 46.6795 58.2697 46.7566C58.1149 46.8352 57.9804 46.94 57.8646 47.0709C57.7489 47.2033 57.6635 47.3546 57.61 47.5249V49.4281H57.2107V46.3201H57.5753V47.0244C57.6592 46.873 57.7677 46.7421 57.8994 46.6286C58.0339 46.5165 58.1858 46.4292 58.3566 46.3667C58.5258 46.3012 58.7038 46.2677 58.889 46.2677C59.0583 46.2677 59.2015 46.3012 59.3173 46.3667C59.4359 46.4292 59.5314 46.518 59.6008 46.6344C59.6732 46.7508 59.7253 46.8934 59.7571 47.0593C59.7875 47.2222 59.8034 47.407 59.8034 47.6122V49.4281Z" fill="#EFEFEF" fill-opacity="0.937255"/>
<path d="M61.9033 49.4688C61.695 49.4688 61.4997 49.4266 61.3188 49.3408C61.1408 49.252 60.9889 49.1341 60.8616 48.9857C60.7343 48.8344 60.633 48.6642 60.5607 48.4736C60.4912 48.2844 60.4565 48.088 60.4565 47.8857C60.4565 47.6646 60.4912 47.4594 60.5607 47.2688C60.6301 47.0753 60.7285 46.9021 60.8558 46.7508C60.9831 46.5995 61.1336 46.4816 61.3072 46.3958C61.4808 46.3114 61.6747 46.2677 61.8917 46.2677C62.1536 46.2677 62.3837 46.3361 62.5804 46.4714C62.7772 46.6082 62.9421 46.7741 63.0782 46.972V46.3201H63.437V49.4397C63.437 49.7263 63.3675 49.9664 63.2286 50.1614C63.0926 50.3593 62.9103 50.5062 62.6788 50.6037C62.4502 50.7041 62.1999 50.755 61.9265 50.755C61.5749 50.755 61.2899 50.691 61.0699 50.563C60.8529 50.4378 60.6764 50.2691 60.5375 50.0566L60.7864 49.8587C60.9093 50.0523 61.0728 50.1963 61.2783 50.2894C61.4823 50.3855 61.6979 50.4349 61.9265 50.4349C62.1261 50.4349 62.3099 50.3971 62.4763 50.3244C62.6455 50.2501 62.7801 50.1396 62.8814 49.9926C62.9812 49.8442 63.0319 49.6609 63.0319 49.4397V48.8286C62.9161 49.0236 62.7541 49.1778 62.5457 49.2942C62.3403 49.4106 62.1261 49.4688 61.9033 49.4688ZM62.0133 49.1312C62.1363 49.1312 62.2535 49.1109 62.3663 49.0672C62.4777 49.0206 62.5819 48.961 62.6788 48.8868C62.7743 48.814 62.8539 48.7326 62.9161 48.6423C62.9769 48.5492 63.0159 48.4561 63.0319 48.363V47.4027C62.974 47.2513 62.8886 47.1175 62.7772 47.0011C62.6687 46.8847 62.5428 46.7945 62.401 46.7275C62.2621 46.6621 62.1175 46.6286 61.967 46.6286C61.7934 46.6286 61.6371 46.6664 61.4982 46.7392C61.3622 46.8134 61.2493 46.9109 61.1568 47.0302C61.0642 47.1509 60.9918 47.2863 60.9426 47.4376C60.892 47.5889 60.8674 47.7402 60.8674 47.8915C60.8674 48.0589 60.8963 48.2175 60.9542 48.3688C61.0121 48.5172 61.0931 48.6482 61.1973 48.7646C61.3043 48.881 61.4288 48.9726 61.5677 49.0381C61.7065 49.1007 61.8541 49.1312 62.0133 49.1312Z" fill="#EFEFEF" fill-opacity="0.937255"/>
<path d="M69.5604 46.3201H69.9539L68.6286 49.4281H68.2756L67.6332 47.8857L66.9908 49.4281H66.6435L65.3125 46.3201H65.706L66.8345 49.009L67.4017 47.6122L66.8808 46.3318H67.2396L67.6332 47.3386L68.0267 46.3318H68.3855L67.8705 47.6122L68.4376 49.009L69.5604 46.3201Z" fill="#EFEFEF" fill-opacity="0.937255"/>
<path d="M70.4881 49.428V46.3201H70.8875V49.428H70.4881ZM70.4881 45.6741V45.0746H70.8875V45.6741H70.4881Z" fill="#EFEFEF" fill-opacity="0.937255"/>
<path d="M73.2613 49.2767C73.2295 49.2884 73.1803 49.3117 73.1109 49.3466C73.0443 49.3786 72.9633 49.4048 72.8678 49.4281C72.7752 49.4513 72.6725 49.463 72.5611 49.463C72.4453 49.463 72.3368 49.4412 72.237 49.399C72.1357 49.3568 72.0547 49.2913 71.9939 49.2011C71.936 49.1123 71.9071 49.0017 71.9071 48.8693V46.6461H71.4846V46.3201H71.9071V45.2725H72.3122V46.3201H73.024V46.6461H72.3122V48.7529C72.3194 48.8664 72.3599 48.9508 72.4337 49.009C72.5061 49.0643 72.59 49.0905 72.6826 49.0905C72.794 49.0905 72.8938 49.0716 72.9835 49.0323C73.0761 48.9945 73.1311 48.9668 73.1514 48.9508L73.2613 49.2767Z" fill="#EFEFEF" fill-opacity="0.937255"/>
<path d="M76.3573 49.428H75.958V47.6937C75.958 47.3444 75.8958 47.0825 75.7728 46.9079C75.6484 46.7304 75.4733 46.6402 75.2461 46.6402C75.0957 46.6402 74.9452 46.6795 74.7947 46.7566C74.6471 46.8352 74.5184 46.9399 74.407 47.0709C74.2941 47.2033 74.2131 47.3546 74.1639 47.5249V49.428H73.7646V45.0746H74.1639V47.0243C74.2869 46.7959 74.4591 46.614 74.679 46.4772C74.8989 46.3376 75.1318 46.2677 75.3792 46.2677C75.5558 46.2677 75.7062 46.3012 75.8307 46.3667C75.958 46.4292 76.0593 46.5224 76.1374 46.646C76.2141 46.7668 76.2705 46.9065 76.3052 47.0651C76.3399 47.2251 76.3573 47.407 76.3573 47.6122V49.428Z" fill="#EFEFEF" fill-opacity="0.937255"/>
<path d="M78.749 50.3826C78.8025 50.3855 78.8546 50.3884 78.9053 50.3884C78.9545 50.3913 78.9935 50.3898 79.021 50.3826C79.0673 50.3738 79.1107 50.3447 79.1541 50.2953C79.1961 50.2487 79.2467 50.157 79.3046 50.0217C79.3654 49.8893 79.4507 49.6914 79.5592 49.4281L78.2108 46.3201H78.639L79.7734 49.009L80.8151 46.3201H81.2202L79.6171 50.3302C79.5896 50.4029 79.5477 50.4728 79.4898 50.5397C79.4348 50.6052 79.3683 50.6561 79.2872 50.691C79.2062 50.7289 79.1078 50.7507 78.9921 50.755C78.953 50.758 78.9139 50.758 78.8763 50.755C78.8416 50.755 78.7982 50.7507 78.749 50.7434V50.3826Z" fill="#EFEFEF" fill-opacity="0.937255"/>
<path d="M82.982 49.4863C82.762 49.4863 82.5566 49.4426 82.3685 49.3582C82.1833 49.2738 82.0213 49.1574 81.8824 49.009C81.7464 48.8577 81.6407 48.6874 81.5641 48.4968C81.4903 48.3033 81.4541 48.0996 81.4541 47.8857C81.4541 47.6617 81.4903 47.4536 81.5641 47.263C81.6407 47.0695 81.7493 46.8992 81.8882 46.7508C82.027 46.5995 82.1891 46.4816 82.3743 46.3958C82.5624 46.3114 82.7678 46.2677 82.9877 46.2677C83.2077 46.2677 83.4102 46.3114 83.5954 46.3958C83.7835 46.4816 83.9455 46.5995 84.0816 46.7508C84.2204 46.8992 84.3261 47.0695 84.3999 47.263C84.4765 47.4536 84.5156 47.6617 84.5156 47.8857C84.5156 48.0996 84.4765 48.3033 84.3999 48.4968C84.3261 48.6874 84.2219 48.8577 84.0873 49.009C83.9513 49.1574 83.7893 49.2738 83.6012 49.3582C83.4117 49.4426 83.2048 49.4863 82.982 49.4863ZM81.865 47.8915C81.865 48.1214 81.9142 48.331 82.0155 48.5201C82.1153 48.7064 82.2499 48.8562 82.4206 48.9683C82.5899 49.0774 82.7765 49.1312 82.982 49.1312C83.186 49.1312 83.3726 49.0759 83.5433 48.9624C83.7126 48.8504 83.8501 48.6991 83.9542 48.5085C84.0584 48.315 84.1105 48.1054 84.1105 47.8799C84.1105 47.6471 84.0584 47.4361 83.9542 47.2455C83.8501 47.0564 83.7126 46.9065 83.5433 46.7974C83.3726 46.6853 83.186 46.6286 82.982 46.6286C82.7765 46.6286 82.5899 46.6868 82.4206 46.8032C82.2542 46.9167 82.1196 47.068 82.0155 47.2572C81.9142 47.4434 81.865 47.6558 81.865 47.8915Z" fill="#EFEFEF" fill-opacity="0.937255"/>
<path d="M85.1646 48.1476V46.3201H85.5639V48.0778C85.5639 48.4314 85.6233 48.6947 85.7433 48.8693C85.8663 49.0439 86.0457 49.1312 86.2816 49.1312C86.4393 49.1312 86.5912 49.0963 86.7388 49.0265C86.8892 48.9566 87.0195 48.8577 87.1323 48.7296C87.2481 48.5987 87.3363 48.4474 87.3985 48.2757V46.3201H87.7979V48.9392C87.7979 48.9945 87.8094 49.0352 87.8326 49.0614C87.8586 49.089 87.8962 49.105 87.9425 49.108V49.4281C87.8962 49.431 87.8572 49.4339 87.8268 49.4339C87.7993 49.4368 87.7747 49.4397 87.7516 49.4397C87.6734 49.431 87.6069 49.4019 87.549 49.3466C87.4911 49.2884 87.4593 49.2214 87.4564 49.1429L87.4448 48.7238C87.3088 48.9654 87.1265 49.1531 86.895 49.2884C86.6635 49.4208 86.4147 49.4863 86.1485 49.4863C85.8244 49.4863 85.5784 49.3742 85.4135 49.1487C85.2471 48.9246 85.1646 48.59 85.1646 48.1476Z" fill="#EFEFEF" fill-opacity="0.937255"/>
<path d="M89.9749 48.5318C89.9749 48.3382 90.0284 48.1709 90.1369 48.0312C90.2483 47.8915 90.4031 47.7839 90.5999 47.7053C90.7967 47.6282 91.0224 47.5889 91.277 47.5889C91.4275 47.5889 91.5837 47.6005 91.7458 47.6238C91.9078 47.6471 92.0525 47.682 92.1798 47.7286V47.4667C92.1798 47.2077 92.1017 46.9996 91.9483 46.8439C91.7935 46.6897 91.5794 46.6111 91.3059 46.6111C91.1396 46.6111 90.9761 46.6431 90.814 46.7042C90.6549 46.7624 90.4899 46.8527 90.3163 46.972L90.1658 46.6868C90.3655 46.5471 90.5623 46.4423 90.7561 46.3725C90.9486 46.3027 91.1453 46.2677 91.3465 46.2677C91.7284 46.2677 92.0294 46.3783 92.2493 46.5995C92.4692 46.8177 92.5792 47.1175 92.5792 47.5016V48.9392C92.5792 48.9945 92.5907 49.0352 92.6139 49.0614C92.6399 49.089 92.679 49.105 92.7296 49.1079V49.4281C92.6862 49.431 92.6486 49.4353 92.6139 49.4397C92.5821 49.4426 92.5589 49.4426 92.5444 49.4397C92.4475 49.4353 92.3723 49.4048 92.3187 49.3466C92.2681 49.2855 92.2406 49.2214 92.2377 49.1545L92.2319 48.9275C92.093 49.1065 91.9107 49.2447 91.6879 49.3408C91.468 49.4368 91.2437 49.4863 91.0166 49.4863C90.8198 49.4863 90.6404 49.4426 90.4784 49.3582C90.3192 49.2738 90.1962 49.1589 90.108 49.0148C90.0183 48.8679 89.9749 48.7064 89.9749 48.5318ZM92.0409 48.7704C92.0829 48.7165 92.1162 48.6642 92.1393 48.6132C92.1654 48.5594 92.1798 48.5128 92.1798 48.4736V48.0196C92.0438 47.9701 91.9035 47.9308 91.7574 47.9032C91.6141 47.877 91.4694 47.8624 91.3233 47.8624C91.0368 47.8624 90.8039 47.9206 90.623 48.037C90.4451 48.1505 90.3568 48.3048 90.3568 48.5027C90.3568 48.6191 90.3858 48.7282 90.4436 48.8286C90.5044 48.9304 90.5912 49.0134 90.7041 49.0788C90.8198 49.1458 90.9544 49.1778 91.1092 49.1778C91.3059 49.1778 91.4868 49.1414 91.6532 49.0672C91.8225 48.9901 91.9512 48.8911 92.0409 48.7704Z" fill="#EFEFEF" fill-opacity="0.937255"/>
<path d="M94.7896 49.4863C94.5653 49.4863 94.3584 49.4426 94.1703 49.3582C93.9851 49.2738 93.8202 49.1545 93.6784 49.0032C93.5395 48.8519 93.431 48.6802 93.3543 48.4852C93.2762 48.2917 93.2386 48.0865 93.2386 47.8683C93.2386 47.5744 93.3037 47.3066 93.4353 47.0651C93.5656 46.8206 93.7479 46.6271 93.9794 46.4831C94.2108 46.3405 94.4785 46.2677 94.7838 46.2677C95.0732 46.2677 95.3278 46.3361 95.5477 46.4714C95.7705 46.6038 95.9355 46.7828 96.0397 47.0069L95.6519 47.1349C95.5622 46.9763 95.4392 46.8527 95.2815 46.7624C95.1267 46.6737 94.9545 46.6286 94.7664 46.6286C94.561 46.6286 94.3743 46.6839 94.2051 46.7915C94.0343 46.8963 93.8998 47.0418 93.7999 47.2281C93.6987 47.4143 93.6495 47.6282 93.6495 47.8683C93.6495 48.1011 93.6987 48.3135 93.7999 48.5027C93.9041 48.6933 94.0401 48.846 94.2108 48.9624C94.3801 49.0759 94.5668 49.1312 94.7722 49.1312C94.9068 49.1312 95.0355 49.1079 95.16 49.0614C95.283 49.0119 95.3915 48.945 95.4841 48.8635C95.5796 48.782 95.6432 48.6947 95.675 48.6016L96.0686 48.718C96.0136 48.8664 95.9239 48.9974 95.7966 49.1138C95.6693 49.2302 95.5188 49.3218 95.3452 49.3873C95.1715 49.4528 94.9864 49.4863 94.7896 49.4863Z" fill="#EFEFEF" fill-opacity="0.937255"/>
<path d="M98.2449 46.681C97.9743 46.6897 97.737 46.7654 97.533 46.908C97.3319 47.052 97.1887 47.2484 97.1048 47.4958V49.4281H96.7054V46.3201H97.0816V47.0651C97.1887 46.8483 97.3305 46.6737 97.5041 46.5413C97.6806 46.406 97.8687 46.3289 98.0655 46.3085C98.1074 46.3056 98.1421 46.3027 98.1696 46.3027C98.2 46.3027 98.2246 46.3056 98.2449 46.3085V46.681Z" fill="#EFEFEF" fill-opacity="0.937255"/>
<path d="M100.004 49.4863C99.7841 49.4863 99.5786 49.4426 99.3905 49.3582C99.2053 49.2738 99.0433 49.1574 98.9044 49.009C98.7684 48.8577 98.6628 48.6874 98.5861 48.4968C98.5123 48.3033 98.4761 48.0996 98.4761 47.8857C98.4761 47.6617 98.5123 47.4536 98.5861 47.263C98.6628 47.0695 98.7713 46.8992 98.9102 46.7508C99.0491 46.5995 99.2111 46.4816 99.3963 46.3958C99.5844 46.3114 99.7898 46.2677 100.01 46.2677C100.23 46.2677 100.432 46.3114 100.617 46.3958C100.806 46.4816 100.968 46.5995 101.104 46.7508C101.242 46.8992 101.348 47.0695 101.422 47.263C101.499 47.4536 101.538 47.6617 101.538 47.8857C101.538 48.0996 101.499 48.3033 101.422 48.4968C101.348 48.6874 101.244 48.8577 101.109 49.009C100.973 49.1574 100.811 49.2738 100.623 49.3582C100.434 49.4426 100.227 49.4863 100.004 49.4863ZM98.887 47.8915C98.887 48.1214 98.9362 48.331 99.0375 48.5201C99.1373 48.7064 99.2719 48.8562 99.4426 48.9683C99.6119 49.0774 99.7985 49.1312 100.004 49.1312C100.208 49.1312 100.395 49.0759 100.565 48.9624C100.735 48.8504 100.872 48.6991 100.976 48.5085C101.08 48.315 101.133 48.1054 101.133 47.8799C101.133 47.6471 101.08 47.4361 100.976 47.2455C100.872 47.0564 100.735 46.9065 100.565 46.7974C100.395 46.6853 100.208 46.6286 100.004 46.6286C99.7985 46.6286 99.6119 46.6868 99.4426 46.8032C99.2762 46.9167 99.1417 47.068 99.0375 47.2572C98.9362 47.4434 98.887 47.6558 98.887 47.8915Z" fill="#EFEFEF" fill-opacity="0.937255"/>
<path d="M103.228 49.4863C102.974 49.4863 102.738 49.4455 102.522 49.364C102.305 49.2796 102.119 49.1516 101.961 48.9799L102.123 48.6947C102.297 48.8577 102.472 48.977 102.65 49.0497C102.826 49.124 103.014 49.1603 103.211 49.1603C103.45 49.1603 103.645 49.1123 103.795 49.0148C103.946 48.9188 104.021 48.7791 104.021 48.5958C104.021 48.4721 103.984 48.3775 103.911 48.3106C103.837 48.2451 103.733 48.1927 103.599 48.1535C103.463 48.1113 103.299 48.0647 103.107 48.0138C102.894 47.9556 102.715 47.8945 102.569 47.8275C102.425 47.7621 102.317 47.6791 102.244 47.5773C102.171 47.4769 102.134 47.3445 102.134 47.1815C102.134 46.9807 102.184 46.8134 102.285 46.681C102.389 46.5456 102.528 46.4423 102.702 46.3725C102.878 46.3027 103.075 46.2677 103.292 46.2677C103.531 46.2677 103.74 46.307 103.923 46.3841C104.104 46.4583 104.253 46.5631 104.368 46.6984L104.172 46.972C104.059 46.8439 103.926 46.7508 103.772 46.6926C103.622 46.6315 103.454 46.5995 103.269 46.5995C103.141 46.5995 103.02 46.6169 102.904 46.6519C102.791 46.6839 102.699 46.7377 102.626 46.8148C102.553 46.8934 102.516 46.9996 102.516 47.1349C102.516 47.2441 102.543 47.3299 102.597 47.391C102.655 47.4536 102.738 47.506 102.846 47.5482C102.958 47.5918 103.095 47.6355 103.257 47.682C103.489 47.7446 103.691 47.8086 103.865 47.8741C104.041 47.941 104.177 48.0254 104.27 48.1302C104.366 48.232 104.415 48.3775 104.415 48.5667C104.415 48.8548 104.305 49.0788 104.085 49.2418C103.868 49.4048 103.583 49.4863 103.228 49.4863Z" fill="#EFEFEF" fill-opacity="0.937255"/>
<path d="M106.09 49.4863C105.835 49.4863 105.6 49.4455 105.384 49.364C105.167 49.2796 104.98 49.1516 104.823 48.9799L104.985 48.6947C105.158 48.8577 105.333 48.977 105.511 49.0497C105.688 49.124 105.876 49.1603 106.073 49.1603C106.311 49.1603 106.507 49.1123 106.657 49.0148C106.808 48.9188 106.883 48.7791 106.883 48.5958C106.883 48.4721 106.845 48.3775 106.773 48.3106C106.699 48.2451 106.595 48.1927 106.46 48.1535C106.324 48.1113 106.161 48.0647 105.968 48.0138C105.756 47.9556 105.576 47.8945 105.43 47.8275C105.287 47.7621 105.178 47.6791 105.106 47.5773C105.032 47.4769 104.996 47.3445 104.996 47.1815C104.996 46.9807 105.045 46.8134 105.147 46.681C105.251 46.5456 105.39 46.4423 105.563 46.3725C105.74 46.3027 105.937 46.2677 106.154 46.2677C106.392 46.2677 106.602 46.307 106.784 46.3841C106.965 46.4583 107.114 46.5631 107.23 46.6984L107.033 46.972C106.92 46.8439 106.787 46.7508 106.634 46.6926C106.484 46.6315 106.316 46.5995 106.13 46.5995C106.003 46.5995 105.882 46.6169 105.766 46.6519C105.653 46.6839 105.56 46.7377 105.488 46.8148C105.414 46.8934 105.378 46.9996 105.378 47.1349C105.378 47.2441 105.404 47.3299 105.459 47.391C105.517 47.4536 105.6 47.506 105.708 47.5482C105.819 47.5918 105.957 47.6355 106.119 47.682C106.35 47.7446 106.553 47.8086 106.727 47.8741C106.903 47.941 107.039 48.0254 107.132 48.1302C107.227 48.232 107.276 48.3775 107.276 48.5667C107.276 48.8548 107.166 49.0788 106.947 49.2418C106.729 49.4048 106.444 49.4863 106.09 49.4863Z" fill="#EFEFEF" fill-opacity="0.937255"/>
<path d="M110.931 49.2767C110.899 49.2884 110.85 49.3117 110.781 49.3466C110.714 49.3786 110.633 49.4048 110.538 49.4281C110.445 49.4513 110.342 49.463 110.231 49.463C110.115 49.463 110.007 49.4412 109.907 49.399C109.806 49.3568 109.725 49.2913 109.664 49.2011C109.606 49.1123 109.577 49.0017 109.577 48.8693V46.6461H109.155V46.3201H109.577V45.2725H109.982V46.3201H110.694V46.6461H109.982V48.7529C109.989 48.8664 110.03 48.9508 110.104 49.009C110.176 49.0643 110.26 49.0905 110.353 49.0905C110.464 49.0905 110.564 49.0716 110.653 49.0323C110.746 48.9945 110.801 48.9668 110.821 48.9508L110.931 49.2767Z" fill="#EFEFEF" fill-opacity="0.937255"/>
<path d="M114.027 49.428H113.628V47.6937C113.628 47.3444 113.566 47.0825 113.443 46.9079C113.318 46.7304 113.143 46.6402 112.916 46.6402C112.766 46.6402 112.615 46.6795 112.465 46.7566C112.317 46.8352 112.188 46.9399 112.077 47.0709C111.964 47.2033 111.883 47.3546 111.834 47.5249V49.428H111.435V45.0746H111.834V47.0243C111.957 46.7959 112.129 46.614 112.349 46.4772C112.569 46.3376 112.802 46.2677 113.049 46.2677C113.226 46.2677 113.376 46.3012 113.501 46.3667C113.628 46.4292 113.729 46.5224 113.807 46.646C113.884 46.7668 113.94 46.9065 113.975 47.0651C114.01 47.2251 114.027 47.407 114.027 47.6122V49.428Z" fill="#EFEFEF" fill-opacity="0.937255"/>
<path d="M116.22 49.4863C116 49.4863 115.794 49.4426 115.606 49.3582C115.417 49.2738 115.253 49.1574 115.114 49.009C114.976 48.8577 114.867 48.686 114.79 48.491C114.712 48.2975 114.675 48.0894 114.675 47.8683C114.675 47.5773 114.74 47.3124 114.871 47.0709C115.006 46.8265 115.19 46.6329 115.421 46.4889C115.653 46.3419 115.916 46.2677 116.214 46.2677C116.518 46.2677 116.784 46.3419 117.013 46.4889C117.24 46.6373 117.418 46.8308 117.545 47.0709C117.675 47.3124 117.742 47.5758 117.742 47.8624C117.742 47.8945 117.742 47.925 117.742 47.9556C117.742 47.9832 117.739 48.005 117.736 48.0196H115.097C115.116 48.2451 115.178 48.4445 115.282 48.6191C115.386 48.7908 115.521 48.9261 115.687 49.0265C115.857 49.1283 116.04 49.1778 116.237 49.1778C116.437 49.1778 116.628 49.1283 116.81 49.0265C116.991 48.9217 117.117 48.7864 117.186 48.6191L117.539 48.7122C117.473 48.8606 117.374 48.9945 117.244 49.1138C117.117 49.2302 116.963 49.3218 116.787 49.3873C116.609 49.4528 116.419 49.4863 116.22 49.4863ZM115.085 47.7286H117.366C117.35 47.5045 117.288 47.3066 117.18 47.1349C117.076 46.9647 116.939 46.8308 116.77 46.7333C116.603 46.6373 116.419 46.5878 116.22 46.5878C116.019 46.5878 115.835 46.6373 115.67 46.7333C115.504 46.8308 115.369 46.9662 115.265 47.1408C115.161 47.3124 115.1 47.5074 115.085 47.7286Z" fill="#EFEFEF" fill-opacity="0.937255"/>
<path d="M121.116 49.4688C120.908 49.4688 120.712 49.4266 120.531 49.3408C120.353 49.252 120.201 49.1341 120.074 48.9857C119.947 48.8344 119.846 48.6642 119.773 48.4736C119.704 48.2844 119.669 48.088 119.669 47.8857C119.669 47.6646 119.704 47.4594 119.773 47.2688C119.843 47.0753 119.941 46.9021 120.068 46.7508C120.196 46.5995 120.346 46.4816 120.52 46.3958C120.693 46.3114 120.887 46.2677 121.104 46.2677C121.366 46.2677 121.596 46.3361 121.793 46.4714C121.99 46.6082 122.155 46.7741 122.291 46.972V46.3201H122.649V49.4397C122.649 49.7263 122.58 49.9664 122.441 50.1614C122.305 50.3593 122.123 50.5062 121.891 50.6037C121.663 50.7041 121.412 50.755 121.139 50.755C120.787 50.755 120.502 50.691 120.282 50.563C120.065 50.4378 119.889 50.2691 119.75 50.0566L119.999 49.8587C120.122 50.0523 120.285 50.1963 120.491 50.2894C120.695 50.3855 120.91 50.4349 121.139 50.4349C121.339 50.4349 121.522 50.3971 121.689 50.3244C121.858 50.2501 121.993 50.1396 122.094 49.9926C122.194 49.8442 122.244 49.6609 122.244 49.4397V48.8286C122.129 49.0236 121.967 49.1778 121.758 49.2942C121.553 49.4106 121.339 49.4688 121.116 49.4688ZM121.226 49.1312C121.349 49.1312 121.466 49.1109 121.579 49.0672C121.69 49.0206 121.794 48.961 121.891 48.8868C121.987 48.814 122.066 48.7326 122.129 48.6423C122.189 48.5492 122.228 48.4561 122.244 48.363V47.4027C122.187 47.2513 122.101 47.1175 121.99 47.0011C121.881 46.8847 121.755 46.7945 121.614 46.7275C121.475 46.6621 121.33 46.6286 121.18 46.6286C121.006 46.6286 120.85 46.6664 120.711 46.7392C120.575 46.8134 120.462 46.9109 120.369 47.0302C120.277 47.1509 120.204 47.2863 120.155 47.4376C120.105 47.5889 120.08 47.7402 120.08 47.8915C120.08 48.0589 120.109 48.2175 120.167 48.3688C120.225 48.5172 120.306 48.6482 120.41 48.7646C120.517 48.881 120.641 48.9726 120.78 49.0381C120.919 49.1007 121.067 49.1312 121.226 49.1312Z" fill="#EFEFEF" fill-opacity="0.937255"/>
<path d="M123.556 45.0746H123.961V48.7238C123.961 48.8795 123.987 48.9828 124.042 49.0323C124.096 49.0788 124.164 49.1021 124.245 49.1021C124.314 49.1021 124.384 49.0948 124.453 49.0788C124.526 49.0599 124.588 49.0425 124.639 49.0265L124.714 49.3582C124.636 49.3902 124.543 49.4149 124.436 49.4339C124.327 49.4528 124.233 49.463 124.152 49.463C123.97 49.463 123.825 49.4106 123.718 49.3058C123.61 49.1981 123.556 49.0497 123.556 48.8635V45.0746Z" fill="#EFEFEF" fill-opacity="0.937255"/>
<path d="M126.464 49.4863C126.244 49.4863 126.039 49.4426 125.851 49.3582C125.666 49.2738 125.504 49.1574 125.365 49.009C125.229 48.8577 125.123 48.6874 125.046 48.4968C124.973 48.3033 124.936 48.0996 124.936 47.8857C124.936 47.6617 124.973 47.4536 125.046 47.263C125.123 47.0695 125.232 46.8992 125.37 46.7508C125.509 46.5995 125.671 46.4816 125.857 46.3958C126.045 46.3114 126.25 46.2677 126.47 46.2677C126.69 46.2677 126.892 46.3114 127.078 46.3958C127.266 46.4816 127.428 46.5995 127.564 46.7508C127.703 46.8992 127.808 47.0695 127.882 47.263C127.959 47.4536 127.998 47.6617 127.998 47.8857C127.998 48.0996 127.959 48.3033 127.882 48.4968C127.808 48.6874 127.704 48.8577 127.57 49.009C127.434 49.1574 127.272 49.2738 127.083 49.3582C126.894 49.4426 126.687 49.4863 126.464 49.4863ZM125.347 47.8915C125.347 48.1214 125.396 48.331 125.498 48.5201C125.598 48.7064 125.732 48.8562 125.903 48.9683C126.072 49.0774 126.259 49.1312 126.464 49.1312C126.668 49.1312 126.855 49.0759 127.026 48.9624C127.195 48.8504 127.332 48.6991 127.436 48.5085C127.541 48.315 127.593 48.1054 127.593 47.8799C127.593 47.6471 127.541 47.4361 127.436 47.2455C127.332 47.0564 127.195 46.9065 127.026 46.7974C126.855 46.6853 126.668 46.6286 126.464 46.6286C126.259 46.6286 126.072 46.6868 125.903 46.8032C125.736 46.9167 125.602 47.068 125.498 47.2572C125.396 47.4434 125.347 47.6558 125.347 47.8915Z" fill="#EFEFEF" fill-opacity="0.937255"/>
<path d="M130.186 49.4862C129.943 49.4862 129.719 49.4251 129.515 49.3C129.309 49.1763 129.15 49.0192 129.035 48.8286V49.428H128.676V45.0746H129.075V46.972C129.214 46.7624 129.379 46.5937 129.573 46.4656C129.77 46.3347 129.995 46.2677 130.25 46.2677C130.47 46.2677 130.664 46.3143 130.834 46.4074C131.008 46.4976 131.154 46.6198 131.274 46.7741C131.397 46.9254 131.49 47.0985 131.552 47.2921C131.617 47.487 131.65 47.6849 131.65 47.8857C131.65 48.104 131.613 48.3077 131.54 48.4968C131.467 48.6874 131.363 48.8577 131.228 49.009C131.092 49.1574 130.936 49.2738 130.759 49.3582C130.586 49.4426 130.395 49.4862 130.186 49.4862ZM130.094 49.1312C130.259 49.1312 130.412 49.0992 130.551 49.0323C130.693 48.9624 130.817 48.8693 130.921 48.7529C131.025 48.6336 131.104 48.4997 131.158 48.3513C131.212 48.2 131.24 48.0458 131.24 47.8857C131.24 47.6646 131.193 47.4594 131.101 47.2688C131.008 47.0753 130.878 46.9196 130.713 46.8032C130.551 46.6868 130.36 46.6286 130.14 46.6286C129.981 46.6286 129.833 46.6664 129.694 46.7392C129.558 46.809 129.44 46.9021 129.335 47.0185C129.231 47.1349 129.145 47.263 129.075 47.4026V48.3688C129.094 48.4735 129.136 48.5754 129.202 48.6714C129.267 48.7646 129.35 48.8446 129.451 48.9101C129.555 48.977 129.661 49.0308 129.77 49.073C129.881 49.1123 129.989 49.1312 130.094 49.1312Z" fill="#EFEFEF" fill-opacity="0.937255"/>
<path d="M133.662 49.4863C133.442 49.4863 133.237 49.4426 133.049 49.3582C132.859 49.2738 132.696 49.1574 132.557 49.009C132.418 48.8577 132.31 48.686 132.233 48.491C132.155 48.2975 132.117 48.0894 132.117 47.8683C132.117 47.5773 132.182 47.3124 132.314 47.0709C132.449 46.8265 132.632 46.6329 132.864 46.4889C133.095 46.3419 133.359 46.2677 133.657 46.2677C133.96 46.2677 134.227 46.3419 134.455 46.4889C134.682 46.6373 134.86 46.8308 134.988 47.0709C135.118 47.3124 135.184 47.5758 135.184 47.8624C135.184 47.8945 135.184 47.925 135.184 47.9556C135.184 47.9832 135.182 48.005 135.179 48.0196H132.54C132.558 48.2451 132.621 48.4445 132.725 48.6191C132.829 48.7908 132.964 48.9261 133.13 49.0265C133.299 49.1283 133.483 49.1778 133.68 49.1778C133.879 49.1778 134.07 49.1283 134.253 49.0265C134.434 48.9217 134.559 48.7864 134.629 48.6191L134.982 48.7122C134.915 48.8606 134.817 48.9945 134.687 49.1138C134.559 49.2302 134.406 49.3218 134.23 49.3873C134.052 49.4528 133.862 49.4863 133.662 49.4863ZM132.528 47.7286H134.808C134.792 47.5045 134.73 47.3066 134.623 47.1349C134.519 46.9647 134.381 46.8308 134.212 46.7333C134.046 46.6373 133.862 46.5878 133.662 46.5878C133.461 46.5878 133.278 46.6373 133.113 46.7333C132.946 46.8308 132.812 46.9662 132.707 47.1408C132.603 47.3124 132.543 47.5074 132.528 47.7286Z" fill="#EFEFEF" fill-opacity="0.937255"/>
</svg>
