<svg width="143" height="80" viewBox="0 0 143 80" fill="none" xmlns="http://www.w3.org/2000/svg">
<mask id="mask0_1_2860" style="mask-type:luminance" maskUnits="userSpaceOnUse" x="15" y="29" width="20" height="20">
<path d="M15.3474 29.6519H34.5151V48.928H15.3474V29.6519Z" fill="white"/>
</mask>
<g mask="url(#mask0_1_2860)">
<path d="M24.8965 48.3373C19.9165 48.3373 15.8654 44.2618 15.8654 39.255C15.8654 35.9478 17.6349 33.0464 20.271 31.459C20.3708 31.5332 20.4967 31.5827 20.6573 31.5827C20.6573 31.5827 20.8309 31.5827 19.7241 32.4528C18.6173 33.3229 18.72 34.5291 19.0658 33.7696C19.413 33.0101 19.7241 33.288 19.17 34.3676C18.6173 35.4458 19.4608 35.098 19.7472 35.7586C20.0352 36.4192 20.1393 35.6204 20.2768 36.8732C20.2768 36.8732 20.624 37.2893 21.2462 37.0812C21.8683 36.8732 21.142 37.637 20.4851 38.2642C19.8268 38.8913 20.0352 39.0979 20.381 39.482C20.7267 39.8647 20.8656 40.1775 20.5546 40.5951C20.2435 41.0127 21.0378 41.1509 21.2462 41.3954C21.4531 41.6384 21.4183 42.4401 20.9351 42.7878C20.4504 43.1356 21.1767 43.9009 21.0725 44.9791C20.9684 46.0573 20.9944 46.5098 21.4834 46.5796C21.9725 46.6495 21.4183 45.6397 21.6267 45.1886C21.8336 44.7361 22.0766 45.5015 22.5613 44.2836C22.5613 44.2836 23.4265 44.4931 23.8056 43.1705C23.8056 43.1705 24.5666 43.0657 24.7055 42.6482C24.8444 42.2306 24.6708 41.9526 25.7777 41.0476C26.8845 40.1426 25.0166 39.4471 24.014 39.4122C24.014 39.4122 23.6465 39.5635 24.2903 38.4024C24.5724 37.896 23.7376 38.0197 23.5293 37.5687C23.3224 37.1161 22.8377 36.5938 21.8683 36.6985C20.9004 36.8033 20.6226 37.1511 20.5893 36.5589C20.5546 35.9667 21.0031 35.6902 20.5184 35.6204C20.0352 35.5491 20.2768 35.5156 20.7976 35.0282C20.7976 35.0282 20.4851 34.8187 20.1741 35.1329C19.8615 35.4458 19.3074 34.9583 19.9657 34.2628C20.624 33.5659 21.6614 33.045 21.592 34.3676C21.5225 35.6902 22.0072 33.7696 22.0072 33.7696C22.0072 33.7696 22.7335 32.8355 23.6334 32.7671C24.5319 32.6972 23.9792 32.6623 23.9792 32.348C23.9792 32.0366 24.3945 32.8704 24.8965 32.6623C25.3971 32.4528 24.3598 32.3844 24.4639 32.0366C24.5666 31.6874 25.157 31.7922 25.3971 32.2447C25.6402 32.6972 25.9165 32.0017 25.2944 31.2698C24.6708 30.5394 24.775 30.9919 24.1861 31.3048C23.5987 31.6176 23.8418 31.7922 23.7376 31.2698C23.6334 30.7489 23.5987 31.3048 23.3224 31.0269C23.0446 30.7489 23.8157 30.877 24.2209 30.9221C24.6274 30.9672 24.4986 30.6791 24.4986 30.6791L24.8965 30.5045C24.8965 30.5045 25.157 30.8872 25.4666 30.8173C25.7777 30.7489 25.2597 30.2601 25.5708 30.3299C25.8818 30.3997 26.2971 30.1218 26.3318 30.5394C26.3665 30.957 26.0887 31.5143 27.2317 30.8872C27.4632 30.7606 27.6166 30.6791 27.7222 30.6296C27.8003 30.6558 27.8756 30.682 27.9522 30.7111C27.9595 30.7941 27.9855 30.9017 28.1317 30.9919C28.5802 31.2698 28.4427 31.0269 29.0301 31.3746C29.619 31.7224 29.237 32.105 29.687 32.1749C30.137 32.2447 30.5522 32.8704 30.2079 32.9053C29.8606 32.9402 29.8259 32.5241 29.3079 32.4528C28.7885 32.3844 29.5163 32.6259 29.8606 32.9402C30.2079 33.253 30.2079 33.6241 29.8606 33.7696C29.5163 33.9151 29.7709 34.7153 30.3352 34.6106C30.8995 34.5058 30.6911 33.9151 31.0022 34.0548C31.3147 34.193 31.2105 34.5407 31.7285 34.7503C32.2493 34.9583 31.659 35.2362 32.2826 35.2712C32.9062 35.3061 33.2173 35.5491 32.6631 35.7935C32.109 36.038 32.3868 36.246 31.9021 35.6538C31.4174 35.0631 31.4652 35.6291 31.4174 35.0631C31.3697 34.4971 30.5884 35.0282 30.1731 35.098C29.7564 35.1679 30.1037 35.5855 29.7217 35.6538C29.3412 35.7237 29.169 35.6204 29.2718 36.5239C29.3759 37.429 29.1343 37.637 28.7191 37.637C28.3038 37.637 29.0663 38.1245 29.2718 38.7516C29.4801 39.3773 29.5163 39.7599 30.4148 39.5169C31.3147 39.2725 31.0369 39.2725 31.1411 39.7599C31.2452 40.2474 31.6258 39.482 31.6938 39.9694C31.7632 40.4554 30.83 40.5602 31.348 40.873C31.8674 41.1859 31.4883 41.9177 31.2452 42.0909C31.0022 42.2655 31.1758 42.8897 30.6564 43.1705C30.137 43.4484 30.8995 43.9344 30.5884 44.2487C30.2773 44.563 29.4454 44.9442 29.7564 45.711C30.069 46.4749 30.069 46.0224 30.7273 45.4651C31.3827 44.9093 31.9368 43.9708 32.2493 44.0057C32.3608 44.0173 32.4143 44.1046 32.4794 44.1788C30.8691 46.68 28.0723 48.3373 24.8965 48.3373ZM24.8965 29.6519C19.63 29.6519 15.3474 33.9602 15.3474 39.255C15.3474 44.5499 19.63 48.8582 24.8965 48.8582C30.1616 48.8582 34.4456 44.5499 34.4456 39.255C34.4456 33.9602 30.1616 29.6519 24.8965 29.6519Z" fill="#602E22"/>
</g>
<path d="M24.9717 24.8852C27.6759 24.8852 30.1456 25.5065 32.3795 26.7476C34.6135 27.9902 36.3743 29.6955 37.6634 31.8635C38.9511 34.0286 39.5964 36.4192 39.5964 39.0339C39.5964 41.6762 38.9511 44.0828 37.6634 46.2508C36.3743 48.4159 34.6135 50.1328 32.3795 51.4016C30.1456 52.6675 27.6759 53.299 24.9717 53.299C22.2662 53.299 19.7979 52.6675 17.5639 51.4016C15.33 50.1328 13.5678 48.4159 12.2801 46.2508C10.9953 44.0828 10.3529 41.6762 10.3529 39.0339C10.3529 36.4192 10.9953 34.0286 12.2801 31.8635C13.5678 29.6955 15.33 27.9902 17.5639 26.7476C19.7979 25.5065 22.2662 24.8852 24.9717 24.8852ZM25.0122 29.1222C23.2254 29.1222 21.5702 29.5646 20.0467 30.4492C18.5217 31.3339 17.3122 32.5314 16.418 34.0402C15.5268 35.5462 15.0812 37.2107 15.0812 39.0339C15.0812 40.8585 15.534 42.5361 16.4412 44.0683C17.3469 45.6019 18.555 46.8183 20.0641 47.7175C21.576 48.6138 23.2254 49.0619 25.0122 49.0619C26.7976 49.0619 28.4398 48.6138 29.9373 47.7175C31.4333 46.8183 32.6226 45.6019 33.5023 44.0683C34.3849 42.5361 34.8276 40.8585 34.8276 39.0339C34.8276 37.2107 34.3849 35.5462 33.5023 34.0402C32.6226 32.5314 31.4333 31.3339 29.9373 30.4492C28.4398 29.5646 26.7976 29.1222 25.0122 29.1222Z" fill="#004657"/>
<path d="M48.8162 36.0598C49.5251 34.6324 50.4974 33.5498 51.733 32.8121C52.9671 32.0715 54.4125 31.7005 56.0677 31.7005V36.0598C53.9915 35.955 52.3088 36.4439 51.0211 37.5264C49.7363 38.609 49.0014 40.0756 48.8162 41.9264V52.9439H44.2847V31.8576H48.8162V36.0598Z" fill="#004657"/>
<path d="M64.6222 52.9439L56.5026 31.8577H61.2308L67.0645 48.4624L72.8171 31.8577H77.3486L69.31 52.9439H64.6222Z" fill="#004657"/>
<path d="M80.5041 52.9439V31.8577H84.9951V52.9439H80.5041ZM82.7496 23.0577C83.5136 23.0577 84.1444 23.3167 84.6421 23.8318C85.1427 24.3483 85.3944 25.0161 85.3944 25.8339C85.3944 26.6254 85.1427 27.2874 84.6421 27.8185C84.1444 28.3467 83.5136 28.6101 82.7496 28.6101C81.9886 28.6101 81.3578 28.3467 80.8572 27.8185C80.3595 27.2874 80.1106 26.6254 80.1106 25.8339C80.1106 25.0161 80.3595 24.3483 80.8572 23.8318C81.3578 23.3167 81.9886 23.0577 82.7496 23.0577Z" fill="#004657"/>
<path d="M108.724 52.9439H104.267V50.3656C102.77 52.2164 100.459 53.1418 97.334 53.1418C95.8597 53.1418 94.5633 52.8595 93.4449 52.292C92.3294 51.7217 91.4685 50.9418 90.8638 49.9524C90.2619 48.96 89.9609 47.8426 89.9609 46.6C89.9609 44.6721 90.6569 43.1414 92.0502 42.0079C93.442 40.8715 95.3866 40.2895 97.8838 40.2619H104.227V39.6275C104.227 38.2816 103.8 37.2383 102.948 36.4963C102.094 35.7557 100.854 35.3846 99.2265 35.3846C97.2009 35.3846 95.1363 36.099 93.034 37.5264L91.1821 34.3545C92.7866 33.4043 94.2262 32.7248 95.4994 32.3174C96.7726 31.9071 98.3425 31.7005 100.21 31.7005C102.887 31.7005 104.962 32.3553 106.432 33.6619C107.905 34.9699 108.656 36.7858 108.683 39.1095L108.724 52.9439ZM98.2773 49.5333C99.8819 49.5333 101.242 49.1579 102.357 48.4042C103.471 47.652 104.095 46.696 104.227 45.5349V43.591H98.5551C97.0577 43.591 95.9595 43.8107 95.2621 44.2486C94.5677 44.6837 94.2204 45.401 94.2204 46.4021C94.2204 47.3566 94.5807 48.1176 95.3027 48.6836C96.0232 49.251 97.0157 49.5333 98.2773 49.5333Z" fill="#004657"/>
<path d="M127.05 31.7005C129.492 31.7005 131.402 32.4207 132.78 33.8598C134.16 35.3002 134.851 37.2878 134.851 39.8254V52.9439H130.32V41.0942C130.32 39.5082 129.871 38.2583 128.977 37.346C128.086 36.4352 126.85 35.9783 125.273 35.9783C123.591 36.0059 122.218 36.5486 121.153 37.6079C120.091 38.6643 119.482 40.0378 119.324 41.7285V52.9439H114.792V31.8576H119.324V35.9026C120.743 33.1017 123.319 31.7005 127.05 31.7005Z" fill="#004657"/>
<mask id="mask1_1_2860" style="mask-type:luminance" maskUnits="userSpaceOnUse" x="70" y="19" width="9" height="8">
<path d="M70.5153 19.0476H78.6638V26.8698H70.5153V19.0476Z" fill="white"/>
</mask>
<g mask="url(#mask1_1_2860)">
<mask id="mask2_1_2860" style="mask-type:luminance" maskUnits="userSpaceOnUse" x="69" y="19" width="17" height="9">
<path d="M70.1753 19.068L85.1717 19.4521L84.9735 27.2714L69.9785 26.8888L70.1753 19.068Z" fill="white"/>
</mask>
<g mask="url(#mask2_1_2860)">
<mask id="mask3_1_2860" style="mask-type:luminance" maskUnits="userSpaceOnUse" x="55" y="18" width="31" height="36">
<path d="M56.0715 18.7072L85.2296 19.4536L84.3688 53.5245L55.2092 52.7795L56.0715 18.7072Z" fill="white"/>
</mask>
<g mask="url(#mask3_1_2860)">
<path d="M76.1391 23.5757L77.1042 23.6004C77.5382 23.612 77.9636 23.4694 78.305 23.1988C78.4512 23.0839 78.457 22.8642 78.3166 22.7405C77.9882 22.4524 77.5715 22.2894 77.1374 22.2792L76.1724 22.2545L73.979 19.1786L73.1572 19.1582L74.0542 22.2036C73.4914 22.1992 72.9271 22.2312 72.3687 22.2967L71.6713 22.3782L71.0853 21.22C71.0564 21.1632 70.9971 21.1254 70.932 21.1239L70.822 21.121C70.7699 21.1196 70.7294 21.1661 70.7366 21.2171L70.9204 22.4655L70.8017 22.48C70.6527 22.4975 70.5399 22.6212 70.5355 22.7725C70.5312 22.9224 70.6383 23.0533 70.7858 23.078L70.9045 23.097L70.6585 24.3352C70.6484 24.3861 70.686 24.4341 70.7381 24.4356L70.848 24.4385C70.9132 24.4399 70.9739 24.4065 71.0057 24.3497L71.6496 23.2235L72.3412 23.3414C72.8982 23.4345 73.4581 23.4942 74.021 23.5204L72.972 26.5163L73.7938 26.5366L76.1391 23.5757Z" fill="#F7A700"/>
</g>
</g>
</g>
<mask id="mask4_1_2860" style="mask-type:luminance" maskUnits="userSpaceOnUse" x="69" y="22" width="16" height="6">
<path d="M69.7744 22.4H84.59V27.6148H69.7744V22.4Z" fill="white"/>
</mask>
<g mask="url(#mask4_1_2860)">
<mask id="mask5_1_2860" style="mask-type:luminance" maskUnits="userSpaceOnUse" x="69" y="19" width="17" height="9">
<path d="M70.1752 19.068L85.1716 19.4521L84.9734 27.2714L69.9784 26.8888L70.1752 19.068Z" fill="white"/>
</mask>
<g mask="url(#mask5_1_2860)">
<mask id="mask6_1_2860" style="mask-type:luminance" maskUnits="userSpaceOnUse" x="55" y="18" width="31" height="36">
<path d="M56.0714 18.7072L85.2295 19.4536L84.3686 53.5245L55.2091 52.7795L56.0714 18.7072Z" fill="white"/>
</mask>
<g mask="url(#mask6_1_2860)">
<path d="M70.6555 53.0894C70.5702 53.088 70.5036 53.0181 70.5036 52.9323C70.5051 52.8464 70.5745 52.7766 70.6599 52.7781C70.8986 52.7795 71.1388 52.7752 71.3761 52.765C71.4614 52.7606 71.5338 52.829 71.5381 52.9134C71.541 53.0007 71.4745 53.072 71.3891 53.0763C71.1475 53.0865 70.9015 53.0909 70.6584 53.0894C70.657 53.0894 70.6555 53.0894 70.6555 53.0894ZM69.3143 53.0225C69.31 53.0225 69.3071 53.0225 69.3028 53.0225C69.0611 52.9992 68.8166 52.9701 68.5779 52.9352C68.4925 52.9236 68.4347 52.8435 68.4462 52.7591C68.4578 52.6733 68.5374 52.6136 68.6213 52.6267C68.8557 52.6602 69.0959 52.6878 69.3317 52.7111C69.4171 52.7184 69.4793 52.7955 69.472 52.8814C69.4648 52.9628 69.3954 53.0254 69.3143 53.0225ZM72.7173 52.9599C72.6421 52.9585 72.5769 52.9017 72.5668 52.8246C72.5567 52.7402 72.616 52.6617 72.7014 52.65C72.9358 52.6195 73.1745 52.5816 73.4089 52.538C73.4928 52.5234 73.5738 52.5787 73.5883 52.6646C73.6042 52.749 73.5478 52.8304 73.4639 52.845C73.2251 52.8886 72.9821 52.9265 72.7419 52.9585C72.7318 52.9599 72.7245 52.9599 72.7173 52.9599ZM67.2757 52.6849C67.2656 52.6849 67.2555 52.6835 67.2439 52.682C67.0081 52.6253 66.7708 52.5627 66.5364 52.4958C66.4554 52.4725 66.4076 52.3852 66.4308 52.3023C66.4539 52.2208 66.5407 52.1728 66.6218 52.1961C66.8504 52.2615 67.0833 52.3241 67.3148 52.3779C67.3973 52.3983 67.4494 52.4827 67.4291 52.5656C67.4132 52.6398 67.3481 52.6878 67.2757 52.6849ZM74.74 52.5467C74.6749 52.5438 74.6141 52.4987 74.5953 52.4318C74.5721 52.3488 74.6213 52.263 74.7038 52.2397C74.9324 52.1757 75.1624 52.1058 75.3881 52.0316C75.4692 52.004 75.556 52.0491 75.5835 52.1306C75.611 52.2121 75.5661 52.3008 75.4851 52.327C75.255 52.4041 75.0192 52.4754 74.7863 52.5409C74.7703 52.5438 74.7559 52.5467 74.74 52.5467ZM65.3037 52.0695C65.2863 52.0695 65.269 52.0651 65.2516 52.0593C65.0259 51.9705 64.7988 51.8745 64.5759 51.7755C64.4978 51.7406 64.4616 51.649 64.4978 51.5689C64.5325 51.4904 64.6237 51.4554 64.7018 51.4904C64.9203 51.5878 65.1431 51.681 65.3645 51.7683C65.444 51.7988 65.4846 51.8905 65.4527 51.9691C65.4281 52.0331 65.3674 52.0709 65.3037 52.0695ZM76.686 51.8556C76.6281 51.8541 76.5731 51.8192 76.5485 51.761C76.5138 51.6824 76.55 51.5908 76.6281 51.5558C76.8466 51.4613 77.065 51.3594 77.2777 51.2546C77.3544 51.2168 77.447 51.2488 77.4861 51.3259C77.5237 51.4031 77.4918 51.4962 77.4152 51.534C77.1967 51.6417 76.9739 51.745 76.7525 51.8425C76.7308 51.8512 76.7091 51.8556 76.686 51.8556ZM63.4329 51.1834C63.4098 51.1834 63.3852 51.1761 63.362 51.163C63.1494 51.0451 62.9381 50.9185 62.7312 50.789C62.6589 50.7439 62.6372 50.6479 62.682 50.5737C62.7269 50.5009 62.8224 50.4791 62.8962 50.5242C63.0987 50.6508 63.3056 50.7745 63.514 50.8909C63.5878 50.9331 63.6152 51.0277 63.5733 51.1033C63.5443 51.1557 63.4894 51.1848 63.4329 51.1834ZM78.5205 50.9011C78.4685 50.8996 78.4207 50.872 78.3918 50.8254C78.3469 50.7527 78.3701 50.6566 78.4439 50.6115C78.645 50.4879 78.849 50.3569 79.0457 50.223C79.1152 50.175 79.2121 50.1925 79.2613 50.2652C79.3091 50.3365 79.2903 50.4326 79.2194 50.482C79.0183 50.6173 78.8114 50.7527 78.6045 50.8778C78.5784 50.8938 78.548 50.9011 78.5205 50.9011ZM61.7025 50.047C61.6721 50.0455 61.6403 50.0353 61.6128 50.015C61.4189 49.868 61.228 49.7138 61.0413 49.5581C60.9748 49.5028 60.9661 49.4053 61.0211 49.3384C61.076 49.2729 61.173 49.2627 61.2395 49.318C61.4218 49.4722 61.6114 49.6221 61.8009 49.7662C61.8689 49.8185 61.8834 49.916 61.8313 49.9859C61.7995 50.0266 61.7517 50.0484 61.7025 50.047ZM80.2061 49.7021C80.1627 49.7007 80.1193 49.6818 80.0904 49.6439C80.0368 49.577 80.047 49.4795 80.1121 49.4242C80.2973 49.2729 80.481 49.1158 80.6561 48.9572C80.7197 48.899 80.8181 48.9048 80.876 48.9688C80.9324 49.0328 80.9266 49.1318 80.863 49.1885C80.6836 49.35 80.4969 49.5115 80.3074 49.6672C80.2785 49.6905 80.2423 49.7036 80.2061 49.7021ZM60.1443 48.6836C60.1067 48.6822 60.0676 48.6676 60.0387 48.6371C59.8665 48.4654 59.6972 48.2864 59.5337 48.106C59.4773 48.042 59.4802 47.9445 59.5438 47.8848C59.6075 47.8281 59.7059 47.831 59.7638 47.8964C59.9229 48.0725 60.0893 48.2471 60.2571 48.4173C60.3179 48.477 60.3179 48.5759 60.2571 48.6371C60.2282 48.6691 60.1862 48.6836 60.1443 48.6836ZM81.7137 48.282C81.6775 48.2806 81.6399 48.2675 81.6124 48.2398C81.5488 48.1816 81.5459 48.0827 81.6038 48.0201C81.7658 47.8455 81.9264 47.6636 82.0798 47.4818C82.1347 47.4148 82.2317 47.4076 82.2982 47.4628C82.3633 47.5181 82.3706 47.6171 82.3156 47.6826C82.1593 47.8688 81.9958 48.0536 81.8309 48.2326C81.7991 48.266 81.7571 48.2835 81.7137 48.282ZM58.7872 47.118C58.7423 47.118 58.6974 47.0962 58.6671 47.0569C58.5209 46.8619 58.3777 46.6626 58.2402 46.4618C58.1911 46.3905 58.2099 46.293 58.2808 46.245C58.3502 46.1955 58.4471 46.2144 58.4963 46.2857C58.6309 46.4822 58.7712 46.6786 58.9145 46.8677C58.9666 46.9376 58.9521 47.0351 58.8841 47.0875C58.8552 47.1093 58.8219 47.1195 58.7872 47.118ZM83.0144 46.667C82.9855 46.667 82.9551 46.6568 82.9291 46.6393C82.8582 46.5898 82.8422 46.4923 82.8914 46.4211C83.0274 46.2261 83.162 46.0238 83.2879 45.8216C83.3342 45.7503 83.4297 45.727 83.502 45.7736C83.5743 45.8201 83.5961 45.9162 83.5498 45.9889C83.421 46.1955 83.2835 46.4007 83.1446 46.6015C83.1143 46.6451 83.0636 46.6684 83.0144 46.667ZM57.6543 45.3822C57.6022 45.3807 57.5516 45.3531 57.5241 45.3021C57.4054 45.0912 57.2911 44.8729 57.1826 44.6546C57.1435 44.5775 57.1739 44.4844 57.2506 44.4451C57.3273 44.4073 57.4199 44.4378 57.459 44.515C57.5646 44.7289 57.6774 44.9427 57.7932 45.1494C57.8366 45.225 57.8091 45.3196 57.7339 45.3618C57.7093 45.3763 57.6818 45.3836 57.6543 45.3822ZM84.0822 44.8889C84.059 44.8889 84.0373 44.8831 84.0156 44.8714C83.9404 44.8322 83.91 44.7376 83.9491 44.6619C84.0576 44.4495 84.1618 44.2312 84.2601 44.0115C84.2963 43.9344 84.3875 43.8995 84.4656 43.9344C84.5437 43.9693 84.5785 44.0625 84.5437 44.141C84.4424 44.3622 84.3354 44.5863 84.2254 44.8031C84.1965 44.8584 84.1401 44.8904 84.0822 44.8889ZM56.7717 43.5066C56.7109 43.5052 56.6545 43.4673 56.6314 43.4077C56.5431 43.1807 56.4592 42.9494 56.3811 42.718C56.3536 42.6365 56.397 42.5478 56.478 42.5201C56.559 42.4925 56.6473 42.5361 56.6748 42.6176C56.75 42.8446 56.8325 43.0716 56.9193 43.2927C56.9511 43.3728 56.9106 43.463 56.831 43.495C56.8122 43.5037 56.7905 43.5066 56.7717 43.5066ZM56.1539 41.5263C56.0859 41.5249 56.0237 41.4769 56.0078 41.407C55.9514 41.1699 55.8993 40.9269 55.8544 40.6882C55.8385 40.6039 55.8935 40.5224 55.9774 40.5064C56.0613 40.4889 56.1438 40.5457 56.1597 40.63C56.2031 40.8643 56.2537 41.1015 56.3087 41.3343C56.3275 41.4172 56.2769 41.5016 56.193 41.522C56.18 41.5249 56.1669 41.5263 56.1539 41.5263ZM55.8139 39.4777C55.7372 39.4762 55.6721 39.4166 55.6649 39.3365C55.6417 39.095 55.6229 38.8476 55.6113 38.6032C55.6085 38.5173 55.6736 38.4446 55.7589 38.4402C55.8443 38.4359 55.9181 38.5028 55.9224 38.5886C55.9325 38.8287 55.9499 39.0688 55.9731 39.306C55.9803 39.3918 55.9181 39.4689 55.8327 39.4762C55.8269 39.4777 55.8211 39.4777 55.8139 39.4777ZM55.7575 37.4013C55.756 37.4013 55.756 37.4013 55.7546 37.4013C55.6692 37.397 55.6027 37.3257 55.6056 37.2384C55.6157 36.9939 55.6316 36.748 55.6533 36.5065C55.6605 36.4207 55.7372 36.3566 55.8211 36.3654C55.9065 36.3726 55.9702 36.4483 55.9615 36.5341C55.9412 36.7713 55.9253 37.0128 55.9166 37.2529C55.9123 37.3373 55.8414 37.4028 55.7575 37.4013ZM55.9817 35.3367C55.9731 35.3367 55.9658 35.3352 55.9571 35.3352C55.8732 35.3207 55.8168 35.2392 55.8327 35.1548C55.8747 34.9132 55.9239 34.6717 55.9774 34.4345C55.9977 34.3502 56.0801 34.2978 56.164 34.3167C56.248 34.3371 56.3 34.42 56.2798 34.5044C56.2277 34.7372 56.1785 34.9744 56.1365 35.2086C56.1235 35.2857 56.0555 35.3396 55.9817 35.3367ZM56.4852 33.3229C56.4693 33.3229 56.4549 33.32 56.4404 33.3156C56.3594 33.288 56.316 33.2007 56.342 33.1192C56.4172 32.8864 56.4997 32.6536 56.5851 32.4251C56.6155 32.3451 56.7052 32.3044 56.7847 32.3364C56.8658 32.3669 56.9048 32.4572 56.8744 32.5372C56.7905 32.7598 56.7095 32.9882 56.6357 33.2152C56.614 33.2822 56.5518 33.3244 56.4852 33.3229ZM57.2607 31.3979C57.2405 31.3964 57.2173 31.3921 57.1971 31.3819C57.1204 31.3441 57.0886 31.2509 57.1262 31.1738C57.2318 30.9541 57.3461 30.7344 57.4633 30.5205C57.5038 30.4434 57.5979 30.4172 57.6731 30.4594C57.7498 30.5002 57.7758 30.5947 57.7353 30.6704C57.6196 30.8814 57.5096 31.0953 57.404 31.3106C57.3765 31.3673 57.3201 31.3994 57.2607 31.3979ZM58.2952 29.598C58.2663 29.5966 58.2374 29.5893 58.2113 29.5718C58.1404 29.5224 58.1216 29.4263 58.1708 29.355C58.3054 29.1528 58.4486 28.9505 58.5933 28.7556C58.6454 28.6857 58.7423 28.6712 58.8103 28.7236C58.8797 28.7745 58.8928 28.8734 58.8421 28.9418C58.6989 29.1339 58.56 29.3318 58.4269 29.5296C58.3965 29.5748 58.3459 29.5995 58.2952 29.598ZM59.5641 27.9582C59.5294 27.9582 59.4932 27.9451 59.4643 27.9189C59.4006 27.8607 59.3963 27.7632 59.4527 27.6992C59.6147 27.5159 59.784 27.3369 59.9547 27.1623C60.0141 27.1012 60.1125 27.1012 60.1732 27.1609C60.234 27.2205 60.234 27.3209 60.1747 27.3806C60.0083 27.5508 59.8433 27.7269 59.6842 27.9058C59.6524 27.9422 59.609 27.9597 59.5641 27.9582ZM61.0457 26.5105C61.0023 26.509 60.9603 26.4901 60.9314 26.4552C60.8764 26.3897 60.8836 26.2908 60.9487 26.2355C61.1339 26.0783 61.3249 25.9226 61.5173 25.7742C61.5853 25.7204 61.6837 25.7349 61.7344 25.8019C61.7864 25.8717 61.7734 25.9692 61.7069 26.0216C61.5188 26.1671 61.3307 26.3184 61.1498 26.4726C61.1195 26.4988 61.0818 26.5105 61.0457 26.5105ZM62.7081 25.2781C62.6589 25.2766 62.6097 25.2519 62.5808 25.2068C62.5345 25.134 62.5562 25.0365 62.6285 24.9914C62.834 24.8605 63.0437 24.7339 63.2535 24.6131C63.3288 24.5709 63.4228 24.5971 63.4648 24.6713C63.5067 24.747 63.4807 24.8416 63.4069 24.8837C63.2014 25.0016 62.9946 25.1267 62.7949 25.2548C62.7674 25.2722 62.7385 25.2795 62.7081 25.2781ZM64.5224 24.2886C64.466 24.2872 64.411 24.2537 64.3864 24.1984C64.3502 24.1199 64.385 24.0267 64.4631 23.9918C64.683 23.89 64.9087 23.7939 65.1344 23.7023C65.214 23.6703 65.3037 23.7095 65.3355 23.7896C65.3674 23.8696 65.3283 23.9613 65.2487 23.9933C65.0288 24.0806 64.8089 24.1766 64.5933 24.2755C64.5687 24.2843 64.5456 24.2901 64.5224 24.2886ZM66.4554 23.5611C66.3888 23.5597 66.3295 23.516 66.3107 23.4491C66.2861 23.3676 66.3324 23.2803 66.4149 23.2556C66.6464 23.1872 66.8836 23.1217 67.1195 23.0635C67.202 23.0417 67.2859 23.0941 67.3076 23.177C67.3278 23.2614 67.2772 23.3458 67.1933 23.3662C66.9632 23.4229 66.7303 23.4869 66.5031 23.5539C66.4872 23.5582 66.4699 23.5611 66.4554 23.5611ZM68.4708 23.1072C68.397 23.1057 68.3319 23.0504 68.3204 22.9748C68.3088 22.8889 68.3667 22.8103 68.4506 22.7972C68.6907 22.7609 68.9338 22.7289 69.1754 22.7041C69.2622 22.6954 69.3375 22.758 69.3462 22.8438C69.3548 22.9296 69.2926 23.0068 69.2073 23.014C68.97 23.0388 68.7313 23.0693 68.4969 23.1043C68.4882 23.1072 68.4795 23.1072 68.4708 23.1072ZM70.5282 22.9384C70.4458 22.9355 70.3778 22.8685 70.3763 22.7841C70.3763 22.6983 70.4443 22.6285 70.5297 22.627C70.7264 22.6241 70.9276 22.6255 71.1243 22.6299C71.2111 22.6328 71.2777 22.7041 71.2762 22.79C71.2733 22.8758 71.2025 22.9442 71.1171 22.9427C70.9232 22.9369 70.7264 22.9355 70.534 22.9384C70.5326 22.9384 70.5297 22.9384 70.5282 22.9384Z" fill="#F7A700"/>
</g>
</g>
</g>
<path d="M24.8965 22.6808H26.5603V22.9602H24.8965M26.8381 22.6808H28.502V22.9602H26.8381M28.7798 22.6808H30.4437V22.9602H28.7798M30.72 22.6808H32.3853V22.9602H30.72M32.6617 22.6808H34.3255V22.9602H32.6617M34.6033 22.6808H36.2672V22.9602H34.6033M36.545 22.6808H38.2088V22.9602H36.545M38.4866 22.6808H40.1505V22.9602H38.4866M40.4268 22.6808H42.0921V22.9602H40.4268M42.3685 22.6808H44.0323V22.9602H42.3685M44.3101 22.6808H45.974V22.9602H44.3101M46.2518 22.6808H47.9156V22.9602H46.2518M48.1934 22.6808H49.8573V22.9602H48.1934M50.1336 22.6808H51.799V22.9602H50.1336M52.0753 22.6808H53.7392V22.9602H52.0753M54.017 22.6808H55.6808V22.9602H54.017M55.9586 22.6808H57.6225V22.9602H55.9586M57.9003 22.6808H59.5641V22.9602H57.9003M59.8405 22.6808H61.5058V22.9602H59.8405M61.7821 22.6808H63.446V22.9602H61.7821M63.7238 22.6808H65.3876V22.9602H63.7238M65.6654 22.6808H67.3293V22.9602H65.6654M67.6071 22.6808H69.2709V22.9602H67.6071M69.5473 22.6808H69.9018V22.9602H69.5473" fill="#F7A700"/>
<mask id="mask7_1_2860" style="mask-type:luminance" maskUnits="userSpaceOnUse" x="79" y="22" width="7" height="10">
<path d="M79.7808 22.8205H85.8922V31.7122H79.7808V22.8205Z" fill="white"/>
</mask>
<g mask="url(#mask7_1_2860)">
<path d="M82.8365 22.8205C81.151 22.8205 79.7837 24.194 79.7837 25.8906C79.7837 26.1729 79.8228 26.445 79.8937 26.7054C79.9544 26.9309 80.0412 27.1463 80.1497 27.3485C80.1758 27.3966 80.2033 27.4446 80.2322 27.4926L82.5341 31.5026C82.5385 31.5114 82.5428 31.5201 82.5486 31.5288C82.6123 31.6205 82.7179 31.6802 82.8365 31.6802C82.9566 31.6802 83.0622 31.619 83.1259 31.5274L83.136 31.5099L85.4408 27.4926L85.5247 27.3485C85.6332 27.1463 85.7186 26.9309 85.7808 26.7054C85.8517 26.445 85.8908 26.1729 85.8908 25.8906C85.8908 24.194 84.5235 22.8205 82.8365 22.8205ZM82.8365 27.1783C82.1305 27.1783 81.5561 26.6007 81.5561 25.8906C81.5561 25.1791 82.129 24.6029 82.8365 24.6029C83.544 24.6029 84.117 25.1791 84.117 25.8906C84.117 26.6007 83.544 27.1783 82.8365 27.1783Z" fill="#F7A700"/>
</g>
<path d="M8.89307 33.1934C9.12745 32.6594 9.37486 32.1472 9.63529 31.6554L9.88126 31.7864C9.62372 32.2724 9.3792 32.7787 9.14771 33.3054L8.89307 33.1934ZM9.76696 31.411C10.0419 30.9076 10.3312 30.4259 10.6336 29.9662L10.8651 30.1218C10.5671 30.5744 10.282 31.0487 10.01 31.5449L9.76696 31.411ZM10.7913 29.7319C11.1111 29.2634 11.4453 28.8167 11.7954 28.3933L12.0096 28.5722C11.6652 28.9884 11.3353 29.4278 11.0199 29.8905L10.7913 29.7319ZM11.9792 28.1765C12.3496 27.7443 12.7359 27.3384 13.1395 26.9572L13.3291 27.1609C12.9341 27.5348 12.5536 27.9349 12.1904 28.3584L11.9792 28.1765ZM13.3435 26.768C13.7631 26.3868 14.2001 26.0318 14.6544 25.7029L14.8164 25.9299C14.3708 26.2515 13.9411 26.6007 13.5302 26.9761L13.3435 26.768ZM14.883 25.54C15.3431 25.2213 15.8205 24.9289 16.3153 24.6626L16.4456 24.9085C15.9609 25.1689 15.4921 25.457 15.0407 25.7699L14.883 25.54ZM16.5642 24.5316C17.0576 24.277 17.5683 24.05 18.0964 23.8478L18.1948 24.1097C17.6768 24.3076 17.1748 24.5302 16.6901 24.7804L16.5642 24.5316ZM18.3583 23.7503C18.8806 23.5626 19.4174 23.3982 19.9715 23.2599L20.038 23.5306C19.494 23.6673 18.9659 23.8274 18.4523 24.0136L18.3583 23.7503ZM20.2392 23.1945C20.7759 23.0693 21.3286 22.966 21.8972 22.886L21.9348 23.1625C21.3764 23.241 20.8309 23.3429 20.3014 23.4666L20.2392 23.1945ZM22.1808 22.8482C22.7176 22.7812 23.2674 22.7332 23.8302 22.707L23.8432 22.9849C23.2876 23.0126 22.7451 23.0591 22.2155 23.1261L22.1808 22.8482ZM24.1138 22.6954C24.3713 22.6852 24.6332 22.6808 24.8965 22.6794L24.898 22.9587C24.6361 22.9602 24.3786 22.9646 24.1225 22.9733L24.1138 22.6954Z" fill="#F7A700"/>
<path d="M13.1786 51.3477C12.7749 50.9345 12.393 50.514 12.0356 50.0891L12.2468 49.9087C12.6013 50.3292 12.9775 50.7439 13.3768 51.1528L13.1786 51.3477ZM11.8576 49.8752C11.4959 49.4329 11.1574 48.9848 10.8448 48.5293L11.0734 48.3707C11.3816 48.8189 11.7144 49.2612 12.0732 49.6977L11.8576 49.8752ZM10.6871 48.2965C10.3717 47.8237 10.0824 47.3449 9.82048 46.859L10.065 46.7251C10.3225 47.2038 10.6061 47.6752 10.9172 48.1408L10.6871 48.2965ZM9.68737 46.6072C9.42694 46.1038 9.19544 45.5946 8.99144 45.078L9.24898 44.9747C9.45009 45.4825 9.67869 45.9845 9.93478 46.4792L9.68737 46.6072ZM8.88872 44.8132C8.6905 44.2821 8.52267 43.7452 8.38232 43.201L8.65143 43.1312C8.78888 43.6652 8.95382 44.1934 9.14915 44.7143L8.88872 44.8132ZM8.31577 42.9275C8.18555 42.3804 8.08717 41.826 8.01627 41.2658L8.29262 41.2309C8.36062 41.7824 8.45901 42.3266 8.58633 42.8635L8.31577 42.9275ZM7.98444 40.985C7.92512 40.4307 7.89329 39.8705 7.89185 39.303L8.16964 39.3016C8.17109 39.8603 8.20147 40.4103 8.25934 40.9545L7.98444 40.985ZM7.89329 39.0207C7.90053 38.4664 7.93525 37.9062 7.99602 37.3387L8.27236 37.3693C8.2116 37.9266 8.17832 38.4795 8.17109 39.0237L7.89329 39.0207ZM8.0293 37.0608C8.0973 36.5094 8.18989 35.9521 8.30998 35.389L8.58054 35.4472C8.46335 36.003 8.3722 36.5516 8.30419 37.0943L8.0293 37.0608ZM8.36786 35.1198C8.48939 34.58 8.63407 34.0344 8.80191 33.4829L9.06812 33.5644C8.90174 34.1086 8.7585 34.6484 8.63986 35.1809L8.36786 35.1198Z" fill="#F7A700"/>
<mask id="mask8_1_2860" style="mask-type:luminance" maskUnits="userSpaceOnUse" x="11" y="50" width="22" height="8">
<path d="M32.7355 50.3365H11.9937V57.7862H32.7355V50.3365Z" fill="white"/>
</mask>
<g mask="url(#mask8_1_2860)">
<mask id="mask9_1_2860" style="mask-type:luminance" maskUnits="userSpaceOnUse" x="12" y="50" width="21" height="8">
<path d="M12.2006 50.3961H32.3796V57.5476H12.2006V50.3961Z" fill="white"/>
</mask>
<g mask="url(#mask9_1_2860)">
<mask id="mask10_1_2860" style="mask-type:luminance" maskUnits="userSpaceOnUse" x="11" y="50" width="22" height="9">
<rect x="11.9937" y="50.3365" width="20.7418" height="7.82222"/>
</mask>
<g mask="url(#mask10_1_2860)">
<mask id="mask11_1_2860" style="mask-type:luminance" maskUnits="userSpaceOnUse" x="11" y="50" width="22" height="8">
<path d="M32.7355 50.3365H11.9937V57.7862H32.7355V50.3365Z" fill="white"/>
</mask>
<g mask="url(#mask11_1_2860)">
<mask id="mask12_1_2860" style="mask-type:luminance" maskUnits="userSpaceOnUse" x="13" y="51" width="19" height="5">
<path d="M13.1049 51.0815H31.6244V55.9238H13.1049V51.0815Z" fill="white"/>
</mask>
<g mask="url(#mask12_1_2860)">
<mask id="mask13_1_2860" style="mask-type:luminance" maskUnits="userSpaceOnUse" x="12" y="50" width="21" height="8">
<path d="M31.7068 57.4647L12.2194 54.6187L12.8169 50.4791L32.3043 53.3252L31.7068 57.4647Z" fill="white"/>
</mask>
<g mask="url(#mask13_1_2860)">
<path d="M31.4955 54.1167C30.9631 54.3364 30.4336 54.5328 29.9084 54.7045L29.8216 54.4397C30.341 54.2695 30.8647 54.0759 31.3899 53.8577L31.4955 54.1167ZM29.645 54.7889C29.101 54.9606 28.5614 55.1061 28.026 55.2254L27.9653 54.9533C28.4948 54.8355 29.0258 54.6914 29.5626 54.5226L29.645 54.7889ZM27.7526 55.2851C27.1984 55.4 26.6486 55.4873 26.1032 55.5484L26.0728 55.2705C26.6096 55.2109 27.1507 55.125 27.6962 55.0115L27.7526 55.2851ZM25.8225 55.5775C25.2626 55.6299 24.7055 55.6546 24.1529 55.6503L24.1557 55.3709C24.6983 55.3753 25.2452 55.352 25.7965 55.2996L25.8225 55.5775ZM23.8722 55.6459C23.3108 55.6299 22.7523 55.5863 22.1996 55.5121L22.2358 55.2356C22.7798 55.3084 23.3267 55.352 23.8794 55.3666L23.8722 55.6459ZM21.9233 55.4713C21.3706 55.3869 20.8237 55.2734 20.2811 55.1294L20.352 54.8588C20.8845 55.0013 21.4227 55.1134 21.9638 55.1963L21.9233 55.4713ZM20.0106 55.0537C19.4781 54.9024 18.95 54.722 18.4277 54.5139L18.529 54.2549C19.0441 54.4601 19.5635 54.6376 20.0858 54.786L20.0106 55.0537ZM18.1673 54.4077C17.6595 54.1938 17.156 53.9537 16.6554 53.6875L16.7856 53.4416C17.2789 53.7035 17.7738 53.9406 18.2744 54.1502L18.1673 54.4077ZM16.4108 53.5536C15.929 53.2859 15.4501 52.9934 14.9756 52.6748L15.1289 52.4434C15.5977 52.7577 16.0694 53.0458 16.5454 53.3091L16.4108 53.5536ZM14.7484 52.5205C14.2941 52.2077 13.8427 51.8716 13.3956 51.5107L13.5693 51.2925C14.0105 51.649 14.4562 51.9807 14.9047 52.2906L14.7484 52.5205Z" fill="#F7A700"/>
</g>
</g>
</g>
</g>
<mask id="mask14_1_2860" style="mask-type:luminance" maskUnits="userSpaceOnUse" x="12" y="50" width="20" height="8">
<mask id="mask15_1_2860" style="mask-type:luminance" maskUnits="userSpaceOnUse" x="11" y="50" width="22" height="8">
<path d="M32.7355 50.3365H11.9937V57.7862H32.7355V50.3365Z" fill="white"/>
</mask>
<g mask="url(#mask15_1_2860)">
<mask id="mask16_1_2860" style="mask-type:luminance" maskUnits="userSpaceOnUse" x="12" y="50" width="21" height="8">
<path d="M12.2006 50.3961H32.3796V57.5476H12.2006V50.3961Z" fill="white"/>
</mask>
<g mask="url(#mask16_1_2860)">
<mask id="mask17_1_2860" style="mask-type:luminance" maskUnits="userSpaceOnUse" x="11" y="50" width="22" height="8">
<path d="M32.7355 50.3365H11.9937V57.7862H32.7355V50.3365Z" fill="white"/>
</mask>
<g mask="url(#mask17_1_2860)">
<mask id="mask18_1_2860" style="mask-type:luminance" maskUnits="userSpaceOnUse" x="12" y="50" width="20" height="8">
<path d="M12.364 50.709H31.9947V57.0413H12.364V50.709Z" fill="white"/>
</mask>
<g mask="url(#mask18_1_2860)">
<mask id="mask19_1_2860" style="mask-type:luminance" maskUnits="userSpaceOnUse" x="12" y="50" width="21" height="8">
<path d="M31.7068 57.4646L12.2194 54.6186L12.8169 50.4791L32.3043 53.3251L31.7068 57.4646Z" fill="white"/>
</mask>
<g mask="url(#mask19_1_2860)">
<mask id="mask20_1_2860" style="mask-type:luminance" maskUnits="userSpaceOnUse" x="12" y="50" width="20" height="8">
<path d="M31.4709 57.1489L12.5029 54.3785L13.018 50.8137L31.986 53.5841L31.4709 57.1489Z" fill="white"/>
</mask>
<g mask="url(#mask20_1_2860)">
<mask id="mask21_1_2860" style="mask-type:luminance" maskUnits="userSpaceOnUse" x="11" y="50" width="83" height="28">
<rect x="11.9937" y="50.3365" width="81.4858" height="26.819"/>
</mask>
<g mask="url(#mask21_1_2860)">
<rect x="12.4678" y="50.7537" width="19.5566" height="6.43657"/>
</g>
</g>
</g>
</g>
</g>
</g>
</g>
</mask>
<g mask="url(#mask14_1_2860)">
<mask id="mask22_1_2860" style="mask-type:luminance" maskUnits="userSpaceOnUse" x="11" y="50" width="22" height="8">
<path d="M32.7355 50.3365H11.9937V57.7862H32.7355V50.3365Z" fill="white"/>
</mask>
<g mask="url(#mask22_1_2860)">
<mask id="mask23_1_2860" style="mask-type:luminance" maskUnits="userSpaceOnUse" x="13" y="51" width="19" height="5">
<path d="M13.1049 51.0815H31.6244V55.9238H13.1049V51.0815Z" fill="white"/>
</mask>
<g mask="url(#mask23_1_2860)">
<mask id="mask24_1_2860" style="mask-type:luminance" maskUnits="userSpaceOnUse" x="12" y="50" width="21" height="8">
<path d="M31.7068 57.4647L12.2194 54.6187L12.8169 50.4791L32.3043 53.3252L31.7068 57.4647Z" fill="white"/>
</mask>
<g mask="url(#mask24_1_2860)">
<path d="M31.4955 54.1167C30.9631 54.3364 30.4336 54.5328 29.9084 54.7045L29.8216 54.4397C30.341 54.2695 30.8647 54.0759 31.3899 53.8577L31.4955 54.1167ZM29.645 54.7889C29.101 54.9606 28.5614 55.1061 28.026 55.2254L27.9653 54.9533C28.4948 54.8355 29.0258 54.6914 29.5626 54.5226L29.645 54.7889ZM27.7526 55.2851C27.1984 55.4 26.6486 55.4873 26.1032 55.5484L26.0728 55.2705C26.6096 55.2109 27.1507 55.125 27.6962 55.0115L27.7526 55.2851ZM25.8225 55.5775C25.2626 55.6299 24.7055 55.6546 24.1529 55.6503L24.1557 55.3709C24.6983 55.3753 25.2452 55.352 25.7965 55.2996L25.8225 55.5775ZM23.8722 55.6459C23.3108 55.6299 22.7523 55.5863 22.1996 55.5121L22.2358 55.2356C22.7798 55.3084 23.3267 55.352 23.8794 55.3666L23.8722 55.6459ZM21.9233 55.4713C21.3706 55.3869 20.8237 55.2734 20.2811 55.1294L20.352 54.8588C20.8845 55.0013 21.4227 55.1134 21.9638 55.1963L21.9233 55.4713ZM20.0106 55.0537C19.4781 54.9024 18.95 54.722 18.4277 54.5139L18.529 54.2549C19.0441 54.4601 19.5635 54.6376 20.0858 54.786L20.0106 55.0537ZM18.1673 54.4077C17.6595 54.1938 17.156 53.9537 16.6554 53.6875L16.7856 53.4416C17.2789 53.7035 17.7738 53.9406 18.2744 54.1502L18.1673 54.4077ZM16.4108 53.5536C15.929 53.2859 15.4501 52.9934 14.9756 52.6748L15.1289 52.4434C15.5977 52.7577 16.0694 53.0458 16.5454 53.3091L16.4108 53.5536ZM14.7484 52.5205C14.2941 52.2077 13.8427 51.8716 13.3956 51.5107L13.5693 51.2925C14.0105 51.649 14.4562 51.9807 14.9047 52.2906L14.7484 52.5205Z" fill="#F7A700"/>
</g>
</g>
</g>
</g>
</g>
</g>
<path d="M31.4564 53.9813C31.5447 54.1952 31.4449 54.4397 31.2336 54.5299C31.0209 54.6186 30.7779 54.5182 30.6882 54.3043C30.5999 54.0919 30.6997 53.846 30.9124 53.7573C31.1237 53.6685 31.3682 53.7689 31.4564 53.9813Z" stroke="#F7A700" stroke-width="0.99837" stroke-linecap="round" stroke-linejoin="round"/>
<path d="M44.1501 59.5048C43.8521 59.5048 43.583 59.4466 43.3399 59.3301C43.0997 59.2108 42.8943 59.0479 42.7206 58.8413C42.547 58.6361 42.411 58.4048 42.3155 58.1487C42.2229 57.8926 42.1766 57.6292 42.1766 57.3571C42.1766 57.0778 42.2244 56.81 42.3213 56.554C42.4212 56.2979 42.56 56.0694 42.738 55.8672C42.9189 55.6664 43.1287 55.5063 43.3688 55.3899C43.6119 55.2735 43.8738 55.2153 44.1559 55.2153C44.4525 55.2153 44.7202 55.2779 44.9603 55.4016C45.2034 55.5223 45.4089 55.6868 45.5796 55.8963C45.7532 56.1029 45.8863 56.3328 45.9789 56.5889C46.0744 56.8421 46.1236 57.101 46.1236 57.3688C46.1236 57.6481 46.073 57.9159 45.9731 58.1719C45.8762 58.428 45.7387 58.6579 45.5622 58.8587C45.3843 59.061 45.1745 59.2196 44.9314 59.336C44.6912 59.4495 44.4308 59.5048 44.1501 59.5048ZM42.5933 57.3571C42.5933 57.5899 42.6295 57.814 42.7033 58.0264C42.78 58.236 42.8856 58.4251 43.0216 58.591C43.1605 58.754 43.3254 58.8864 43.5193 58.9868C43.7117 59.0843 43.9215 59.1323 44.1501 59.1323C44.3888 59.1323 44.6044 59.0828 44.7983 58.9809C44.9907 58.8762 45.1542 58.7409 45.2902 58.5735C45.4248 58.4033 45.5275 58.2127 45.597 58.0032C45.6693 57.7936 45.7069 57.5783 45.7069 57.3571C45.7069 57.1287 45.6679 56.909 45.5912 56.6995C45.5174 56.4899 45.4118 56.3022 45.2729 56.1349C45.134 55.969 44.9676 55.8366 44.7752 55.7391C44.5856 55.6431 44.3773 55.5936 44.1501 55.5936C43.9143 55.5936 43.7002 55.6446 43.5077 55.745C43.3138 55.8468 43.1504 55.9821 43.0158 56.1524C42.8798 56.3197 42.7756 56.5074 42.7033 56.7169C42.6295 56.9264 42.5933 57.1403 42.5933 57.3571Z" fill="#004657"/>
<path d="M48.3387 56.7286C48.0682 56.7373 47.8309 56.813 47.6269 56.9556C47.4258 57.0996 47.2826 57.296 47.1986 57.5434V59.4757H46.7993V56.3677H47.1755V57.1127C47.2826 56.8959 47.4243 56.7213 47.598 56.5889C47.7745 56.4536 47.9626 56.3765 48.1593 56.3561C48.2013 56.3532 48.236 56.3503 48.2635 56.3503C48.2939 56.3503 48.3185 56.3532 48.3387 56.3561V56.7286Z" fill="#004657"/>
<path d="M50.3894 59.5338C50.1463 59.5338 49.9221 59.4727 49.7181 59.3476C49.5126 59.2239 49.3535 59.0668 49.2377 58.8762V59.4756H48.8789V55.1222H49.2782V57.0195C49.4171 56.81 49.5821 56.6412 49.7759 56.5132C49.9727 56.3822 50.1984 56.3153 50.4531 56.3153C50.673 56.3153 50.8669 56.3619 51.0376 56.455C51.2112 56.5452 51.3573 56.6674 51.4774 56.8217C51.6004 56.973 51.693 57.1461 51.7552 57.3397C51.8203 57.5346 51.8536 57.7325 51.8536 57.9333C51.8536 58.1516 51.816 58.3553 51.7436 58.5444C51.6699 58.735 51.5657 58.9053 51.4311 59.0566C51.2951 59.205 51.1389 59.3214 50.9624 59.4058C50.7887 59.4902 50.5977 59.5338 50.3894 59.5338ZM50.2968 59.1788C50.4617 59.1788 50.6151 59.1468 50.754 59.0799C50.8958 59.01 51.0202 58.9169 51.1244 58.8005C51.2286 58.6812 51.3067 58.5473 51.3617 58.3989C51.4152 58.2476 51.4427 58.0934 51.4427 57.9333C51.4427 57.7121 51.3964 57.507 51.3038 57.3164C51.2112 57.1229 51.081 56.9672 50.9161 56.8508C50.754 56.7344 50.563 56.6762 50.3431 56.6762C50.184 56.6762 50.0364 56.714 49.8975 56.7867C49.7615 56.8566 49.6428 56.9497 49.5387 57.0661C49.4345 57.1825 49.3477 57.3106 49.2782 57.4502V58.4164C49.297 58.5211 49.339 58.623 49.4056 58.719C49.4707 58.8121 49.5531 58.8922 49.6544 58.9576C49.7586 59.0246 49.8642 59.0784 49.9727 59.1206C50.0841 59.1599 50.1926 59.1788 50.2968 59.1788Z" fill="#004657"/>
<path d="M52.5344 59.4756V56.3677H52.9338V59.4756H52.5344ZM52.5344 55.7217V55.1222H52.9338V55.7217H52.5344Z" fill="#004657"/>
<path d="M55.3076 59.3244C55.2758 59.336 55.2266 59.3593 55.1571 59.3942C55.0906 59.4262 55.0096 59.4524 54.9141 59.4757C54.8215 59.499 54.7187 59.5106 54.6073 59.5106C54.4916 59.5106 54.3831 59.4888 54.2832 59.4466C54.182 59.4044 54.1009 59.3389 54.0402 59.2487C53.9823 59.1599 53.9534 59.0494 53.9534 58.917V56.6937H53.5309V56.3677H53.9534V55.3201H54.3585V56.3677H55.0703V56.6937H54.3585V58.8006C54.3657 58.914 54.4062 58.9984 54.48 59.0566C54.5523 59.1119 54.6363 59.1381 54.7289 59.1381C54.8403 59.1381 54.9401 59.1192 55.0298 59.0799C55.1224 59.0421 55.1774 59.0144 55.1976 58.9984L55.3076 59.3244Z" fill="#004657"/>
<path d="M55.8109 59.4756V56.3677H56.2102V59.4756H55.8109ZM55.8109 55.7217V55.1222H56.2102V55.7217H55.8109Z" fill="#004657"/>
<path d="M59.6953 59.4756H59.2959V57.7412C59.2959 57.3775 59.241 57.1112 59.1339 56.9439C59.0254 56.7736 58.8576 56.6878 58.6304 56.6878C58.4712 56.6878 58.315 56.7271 58.1616 56.8042C58.0068 56.8828 57.8723 56.9875 57.7565 57.1185C57.6408 57.2509 57.5554 57.4022 57.5019 57.5725V59.4756H57.1025V56.3677H57.4671V57.0719C57.5511 56.9206 57.6596 56.7896 57.7912 56.6762C57.9258 56.5641 58.0777 56.4768 58.2484 56.4142C58.4177 56.3488 58.5957 56.3153 58.7809 56.3153C58.9501 56.3153 59.0934 56.3488 59.2091 56.4142C59.3278 56.4768 59.4233 56.5656 59.4927 56.682C59.5651 56.7984 59.6171 56.941 59.649 57.1068C59.6794 57.2698 59.6953 57.4546 59.6953 57.6598V59.4756Z" fill="#004657"/>
<path d="M61.7952 59.5164C61.5869 59.5164 61.3916 59.4742 61.2107 59.3883C61.0327 59.2996 60.8808 59.1817 60.7535 59.0333C60.6262 58.882 60.5249 58.7117 60.4526 58.5211C60.3831 58.332 60.3484 58.1355 60.3484 57.9333C60.3484 57.7121 60.3831 57.507 60.4526 57.3164C60.522 57.1228 60.6204 56.9497 60.7477 56.7984C60.875 56.6471 61.0255 56.5292 61.1991 56.4433C61.3727 56.359 61.5666 56.3153 61.7837 56.3153C62.0455 56.3153 62.2756 56.3837 62.4723 56.519C62.6691 56.6558 62.8341 56.8217 62.9701 57.0195V56.3677H63.3289V59.4873C63.3289 59.7739 63.2594 60.014 63.1205 60.209C62.9845 60.4068 62.8022 60.5538 62.5707 60.6513C62.3421 60.7517 62.0918 60.8026 61.8184 60.8026C61.4668 60.8026 61.1818 60.7386 60.9618 60.6105C60.7448 60.4854 60.5683 60.3166 60.4294 60.1042L60.6783 59.9063C60.8012 60.0998 60.9647 60.2439 61.1702 60.337C61.3742 60.433 61.5898 60.4825 61.8184 60.4825C62.018 60.4825 62.2018 60.4447 62.3682 60.3719C62.5375 60.2977 62.672 60.1871 62.7733 60.0402C62.8731 59.8918 62.9238 59.7084 62.9238 59.4873V58.8762C62.808 59.0711 62.646 59.2254 62.4376 59.3418C62.2322 59.4582 62.018 59.5164 61.7952 59.5164ZM61.9052 59.1788C62.0282 59.1788 62.1454 59.1584 62.2582 59.1148C62.3696 59.0682 62.4738 59.0086 62.5707 58.9344C62.6662 58.8616 62.7458 58.7801 62.808 58.6899C62.8688 58.5968 62.9078 58.5037 62.9238 58.4105V57.4502C62.8659 57.2989 62.7805 57.165 62.6691 57.0486C62.5606 56.9322 62.4347 56.842 62.2929 56.7751C62.154 56.7096 62.0094 56.6762 61.8589 56.6762C61.6853 56.6762 61.529 56.714 61.3901 56.7867C61.2541 56.8609 61.1413 56.9584 61.0487 57.0777C60.9561 57.1985 60.8837 57.3338 60.8345 57.4851C60.7839 57.6365 60.7593 57.7878 60.7593 57.9391C60.7593 58.1064 60.7882 58.265 60.8461 58.4164C60.904 58.5648 60.985 58.6957 61.0892 58.8121C61.1962 58.9285 61.3207 59.0202 61.4596 59.0857C61.5985 59.1482 61.746 59.1788 61.9052 59.1788Z" fill="#004657"/>
<path d="M69.4523 56.3677H69.8458L68.5205 59.4757H68.1675L67.5251 57.9333L66.8827 59.4757H66.5354L65.2043 56.3677H65.5979L66.7264 59.0566L67.2936 57.6598L66.7727 56.3794H67.1315L67.5251 57.3863L67.9186 56.3794H68.2774L67.7624 57.6598L68.3295 59.0566L69.4523 56.3677Z" fill="#004657"/>
<path d="M70.38 59.4756V56.3677H70.7793V59.4756H70.38ZM70.38 55.7217V55.1222H70.7793V55.7217H70.38Z" fill="#004657"/>
<path d="M73.1532 59.3244C73.1214 59.336 73.0722 59.3593 73.0027 59.3942C72.9362 59.4262 72.8551 59.4524 72.7596 59.4757C72.667 59.499 72.5643 59.5106 72.4529 59.5106C72.3372 59.5106 72.2287 59.4888 72.1288 59.4466C72.0275 59.4044 71.9465 59.3389 71.8858 59.2487C71.8279 59.1599 71.7989 59.0494 71.7989 58.917V56.6937H71.3765V56.3677H71.7989V55.3201H72.2041V56.3677H72.9159V56.6937H72.2041V58.8006C72.2113 58.914 72.2518 58.9984 72.3256 59.0566C72.3979 59.1119 72.4818 59.1381 72.5744 59.1381C72.6859 59.1381 72.7857 59.1192 72.8754 59.0799C72.968 59.0421 73.023 59.0144 73.0432 58.9984L73.1532 59.3244Z" fill="#004657"/>
<path d="M76.2491 59.4756H75.8498V57.7412C75.8498 57.392 75.7876 57.1301 75.6646 56.9555C75.5402 56.778 75.3651 56.6878 75.1379 56.6878C74.9875 56.6878 74.837 56.7271 74.6865 56.8042C74.5389 56.8828 74.4102 56.9875 74.2988 57.1185C74.1859 57.2509 74.1049 57.4022 74.0557 57.5725V59.4756H73.6564V55.1222H74.0557V57.0719C74.1787 56.8435 74.3509 56.6616 74.5708 56.5248C74.7907 56.3852 75.0236 56.3153 75.271 56.3153C75.4476 56.3153 75.598 56.3488 75.7225 56.4143C75.8498 56.4768 75.9511 56.5699 76.0292 56.6936C76.1059 56.8144 76.1623 56.9541 76.197 57.1127C76.2317 57.2727 76.2491 57.4546 76.2491 57.6598V59.4756Z" fill="#004657"/>
<path d="M78.6409 60.4302C78.6944 60.4331 78.7465 60.436 78.7971 60.436C78.8463 60.4389 78.8854 60.4374 78.9129 60.4302C78.9592 60.4214 79.0026 60.3923 79.046 60.3429C79.088 60.2963 79.1386 60.2046 79.1965 60.0693C79.2572 59.9369 79.3426 59.739 79.4511 59.4757L78.1027 56.3677H78.5309L79.6652 59.0566L80.707 56.3677H81.1121L79.509 60.3778C79.4815 60.4505 79.4395 60.5204 79.3817 60.5873C79.3267 60.6528 79.2601 60.7037 79.1791 60.7386C79.0981 60.7765 78.9997 60.7983 78.884 60.8027C78.8449 60.8056 78.8058 60.8056 78.7682 60.8027C78.7335 60.8027 78.6901 60.7983 78.6409 60.791V60.4302Z" fill="#004657"/>
<path d="M82.8738 59.5338C82.6539 59.5338 82.4484 59.4902 82.2603 59.4058C82.0752 59.3214 81.9131 59.205 81.7742 59.0566C81.6382 58.9053 81.5326 58.735 81.4559 58.5444C81.3821 58.3509 81.3459 58.1472 81.3459 57.9333C81.3459 57.7092 81.3821 57.5012 81.4559 57.3105C81.5326 57.117 81.6411 56.9468 81.78 56.7984C81.9189 56.6471 82.0809 56.5292 82.2661 56.4433C82.4542 56.359 82.6597 56.3153 82.8796 56.3153C83.0995 56.3153 83.3021 56.359 83.4873 56.4433C83.6753 56.5292 83.8374 56.6471 83.9734 56.7984C84.1123 56.9468 84.2179 57.117 84.2917 57.3105C84.3684 57.5012 84.4074 57.7092 84.4074 57.9333C84.4074 58.1472 84.3684 58.3509 84.2917 58.5444C84.2179 58.735 84.1137 58.9053 83.9792 59.0566C83.8432 59.205 83.6811 59.3214 83.493 59.4058C83.3035 59.4902 83.0966 59.5338 82.8738 59.5338ZM81.7568 57.9391C81.7568 58.169 81.806 58.3785 81.9073 58.5677C82.0072 58.7539 82.1417 58.9038 82.3124 59.0158C82.4817 59.125 82.6684 59.1788 82.8738 59.1788C83.0778 59.1788 83.2644 59.1235 83.4352 59.01C83.6045 58.898 83.7419 58.7467 83.8461 58.556C83.9502 58.3625 84.0023 58.153 84.0023 57.9275C84.0023 57.6947 83.9502 57.4837 83.8461 57.2931C83.7419 57.1039 83.6045 56.9541 83.4352 56.8449C83.2644 56.7329 83.0778 56.6762 82.8738 56.6762C82.6684 56.6762 82.4817 56.7344 82.3124 56.8508C82.146 56.9642 82.0115 57.1156 81.9073 57.3047C81.806 57.491 81.7568 57.7034 81.7568 57.9391Z" fill="#004657"/>
<path d="M85.0564 58.1953V56.3677H85.4557V58.1254C85.4557 58.479 85.515 58.7423 85.6351 58.9169C85.7581 59.0915 85.9375 59.1788 86.1734 59.1788C86.3311 59.1788 86.483 59.1439 86.6306 59.0741C86.781 59.0042 86.9112 58.9053 87.0241 58.7773C87.1398 58.6463 87.2281 58.495 87.2903 58.3233V56.3677H87.6896V58.9868C87.6896 59.0421 87.7012 59.0828 87.7244 59.109C87.7504 59.1367 87.788 59.1527 87.8343 59.1556V59.4757C87.788 59.4786 87.749 59.4815 87.7186 59.4815C87.6911 59.4844 87.6665 59.4873 87.6433 59.4873C87.5652 59.4786 87.4987 59.4495 87.4408 59.3942C87.3829 59.336 87.3511 59.2691 87.3482 59.1905L87.3366 58.7714C87.2006 59.013 87.0183 59.2007 86.7868 59.336C86.5553 59.4684 86.3065 59.5339 86.0402 59.5339C85.7162 59.5339 85.4702 59.4218 85.3053 59.1963C85.1389 58.9722 85.0564 58.6376 85.0564 58.1953Z" fill="#004657"/>
<path d="M89.8667 58.5793C89.8667 58.3858 89.9202 58.2185 90.0287 58.0788C90.1402 57.9391 90.295 57.8314 90.4917 57.7529C90.6885 57.6758 90.9142 57.6365 91.1689 57.6365C91.3193 57.6365 91.4756 57.6481 91.6376 57.6714C91.7997 57.6947 91.9444 57.7296 92.0717 57.7762V57.5142C92.0717 57.2553 91.9935 57.0472 91.8402 56.8915C91.6854 56.7373 91.4712 56.6587 91.1978 56.6587C91.0314 56.6587 90.8679 56.6907 90.7059 56.7518C90.5467 56.81 90.3818 56.9002 90.2082 57.0195L90.0577 56.7344C90.2573 56.5947 90.4541 56.4899 90.648 56.4201C90.8404 56.3502 91.0372 56.3153 91.2383 56.3153C91.6203 56.3153 91.9212 56.4259 92.1411 56.6471C92.361 56.8653 92.471 57.165 92.471 57.5492V58.9867C92.471 59.042 92.4826 59.0828 92.5057 59.109C92.5318 59.1366 92.5708 59.1526 92.6215 59.1555V59.4756C92.5781 59.4785 92.5405 59.4829 92.5057 59.4873C92.4739 59.4902 92.4507 59.4902 92.4363 59.4873C92.3393 59.4829 92.2641 59.4523 92.2106 59.3941C92.1599 59.333 92.1324 59.269 92.1296 59.2021L92.1238 58.9751C91.9849 59.1541 91.8026 59.2923 91.5798 59.3883C91.3598 59.4844 91.1356 59.5338 90.9084 59.5338C90.7117 59.5338 90.5322 59.4902 90.3702 59.4058C90.211 59.3214 90.0881 59.2064 89.9998 59.0624C89.9101 58.9154 89.8667 58.7539 89.8667 58.5793ZM91.9328 58.818C91.9747 58.7641 92.008 58.7117 92.0312 58.6608C92.0572 58.607 92.0717 58.5604 92.0717 58.5211V58.0672C91.9357 58.0177 91.7953 57.9784 91.6492 57.9508C91.506 57.9246 91.3613 57.91 91.2152 57.91C90.9287 57.91 90.6957 57.9682 90.5149 58.0846C90.3369 58.1981 90.2487 58.3523 90.2487 58.5502C90.2487 58.6666 90.2776 58.7758 90.3355 58.8762C90.3962 58.978 90.4831 59.0609 90.5959 59.1264C90.7117 59.1933 90.8462 59.2254 91.001 59.2254C91.1978 59.2254 91.3786 59.189 91.545 59.1148C91.7143 59.0377 91.8431 58.9387 91.9328 58.818Z" fill="#004657"/>
<path d="M94.6814 59.5338C94.4571 59.5338 94.2502 59.4902 94.0621 59.4058C93.8769 59.3214 93.712 59.2021 93.5702 59.0508C93.4313 58.8994 93.3228 58.7277 93.2461 58.5328C93.168 58.3392 93.1304 58.1341 93.1304 57.9158C93.1304 57.6219 93.1955 57.3542 93.3271 57.1127C93.4574 56.8682 93.6397 56.6747 93.8712 56.5307C94.1026 56.3881 94.3703 56.3153 94.6756 56.3153C94.965 56.3153 95.2196 56.3837 95.4395 56.519C95.6623 56.6514 95.8273 56.8304 95.9315 57.0545L95.5437 57.1825C95.454 57.0239 95.331 56.9002 95.1733 56.81C95.0185 56.7213 94.8463 56.6762 94.6582 56.6762C94.4528 56.6762 94.2661 56.7314 94.0969 56.8391C93.9261 56.9439 93.7916 57.0894 93.6917 57.2756C93.5905 57.4619 93.5413 57.6758 93.5413 57.9158C93.5413 58.1486 93.5905 58.3611 93.6917 58.5502C93.7959 58.7408 93.9319 58.8936 94.1026 59.01C94.2719 59.1235 94.4586 59.1788 94.664 59.1788C94.7986 59.1788 94.9273 59.1555 95.0518 59.109C95.1748 59.0595 95.2833 58.9926 95.3759 58.9111C95.4714 58.8296 95.535 58.7423 95.5668 58.6492L95.9604 58.7656C95.9054 58.914 95.8157 59.0449 95.6884 59.1613C95.5611 59.2777 95.4106 59.3694 95.237 59.4349C95.0633 59.5004 94.8782 59.5338 94.6814 59.5338Z" fill="#004657"/>
<path d="M98.1367 56.7286C97.8662 56.7373 97.6289 56.813 97.4249 56.9556C97.2238 57.0996 97.0805 57.296 96.9966 57.5434V59.4757H96.5973V56.3677H96.9735V57.1127C97.0805 56.8959 97.2223 56.7213 97.3959 56.5889C97.5725 56.4536 97.7605 56.3765 97.9573 56.3561C97.9993 56.3532 98.034 56.3503 98.0615 56.3503C98.0919 56.3503 98.1165 56.3532 98.1367 56.3561V56.7286Z" fill="#004657"/>
<path d="M99.8958 59.5338C99.6759 59.5338 99.4704 59.4902 99.2823 59.4058C99.0971 59.3214 98.9351 59.205 98.7962 59.0566C98.6602 58.9053 98.5546 58.735 98.4779 58.5444C98.4041 58.3509 98.3679 58.1472 98.3679 57.9333C98.3679 57.7092 98.4041 57.5012 98.4779 57.3105C98.5546 57.117 98.6631 56.9468 98.802 56.7984C98.9409 56.6471 99.1029 56.5292 99.2881 56.4433C99.4762 56.359 99.6816 56.3153 99.9016 56.3153C100.121 56.3153 100.324 56.359 100.509 56.4433C100.697 56.5292 100.859 56.6471 100.995 56.7984C101.134 56.9468 101.24 57.117 101.314 57.3105C101.39 57.5012 101.429 57.7092 101.429 57.9333C101.429 58.1472 101.39 58.3509 101.314 58.5444C101.24 58.735 101.136 58.9053 101.001 59.0566C100.865 59.205 100.703 59.3214 100.515 59.4058C100.325 59.4902 100.119 59.5338 99.8958 59.5338ZM98.7788 57.9391C98.7788 58.169 98.828 58.3785 98.9293 58.5677C99.0291 58.7539 99.1637 58.9038 99.3344 59.0158C99.5037 59.125 99.6903 59.1788 99.8958 59.1788C100.1 59.1788 100.286 59.1235 100.457 59.01C100.626 58.898 100.764 58.7467 100.868 58.556C100.972 58.3625 101.024 58.153 101.024 57.9275C101.024 57.6947 100.972 57.4837 100.868 57.2931C100.764 57.1039 100.626 56.9541 100.457 56.8449C100.286 56.7329 100.1 56.6762 99.8958 56.6762C99.6903 56.6762 99.5037 56.7344 99.3344 56.8508C99.168 56.9642 99.0335 57.1156 98.9293 57.3047C98.828 57.491 98.7788 57.7034 98.7788 57.9391Z" fill="#004657"/>
<path d="M103.12 59.5338C102.866 59.5338 102.63 59.4931 102.414 59.4116C102.197 59.3272 102.01 59.1992 101.853 59.0275L102.015 58.7423C102.188 58.9053 102.364 59.0246 102.541 59.0973C102.718 59.1715 102.906 59.2079 103.103 59.2079C103.342 59.2079 103.537 59.1599 103.687 59.0624C103.838 58.9664 103.913 58.8267 103.913 58.6433C103.913 58.5197 103.875 58.4251 103.803 58.3582C103.729 58.2927 103.625 58.2403 103.491 58.201C103.355 58.1588 103.191 58.1123 102.999 58.0613C102.786 58.0031 102.607 57.942 102.46 57.8751C102.317 57.8096 102.209 57.7267 102.136 57.6248C102.063 57.5244 102.026 57.392 102.026 57.2291C102.026 57.0283 102.076 56.8609 102.177 56.7285C102.281 56.5932 102.42 56.4899 102.594 56.4201C102.77 56.3502 102.967 56.3153 103.184 56.3153C103.423 56.3153 103.632 56.3546 103.815 56.4317C103.996 56.5059 104.145 56.6107 104.26 56.746L104.064 57.0195C103.951 56.8915 103.818 56.7984 103.664 56.7402C103.514 56.6791 103.346 56.6471 103.161 56.6471C103.033 56.6471 102.912 56.6645 102.796 56.6994C102.683 56.7314 102.591 56.7853 102.518 56.8624C102.445 56.941 102.408 57.0472 102.408 57.1825C102.408 57.2916 102.434 57.3775 102.489 57.4386C102.547 57.5012 102.63 57.5535 102.738 57.5957C102.85 57.6394 102.987 57.683 103.149 57.7296C103.381 57.7922 103.583 57.8562 103.757 57.9217C103.933 57.9886 104.069 58.073 104.162 58.1777C104.257 58.2796 104.307 58.4251 104.307 58.6142C104.307 58.9023 104.197 59.1264 103.977 59.2894C103.76 59.4523 103.475 59.5338 103.12 59.5338Z" fill="#004657"/>
<path d="M105.982 59.5338C105.727 59.5338 105.491 59.4931 105.276 59.4116C105.059 59.3272 104.872 59.1992 104.714 59.0275L104.876 58.7423C105.05 58.9053 105.225 59.0246 105.403 59.0973C105.58 59.1715 105.768 59.2079 105.964 59.2079C106.203 59.2079 106.398 59.1599 106.549 59.0624C106.699 58.9664 106.775 58.8267 106.775 58.6433C106.775 58.5197 106.737 58.4251 106.665 58.3582C106.591 58.2927 106.487 58.2403 106.352 58.201C106.216 58.1588 106.053 58.1123 105.86 58.0613C105.648 58.0031 105.468 57.942 105.322 57.8751C105.179 57.8096 105.07 57.7267 104.998 57.6248C104.924 57.5244 104.888 57.392 104.888 57.2291C104.888 57.0283 104.937 56.8609 105.038 56.7285C105.143 56.5932 105.282 56.4899 105.455 56.4201C105.632 56.3502 105.828 56.3153 106.045 56.3153C106.284 56.3153 106.494 56.3546 106.676 56.4317C106.857 56.5059 107.006 56.6107 107.122 56.746L106.925 57.0195C106.812 56.8915 106.679 56.7984 106.526 56.7402C106.375 56.6791 106.207 56.6471 106.022 56.6471C105.895 56.6471 105.773 56.6645 105.658 56.6994C105.545 56.7314 105.452 56.7853 105.38 56.8624C105.306 56.941 105.27 57.0472 105.27 57.1825C105.27 57.2916 105.296 57.3775 105.351 57.4386C105.409 57.5012 105.491 57.5535 105.6 57.5957C105.711 57.6394 105.849 57.683 106.011 57.7296C106.242 57.7922 106.445 57.8562 106.618 57.9217C106.795 57.9886 106.931 58.073 107.023 58.1777C107.119 58.2796 107.168 58.4251 107.168 58.6142C107.168 58.9023 107.058 59.1264 106.838 59.2894C106.621 59.4523 106.336 59.5338 105.982 59.5338Z" fill="#004657"/>
<path d="M110.823 59.3244C110.791 59.336 110.742 59.3593 110.673 59.3942C110.606 59.4262 110.525 59.4524 110.43 59.4757C110.337 59.499 110.234 59.5106 110.123 59.5106C110.007 59.5106 109.899 59.4888 109.799 59.4466C109.697 59.4044 109.616 59.3389 109.556 59.2487C109.498 59.1599 109.469 59.0494 109.469 58.917V56.6937H109.046V56.3677H109.469V55.3201H109.874V56.3677H110.586V56.6937H109.874V58.8006C109.881 58.914 109.922 58.9984 109.996 59.0566C110.068 59.1119 110.152 59.1381 110.244 59.1381C110.356 59.1381 110.456 59.1192 110.545 59.0799C110.638 59.0421 110.693 59.0144 110.713 58.9984L110.823 59.3244Z" fill="#004657"/>
<path d="M113.919 59.4756H113.52V57.7412C113.52 57.392 113.458 57.1301 113.335 56.9555C113.21 56.778 113.035 56.6878 112.808 56.6878C112.658 56.6878 112.507 56.7271 112.357 56.8042C112.209 56.8828 112.08 56.9875 111.969 57.1185C111.856 57.2509 111.775 57.4022 111.726 57.5725V59.4756H111.326V55.1222H111.726V57.0719C111.849 56.8435 112.021 56.6616 112.241 56.5248C112.461 56.3852 112.694 56.3153 112.941 56.3153C113.118 56.3153 113.268 56.3488 113.392 56.4143C113.52 56.4768 113.621 56.5699 113.699 56.6936C113.776 56.8144 113.832 56.9541 113.867 57.1127C113.902 57.2727 113.919 57.4546 113.919 57.6598V59.4756Z" fill="#004657"/>
<path d="M116.112 59.5338C115.892 59.5338 115.686 59.4902 115.498 59.4058C115.309 59.3214 115.145 59.205 115.006 59.0566C114.867 58.9053 114.759 58.7336 114.682 58.5386C114.604 58.3451 114.566 58.137 114.566 57.9158C114.566 57.6248 114.632 57.36 114.763 57.1185C114.898 56.874 115.081 56.6805 115.313 56.5365C115.544 56.3895 115.808 56.3153 116.106 56.3153C116.41 56.3153 116.676 56.3895 116.904 56.5365C117.132 56.6849 117.31 56.8784 117.437 57.1185C117.567 57.36 117.634 57.6234 117.634 57.91C117.634 57.942 117.634 57.9726 117.634 58.0031C117.634 58.0308 117.631 58.0526 117.628 58.0672H114.989C115.008 58.2927 115.07 58.492 115.174 58.6666C115.278 58.8383 115.413 58.9736 115.579 59.074C115.748 59.1759 115.932 59.2254 116.129 59.2254C116.329 59.2254 116.52 59.1759 116.702 59.074C116.883 58.9693 117.009 58.834 117.078 58.6666L117.431 58.7598C117.365 58.9082 117.266 59.042 117.136 59.1613C117.009 59.2777 116.855 59.3694 116.679 59.4349C116.501 59.5004 116.311 59.5338 116.112 59.5338ZM114.977 57.7762H117.258C117.242 57.5521 117.179 57.3542 117.072 57.1825C116.968 57.0123 116.831 56.8784 116.661 56.7809C116.495 56.6849 116.311 56.6354 116.112 56.6354C115.911 56.6354 115.727 56.6849 115.562 56.7809C115.395 56.8784 115.261 57.0137 115.157 57.1883C115.053 57.36 114.992 57.555 114.977 57.7762Z" fill="#004657"/>
<path d="M121.008 59.5164C120.799 59.5164 120.604 59.4742 120.423 59.3883C120.245 59.2996 120.093 59.1817 119.966 59.0333C119.839 58.882 119.737 58.7117 119.665 58.5211C119.596 58.332 119.561 58.1355 119.561 57.9333C119.561 57.7121 119.596 57.507 119.665 57.3164C119.735 57.1228 119.833 56.9497 119.96 56.7984C120.088 56.6471 120.238 56.5292 120.412 56.4433C120.585 56.359 120.779 56.3153 120.996 56.3153C121.258 56.3153 121.488 56.3837 121.685 56.519C121.882 56.6558 122.047 56.8217 122.183 57.0195V56.3677H122.541V59.4873C122.541 59.7739 122.472 60.014 122.333 60.209C122.197 60.4068 122.015 60.5538 121.783 60.6513C121.555 60.7517 121.304 60.8026 121.031 60.8026C120.679 60.8026 120.394 60.7386 120.174 60.6105C119.957 60.4854 119.781 60.3166 119.642 60.1042L119.891 59.9063C120.014 60.0998 120.177 60.2439 120.383 60.337C120.587 60.433 120.802 60.4825 121.031 60.4825C121.231 60.4825 121.414 60.4447 121.581 60.3719C121.75 60.2977 121.885 60.1871 121.986 60.0402C122.086 59.8918 122.136 59.7084 122.136 59.4873V58.8762C122.021 59.0711 121.858 59.2254 121.65 59.3418C121.445 59.4582 121.231 59.5164 121.008 59.5164ZM121.118 59.1788C121.241 59.1788 121.358 59.1584 121.471 59.1148C121.582 59.0682 121.686 59.0086 121.783 58.9344C121.879 58.8616 121.958 58.7801 122.021 58.6899C122.081 58.5968 122.12 58.5037 122.136 58.4105V57.4502C122.078 57.2989 121.993 57.165 121.882 57.0486C121.773 56.9322 121.647 56.842 121.505 56.7751C121.367 56.7096 121.222 56.6762 121.071 56.6762C120.898 56.6762 120.742 56.714 120.603 56.7867C120.467 56.8609 120.354 56.9584 120.261 57.0777C120.169 57.1985 120.096 57.3338 120.047 57.4851C119.996 57.6365 119.972 57.7878 119.972 57.9391C119.972 58.1064 120.001 58.265 120.059 58.4164C120.116 58.5648 120.198 58.6957 120.302 58.8121C120.409 58.9285 120.533 59.0202 120.672 59.0857C120.811 59.1482 120.959 59.1788 121.118 59.1788Z" fill="#004657"/>
<path d="M123.448 55.1222H123.853V58.7714C123.853 58.9271 123.879 59.0304 123.934 59.0799C123.988 59.1264 124.056 59.1497 124.137 59.1497C124.206 59.1497 124.276 59.1424 124.345 59.1264C124.418 59.1075 124.48 59.09 124.53 59.074L124.606 59.4058C124.527 59.4378 124.435 59.4625 124.328 59.4815C124.219 59.5004 124.125 59.5106 124.044 59.5106C123.862 59.5106 123.717 59.4582 123.61 59.3534C123.502 59.2457 123.448 59.0973 123.448 58.9111V55.1222Z" fill="#004657"/>
<path d="M126.356 59.5338C126.136 59.5338 125.931 59.4902 125.743 59.4058C125.557 59.3214 125.395 59.205 125.257 59.0566C125.121 58.9053 125.015 58.735 124.938 58.5444C124.864 58.3509 124.828 58.1472 124.828 57.9333C124.828 57.7092 124.864 57.5012 124.938 57.3105C125.015 57.117 125.123 56.9468 125.262 56.7984C125.401 56.6471 125.563 56.5292 125.748 56.4433C125.937 56.359 126.142 56.3153 126.362 56.3153C126.582 56.3153 126.784 56.359 126.97 56.4433C127.158 56.5292 127.32 56.6471 127.456 56.7984C127.595 56.9468 127.7 57.117 127.774 57.3105C127.851 57.5012 127.89 57.7092 127.89 57.9333C127.89 58.1472 127.851 58.3509 127.774 58.5444C127.7 58.735 127.596 58.9053 127.461 59.0566C127.325 59.205 127.163 59.3214 126.975 59.4058C126.786 59.4902 126.579 59.5338 126.356 59.5338ZM125.239 57.9391C125.239 58.169 125.288 58.3785 125.39 58.5677C125.489 58.7539 125.624 58.9038 125.795 59.0158C125.964 59.125 126.151 59.1788 126.356 59.1788C126.56 59.1788 126.747 59.1235 126.917 59.01C127.087 58.898 127.224 58.7467 127.328 58.556C127.433 58.3625 127.485 58.153 127.485 57.9275C127.485 57.6947 127.433 57.4837 127.328 57.2931C127.224 57.1039 127.087 56.9541 126.917 56.8449C126.747 56.7329 126.56 56.6762 126.356 56.6762C126.151 56.6762 125.964 56.7344 125.795 56.8508C125.628 56.9642 125.494 57.1156 125.39 57.3047C125.288 57.491 125.239 57.7034 125.239 57.9391Z" fill="#004657"/>
<path d="M130.078 59.5338C129.835 59.5338 129.611 59.4727 129.407 59.3476C129.201 59.2239 129.042 59.0668 128.926 58.8762V59.4756H128.568V55.1222H128.967V57.0195C129.106 56.81 129.271 56.6412 129.465 56.5132C129.661 56.3822 129.887 56.3153 130.142 56.3153C130.362 56.3153 130.556 56.3619 130.726 56.455C130.9 56.5452 131.046 56.6674 131.166 56.8217C131.289 56.973 131.382 57.1461 131.444 57.3397C131.509 57.5346 131.542 57.7325 131.542 57.9333C131.542 58.1516 131.505 58.3553 131.432 58.5444C131.359 58.735 131.254 58.9053 131.12 59.0566C130.984 59.205 130.828 59.3214 130.651 59.4058C130.477 59.4902 130.286 59.5338 130.078 59.5338ZM129.986 59.1788C130.15 59.1788 130.304 59.1468 130.443 59.0799C130.585 59.01 130.709 58.9169 130.813 58.8005C130.917 58.6812 130.995 58.5473 131.05 58.3989C131.104 58.2476 131.131 58.0934 131.131 57.9333C131.131 57.7121 131.085 57.507 130.993 57.3164C130.9 57.1229 130.77 56.9672 130.605 56.8508C130.443 56.7344 130.252 56.6762 130.032 56.6762C129.873 56.6762 129.725 56.714 129.586 56.7867C129.45 56.8566 129.332 56.9497 129.227 57.0661C129.123 57.1825 129.036 57.3106 128.967 57.4502V58.4164C128.986 58.5211 129.028 58.623 129.094 58.719C129.159 58.8121 129.242 58.8922 129.343 58.9576C129.447 59.0246 129.553 59.0784 129.661 59.1206C129.773 59.1599 129.881 59.1788 129.986 59.1788Z" fill="#004657"/>
<path d="M133.554 59.5338C133.334 59.5338 133.129 59.4902 132.941 59.4058C132.751 59.3214 132.588 59.205 132.449 59.0566C132.31 58.9053 132.201 58.7336 132.125 58.5386C132.047 58.3451 132.009 58.137 132.009 57.9158C132.009 57.6248 132.074 57.36 132.206 57.1185C132.34 56.874 132.524 56.6805 132.756 56.5365C132.987 56.3895 133.25 56.3153 133.548 56.3153C133.852 56.3153 134.119 56.3895 134.347 56.5365C134.574 56.6849 134.752 56.8784 134.88 57.1185C135.01 57.36 135.076 57.6234 135.076 57.91C135.076 57.942 135.076 57.9726 135.076 58.0031C135.076 58.0308 135.073 58.0526 135.071 58.0672H132.432C132.45 58.2927 132.513 58.492 132.617 58.6666C132.721 58.8383 132.855 58.9736 133.022 59.074C133.191 59.1759 133.375 59.2254 133.572 59.2254C133.771 59.2254 133.962 59.1759 134.145 59.074C134.325 58.9693 134.451 58.834 134.521 58.6666L134.874 58.7598C134.807 58.9082 134.709 59.042 134.579 59.1613C134.451 59.2777 134.298 59.3694 134.121 59.4349C133.943 59.5004 133.754 59.5338 133.554 59.5338ZM132.42 57.7762H134.7C134.684 57.5521 134.622 57.3542 134.515 57.1825C134.411 57.0123 134.273 56.8784 134.104 56.7809C133.938 56.6849 133.754 56.6354 133.554 56.6354C133.353 56.6354 133.169 56.6849 133.004 56.7809C132.838 56.8784 132.704 57.0137 132.599 57.1883C132.495 57.36 132.434 57.555 132.42 57.7762Z" fill="#004657"/>
</svg>
