<svg width="393" height="332" viewBox="0 0 393 332" fill="none" xmlns="http://www.w3.org/2000/svg">
<g clip-path="url(#clip0_222_3288)">
<path d="M387.709 113.596C388.171 115.398 388.603 117.21 389.006 119.03H251.798V113.596H387.709Z" fill="#E6E6E6"/>
<path d="M383.336 99.2697C381.127 93.0308 378.551 86.9278 375.622 80.9929C374.721 79.163 373.785 77.3515 372.814 75.5582C372.655 75.2505 372.485 74.9427 372.314 74.635V115.079H384.171V101.677L383.336 99.2697Z" fill="#E6E6E6"/>
<path d="M375.622 80.9929H372.314V75.5582H372.814C373.787 77.3496 374.723 79.1612 375.622 80.9929Z" fill="#CCCCCC"/>
<path d="M383.336 99.2698H372.314V104.704H384.171V101.677L383.336 99.2698Z" fill="#CCCCCC"/>
<path d="M365.894 68.149H354.04V115.08H365.894V68.149Z" fill="#E6E6E6"/>
<path d="M365.894 75.5592H354.04V80.9933H365.894V75.5592Z" fill="#CCCCCC"/>
<path d="M365.894 99.2716H354.04V104.706H365.894V99.2716Z" fill="#CCCCCC"/>
<path d="M311.834 67.876H269.308C268.653 67.877 268.025 68.1378 267.561 68.6013C267.098 69.0649 266.837 69.6933 266.836 70.3488V112.881C266.837 113.123 266.872 113.364 266.94 113.596C267.095 114.104 267.408 114.549 267.834 114.866C268.261 115.182 268.777 115.353 269.308 115.354H311.834C312.365 115.353 312.882 115.182 313.308 114.866C313.734 114.549 314.048 114.104 314.202 113.596C314.27 113.364 314.305 113.123 314.306 112.881V70.3488C314.305 69.6933 314.044 69.0649 313.581 68.6013C313.117 68.1378 312.489 67.877 311.834 67.876Z" fill="#E6E6E6"/>
<path d="M308.812 70.8983H272.33C271.675 70.8993 271.047 71.1602 270.583 71.6237C270.12 72.0872 269.859 72.7156 269.858 73.3711V109.859C269.859 110.514 270.12 111.143 270.583 111.606C271.047 112.07 271.675 112.331 272.33 112.332H308.812C309.467 112.331 310.096 112.07 310.559 111.606C311.023 111.143 311.283 110.514 311.284 109.859V73.3711C311.283 72.7156 311.023 72.0872 310.559 71.6237C310.096 71.1602 309.467 70.8993 308.812 70.8983Z" fill="white"/>
<path d="M302.45 77.2617H278.693C278.037 77.2627 277.409 77.5236 276.945 77.9871C276.482 78.4506 276.221 79.079 276.22 79.7345V103.496C276.221 104.151 276.482 104.779 276.945 105.243C277.409 105.707 278.037 105.967 278.693 105.968H302.45C303.104 105.965 303.731 105.703 304.194 105.24C304.657 104.777 304.919 104.15 304.922 103.496V79.7345C304.921 79.079 304.66 78.4506 304.197 77.9871C303.734 77.5236 303.105 77.2627 302.45 77.2617Z" fill="#CCCCCC"/>
<path d="M300.985 99.3045L295.967 90.6117C295.871 90.4446 295.732 90.3059 295.565 90.2094C295.398 90.113 295.208 90.0622 295.016 90.0622C294.823 90.0622 294.633 90.113 294.466 90.2094C294.299 90.3059 294.16 90.4446 294.064 90.6117L290.4 96.9592L285.594 88.6355C285.498 88.4685 285.359 88.3298 285.192 88.2333C285.025 88.1368 284.836 88.0861 284.643 88.0861C284.45 88.0861 284.261 88.1369 284.094 88.2333C283.926 88.3298 283.788 88.4685 283.691 88.6356L278.673 97.3284L272.704 107.67H284.217L283.076 109.646H306.955L300.985 99.3045Z" fill="white"/>
<path d="M299.214 85.9334C301.123 85.9334 302.671 84.3852 302.671 82.4754C302.671 80.5656 301.123 79.0173 299.214 79.0173C297.304 79.0173 295.756 80.5656 295.756 82.4754C295.756 84.3852 297.304 85.9334 299.214 85.9334Z" fill="white"/>
<path d="M392.956 151.996C392.918 149.863 392.833 147.742 392.703 145.632C392.649 144.621 392.583 143.615 392.5 142.61H369.304C368.648 142.611 368.02 142.872 367.556 143.335C367.093 143.799 366.832 144.427 366.831 145.083V187.615C366.83 187.81 366.854 188.004 366.902 188.192C367.032 188.732 367.34 189.212 367.775 189.555C368.21 189.899 368.749 190.087 369.304 190.088H390.687C390.797 189.461 390.901 188.824 390.995 188.192C391.055 187.818 391.116 187.439 391.171 187.066C391.302 186.17 391.429 185.274 391.544 184.378C391.709 183.159 391.857 181.933 391.989 180.702C392.473 176.29 392.784 171.829 392.923 167.322V167.316C392.973 165.618 392.998 163.913 393 162.2V155.606C393 154.397 392.989 153.194 392.956 151.996Z" fill="#E6E6E6"/>
<path d="M392.956 151.996C392.918 149.863 392.833 147.742 392.703 145.632H372.325C371.67 145.633 371.042 145.894 370.578 146.358C370.115 146.821 369.854 147.449 369.853 148.105V184.593C369.854 185.248 370.115 185.877 370.578 186.34C371.042 186.804 371.67 187.065 372.325 187.066H391.171C391.302 186.17 391.429 185.274 391.544 184.378C391.709 183.159 391.857 181.933 391.989 180.702C392.473 176.29 392.784 171.829 392.923 167.322V167.316C392.973 165.618 392.998 163.913 393 162.2V155.606C393 154.397 392.989 153.194 392.956 151.996Z" fill="white"/>
<path d="M392.956 151.996H378.688C378.032 151.997 377.404 152.257 376.94 152.721C376.477 153.184 376.216 153.813 376.215 154.468V178.229C376.216 178.885 376.477 179.513 376.94 179.977C377.404 180.44 378.032 180.701 378.688 180.702H391.989C392.473 176.29 392.784 171.829 392.923 167.322V167.316C392.973 165.618 392.998 163.913 393 162.2V155.606C393 154.397 392.989 153.194 392.956 151.996Z" fill="#CCCCCC"/>
<path d="M392.923 167.322C392.786 171.828 392.475 176.288 391.989 180.702C391.857 181.933 391.709 183.159 391.544 184.378H383.072L384.215 182.406H372.699L376.215 176.312L378.666 172.064L383.687 163.371C383.783 163.203 383.921 163.063 384.088 162.966C384.255 162.869 384.445 162.818 384.638 162.818C384.831 162.818 385.021 162.869 385.188 162.966C385.355 163.063 385.493 163.203 385.588 163.371L390.396 171.696L392.923 167.322Z" fill="white"/>
<path d="M351.294 44.4392H251.798V39.0045H346.36C348.041 40.7794 349.686 42.591 351.294 44.4392Z" fill="#E6E6E6"/>
<path d="M304.647 6.74805C308.702 8.97907 312.654 11.3695 316.504 13.9192V40.4827H304.647V6.74805Z" fill="#E6E6E6"/>
<path d="M316.501 24.6764H304.647V30.1105H316.501V24.6764Z" fill="#CCCCCC"/>
<path d="M334.778 27.8768V40.4827H322.921V18.3867C325.685 20.4035 328.386 22.5008 331.025 24.6787C332.289 25.7227 333.54 26.7888 334.778 27.8768Z" fill="#E6E6E6"/>
<path d="M334.778 27.8769V30.1079H322.921V24.6787H331.025C332.289 25.7228 333.54 26.7888 334.778 27.8769Z" fill="#CCCCCC"/>
<path d="M292.544 0.692393C295.681 2.10461 298.765 3.61028 301.796 5.2094L299.356 10.133L291.252 26.5141L288.841 31.3828L285.066 39.0045L284.236 40.6805L280.857 39.0045L273.616 35.4162L278.215 26.1184H278.22L280.627 21.2497L288.736 4.8687L291.121 0.0549548L291.148 0L292.544 0.692393Z" fill="#E6E6E6"/>
<path d="M301.768 5.25885L299.356 10.133L288.736 4.8687L291.121 0.0549514L291.148 0L292.544 0.692388L301.768 5.25885Z" fill="#CCCCCC"/>
<path d="M280.627 21.2512L278.216 26.1211L288.84 31.3816L291.25 26.5116L280.627 21.2512Z" fill="#CCCCCC"/>
<path d="M390.995 188.192C390.901 188.824 390.797 189.462 390.687 190.088C390.495 191.275 390.286 192.451 390.061 193.627H251.798V188.192H390.995Z" fill="#E6E6E6"/>
<path d="M316.501 142.744H304.647V189.675H316.501V142.744Z" fill="#E6E6E6"/>
<path d="M316.501 150.154H304.647V155.589H316.501V150.154Z" fill="#CCCCCC"/>
<path d="M316.501 173.867H304.647V179.301H316.501V173.867Z" fill="#CCCCCC"/>
<path d="M334.777 142.744H322.922V189.675H334.777V142.744Z" fill="#E6E6E6"/>
<path d="M334.777 150.154H322.922V155.589H334.777V150.154Z" fill="#CCCCCC"/>
<path d="M334.777 173.867H322.922V179.301H334.777V173.867Z" fill="#CCCCCC"/>
<path d="M294.433 142.55L273.614 184.609L284.238 189.869L305.057 147.811L294.433 142.55Z" fill="#E6E6E6"/>
<path d="M291.146 149.191L288.735 154.061L299.359 159.322L301.769 154.452L291.146 149.191Z" fill="#CCCCCC"/>
<path d="M280.627 170.442L278.216 175.312L288.84 180.572L291.25 175.702L280.627 170.442Z" fill="#CCCCCC"/>
<path d="M160.87 209.135C161.365 209.42 161.838 209.744 162.282 210.103L211.197 194.879L213.955 182.741L232.814 184.51L230.019 206.472C229.793 208.247 228.998 209.9 227.753 211.183C226.508 212.467 224.88 213.312 223.113 213.592L165.549 222.707C164.709 224.743 163.269 226.475 161.421 227.673C159.573 228.87 157.405 229.477 155.204 229.411C153.003 229.346 150.874 228.612 149.1 227.307C147.326 226.002 145.992 224.188 145.274 222.106C144.556 220.024 144.489 217.773 145.082 215.652C145.675 213.531 146.899 211.64 148.592 210.232C150.285 208.824 152.367 207.965 154.56 207.769C156.753 207.573 158.954 208.05 160.87 209.135Z" fill="#FFB8B8"/>
<path d="M241.53 191.791L241.206 186.252V186.247L241.118 184.73L240.162 168.421C240.448 165.02 239.375 161.646 237.179 159.035C234.982 156.424 231.841 154.79 228.442 154.49C227.465 154.403 226.48 154.429 225.509 154.567C222.622 154.976 219.958 156.347 217.948 158.46C215.938 160.572 214.701 163.302 214.437 166.206L212.454 174.46L208.987 188.895C208.742 189.906 208.843 190.969 209.276 191.914C209.709 192.859 210.447 193.631 211.372 194.105C211.906 194.386 212.491 194.558 213.092 194.61L218.872 195.127L224.437 195.622L230.86 196.193L231.322 196.232L232.508 196.341L236.48 196.693H236.491C237.155 196.747 237.822 196.659 238.449 196.435C239.076 196.212 239.649 195.857 240.129 195.396C240.478 195.055 240.773 194.662 241.002 194.231C241.403 193.483 241.586 192.638 241.53 191.791Z" fill="#63C1FF"/>
<path d="M295.206 124.626C295.206 143.433 277.818 140.588 256.37 140.588C234.921 140.588 217.534 143.433 217.534 124.626C217.534 105.818 226.027 72.4811 256.37 72.4811C287.758 72.4811 295.206 105.818 295.206 124.626Z" fill="#2E3B41"/>
<path d="M274.719 132.902C284.924 122.694 284.924 106.145 274.719 95.9379C264.513 85.7306 247.967 85.7306 237.761 95.9379C227.556 106.145 227.556 122.694 237.761 132.902C247.967 143.109 264.513 143.109 274.719 132.902Z" fill="#FFB8B8"/>
<path d="M293.027 151.545C292.524 151.06 291.99 150.609 291.428 150.193C287.875 147.509 283.41 146.327 278.995 146.902L230.838 152.996C226.427 153.543 222.402 155.788 219.618 159.253C216.833 162.718 215.507 167.132 215.921 171.558C216.058 173.097 216.212 174.718 216.382 176.405C216.602 178.521 216.85 180.741 217.135 183.038C217.608 186.901 218.185 190.978 218.871 195.127C219.47 198.699 220.152 202.32 220.932 205.897C221.157 206.93 221.392 207.96 221.635 208.986C221.635 208.989 221.635 208.992 221.636 208.995C221.637 208.997 221.638 209 221.641 209.002C221.668 209.129 221.695 209.255 221.728 209.376C221.727 209.385 221.729 209.395 221.734 209.403C222.075 210.832 222.432 212.244 222.805 213.64C222.948 214.157 223.086 214.668 223.228 215.173C223.613 216.547 224.02 217.893 224.437 219.218C227.574 229.07 231.722 237.461 237.2 241.924C237.272 241.989 237.343 242.044 237.42 242.105L237.64 242.275L237.958 242.176L239.31 241.775L240.464 241.423L255.496 236.901L259.237 235.774L271.259 232.153H271.264L282.259 228.845L283.599 228.438L293.044 225.597L293.346 222.07L293.752 217.388L293.994 214.574L295.906 192.385L297.021 179.438L298.23 165.382C298.455 162.833 298.104 160.266 297.203 157.871C296.302 155.476 294.875 153.314 293.027 151.545Z" fill="#2E3B41"/>
<path d="M319.954 258.915C319.828 258.546 319.707 258.178 319.581 257.816C313.933 241.33 305.603 228.862 293.346 222.07C293.34 222.07 293.34 222.064 293.335 222.064L293.126 221.949L282.445 225.647L281.127 226.103L279.753 226.581L279.737 226.587L269.737 230.049L269.721 230.054L261.875 232.769H261.869L254.611 235.28H254.606L252.919 235.868L240.233 240.259L238.76 240.77L237.442 241.226L237.239 241.297L237.2 241.924L236.294 257.816L236.233 258.915L235.101 278.747L197.515 332H223.228C231.844 332.002 240.447 331.346 248.963 330.038L273.088 304.035C273.291 303.826 273.546 303.676 273.827 303.601C274.109 303.526 274.405 303.53 274.684 303.611C274.964 303.693 275.216 303.849 275.413 304.063C275.61 304.277 275.745 304.541 275.803 304.826L279.346 322.411C296.805 316.236 313.137 307.249 327.696 295.803C326.003 282.148 323.531 269.702 319.954 258.915Z" fill="#2E3B41"/>
<path d="M226.046 111.856H236.382L240.942 99.0855L241.854 111.856H246.794L249.454 104.406L249.986 111.856H286.694C286.694 108.222 285.978 104.624 284.588 101.267C283.198 97.9104 281.16 94.8602 278.591 92.291C276.022 89.7217 272.973 87.6836 269.616 86.2932C266.26 84.9027 262.663 84.187 259.03 84.187H253.71C246.373 84.187 239.336 87.1021 234.148 92.291C228.96 97.4798 226.046 104.517 226.046 111.856Z" fill="#2E3B41"/>
<path d="M162.47 250.335C160.782 251.044 158.96 251.375 157.131 251.303C155.302 251.232 153.511 250.76 151.884 249.921C150.257 249.083 148.834 247.897 147.714 246.449C146.595 245.001 145.806 243.324 145.405 241.538L101.195 236.531L116.015 218.781L155.725 226.258C158.77 225.782 161.883 226.44 164.475 228.106C167.068 229.773 168.959 232.332 169.79 235.3C170.621 238.268 170.335 241.438 168.986 244.209C167.637 246.98 165.318 249.16 162.47 250.335Z" fill="#A0616A"/>
<path d="M138.634 217.481L119.948 214.14L118.591 213.898C117.506 213.705 116.475 213.284 115.565 212.663C114.655 212.042 113.886 211.236 113.31 210.297C112.733 209.358 112.362 208.308 112.22 207.216C112.078 206.123 112.169 205.013 112.487 203.958L121.662 173.465L121.937 172.558C123.082 168.683 122.878 164.533 121.358 160.788C119.838 157.044 117.092 153.926 113.569 151.946C111.184 150.622 108.527 149.865 105.802 149.736C103.078 149.606 100.36 150.107 97.8608 151.199C95.3614 152.291 93.1475 153.945 91.3913 156.032C89.6351 158.119 88.384 160.584 87.7351 163.233L76.0325 211.002L75.5985 212.772C74.7811 216.105 74.692 219.575 75.3372 222.946C75.9824 226.317 77.3467 229.509 79.3372 232.304C81.3276 235.1 83.8974 237.433 86.8713 239.146C89.8452 240.858 93.1532 241.908 96.5699 242.226C96.6083 242.231 96.6413 242.231 96.6799 242.237L103.685 242.858L112.772 243.666L124.2 244.682L134.865 245.633C136.262 245.76 137.655 245.356 138.768 244.503C139.882 243.65 140.634 242.41 140.876 241.028C140.892 240.951 140.903 240.874 140.914 240.797L143.178 223.894L143.2 223.74C143.395 222.309 143.028 220.858 142.177 219.691C141.326 218.524 140.056 217.732 138.634 217.481Z" fill="#CCCCCC"/>
<path d="M109.845 89.4069C102.386 104.075 96.5066 119.204 80.053 119.204C72.1516 119.204 64.5739 116.064 58.9868 110.476C53.3998 104.888 50.261 97.3095 50.261 89.4069C50.261 72.9505 63.6005 59.816 80.053 59.6099C96.7746 59.4005 123.729 62.105 109.845 89.4069Z" fill="#2E3B41"/>
<path d="M128.557 281.296L127.881 274.548L127.376 274.576L38.5398 278.857L38.7705 285.687L39.1608 297.386C52.9069 307.859 68.1719 316.17 84.4276 322.032L85.0047 317.559C85.0551 317.194 85.2299 316.858 85.4995 316.608C85.7691 316.358 86.117 316.208 86.4841 316.185C86.8513 316.162 87.2153 316.266 87.5143 316.48C87.8134 316.695 88.0292 317.006 88.1252 317.361L89.8778 323.895C104.038 328.462 118.744 331.125 133.607 331.813L128.557 281.296Z" fill="#2E3B41"/>
<path d="M99.9979 112.129C110.203 101.921 110.203 85.3721 99.9979 75.1649C89.7924 64.9577 73.2459 64.9577 63.0404 75.1649C52.8349 85.3721 52.8349 101.921 63.0404 112.129C73.2459 122.336 89.7924 122.336 99.9979 112.129Z" fill="#A0616A"/>
<path d="M133.662 275.004L128.48 258.915L128.392 258.64L128.129 257.816L126.651 253.233C126.173 251.743 125.717 250.249 125.294 248.749C124.904 247.397 124.539 246.041 124.2 244.682C123.717 242.792 123.277 240.894 122.882 238.989C121.541 232.588 120.647 226.101 120.206 219.575C120.085 217.767 119.999 215.955 119.948 214.14C119.626 203.014 120.627 191.889 122.931 180.999C124.937 171.582 123.866 161.77 119.875 153.008C115.885 144.245 109.187 136.997 100.768 132.329C95.2427 129.275 89.1277 127.44 82.8343 126.949C82.4002 126.916 81.9662 126.888 81.5267 126.861C74.8787 126.441 68.2213 127.519 62.0458 130.017C55.8704 132.514 50.3346 136.367 45.8472 141.291C43.4437 143.91 41.3562 146.802 39.6276 149.908C34.8314 158.55 33.0309 168.538 34.507 178.312L40.6824 219.784L39.2761 237.242L37.6169 257.816L37.5289 258.915L35.7596 280.851C35.6758 281.874 35.9234 282.896 36.4656 283.767C37.0078 284.638 37.816 285.311 38.7704 285.687C39.3295 285.911 39.9265 286.025 40.5287 286.022C40.6167 286.022 40.6991 286.022 40.7871 286.017L128.557 281.296L129.36 281.252C130.092 281.214 130.805 281.008 131.445 280.651C132.085 280.293 132.634 279.793 133.05 279.189C133.466 278.585 133.737 277.893 133.843 277.168C133.949 276.442 133.887 275.702 133.662 275.004Z" fill="#CCCCCC"/>
<path d="M109.25 78.8754C103.278 82.992 96.1904 85.1829 88.9377 85.1539C91.5248 86.9481 94.4701 88.16 97.5706 88.7061C87.9276 90.7749 77.9614 90.8309 68.2958 88.8706C66.1473 88.5261 64.0741 87.8139 62.1674 86.7654C60.3115 85.6387 58.759 83.8445 58.3846 81.7056C57.7423 78.0358 60.6014 74.7016 63.5727 72.4546C68.1219 69.0668 73.3671 66.7327 78.9289 65.6211C84.4907 64.5095 90.2299 64.6483 95.7315 66.0274C99.3239 66.9561 102.923 68.5253 105.256 71.4107C107.589 74.2961 108.28 78.7444 106.057 81.7156L109.25 78.8754Z" fill="#2E3B41"/>
<path d="M110.586 244.898C108.915 245.643 107.1 246.013 105.27 245.981C103.44 245.95 101.639 245.517 99.9941 244.713C98.3493 243.91 96.9007 242.756 95.7502 241.332C94.5997 239.908 93.7753 238.25 93.3351 236.473L49.0275 232.423L63.4594 214.357L103.322 220.972C106.356 220.43 109.483 221.02 112.111 222.631C114.738 224.241 116.684 226.759 117.58 229.708C118.475 232.657 118.258 235.832 116.969 238.632C115.68 241.432 113.409 243.661 110.586 244.898Z" fill="#A0616A"/>
<path d="M86.0485 212.569L76.0326 211.002L65.9286 209.42C64.8404 209.25 63.8005 208.851 62.8772 208.251C61.9539 207.65 61.1681 206.861 60.5713 205.935C59.9746 205.01 59.5805 203.968 59.4148 202.879C59.2492 201.79 59.3158 200.678 59.6102 199.617L68.379 168.019C69.4401 164.12 69.1461 159.976 67.5451 156.265C65.9441 152.554 63.131 149.497 59.5663 147.594C57.1582 146.309 54.4839 145.603 51.7555 145.531C49.0271 145.46 46.3195 146.025 43.8474 147.182C41.3677 148.321 39.1862 150.02 37.4748 152.145C35.7634 154.271 34.5688 156.765 33.9851 159.431L22.9253 209.222C22.1802 212.581 22.1695 216.061 22.8937 219.424C23.6179 222.787 25.0601 225.954 27.1215 228.708C29.1828 231.463 31.8148 233.739 34.8372 235.381C37.8596 237.024 41.2011 237.994 44.6331 238.225L82.8894 240.792C84.2882 240.887 85.6719 240.454 86.7667 239.578C87.8614 238.702 88.5874 237.446 88.801 236.06C88.8176 235.983 88.823 235.906 88.834 235.83L90.7296 218.882L90.746 218.729C90.9094 217.294 90.5117 215.852 89.6362 214.704C88.7606 213.555 87.4751 212.79 86.0485 212.569Z" fill="#CCCCCC"/>
<path d="M255.533 186.301L253.24 187.553L224.993 202.967L222.701 204.218C221.588 204.827 220.763 205.852 220.405 207.069C220.047 208.286 220.187 209.595 220.793 210.709L241.828 249.267C242.436 250.38 243.461 251.206 244.678 251.564C245.895 251.921 247.203 251.782 248.317 251.175L248.323 251.172L281.143 233.262L281.149 233.259C282.262 232.65 283.087 231.625 283.445 230.408C283.803 229.191 283.663 227.882 283.057 226.768L262.022 188.21C261.414 187.097 260.389 186.271 259.172 185.913C257.956 185.556 256.647 185.695 255.533 186.301Z" fill="#E6E6E6"/>
<path d="M256.192 187.511L253.477 188.992L226.076 203.946L223.36 205.427C222.568 205.861 221.98 206.591 221.725 207.458C221.471 208.324 221.57 209.256 222.002 210.05L243.036 248.608C243.47 249.4 244.2 249.988 245.066 250.243C245.932 250.498 246.864 250.398 247.658 249.967L247.664 249.963L280.484 232.053L280.49 232.05C281.282 231.616 281.87 230.886 282.125 230.02C282.379 229.153 282.28 228.221 281.848 227.428L260.814 188.869C260.38 188.077 259.65 187.489 258.784 187.234C257.918 186.979 256.986 187.079 256.192 187.511Z" fill="white"/>
<path d="M256.963 198.397C256.861 198.212 256.69 198.074 256.487 198.015C256.285 197.955 256.067 197.978 255.881 198.078L254.787 198.677L243.639 204.76C243.455 204.862 243.318 205.033 243.259 205.235C243.2 205.438 243.224 205.655 243.325 205.84C243.426 206.025 243.596 206.163 243.798 206.223C244 206.283 244.217 206.261 244.403 206.161L256.644 199.479C256.829 199.377 256.967 199.206 257.026 199.003C257.086 198.801 257.063 198.583 256.963 198.397Z" fill="#E6E6E6"/>
<path d="M261.133 199.182C261.083 199.091 261.016 199.01 260.935 198.944C260.854 198.879 260.76 198.83 260.66 198.801C260.56 198.772 260.455 198.763 260.351 198.775C260.248 198.786 260.147 198.818 260.056 198.869L244.931 207.123C244.839 207.173 244.758 207.241 244.693 207.322C244.627 207.404 244.578 207.497 244.549 207.597C244.52 207.698 244.51 207.803 244.522 207.907C244.533 208.01 244.564 208.111 244.615 208.203C244.665 208.294 244.732 208.375 244.814 208.441C244.895 208.506 244.989 208.555 245.089 208.584C245.189 208.614 245.294 208.623 245.398 208.612C245.502 208.6 245.603 208.569 245.694 208.519L246.398 208.134L250.798 205.733H250.804L260.814 200.265C260.907 200.216 260.989 200.148 261.055 200.067C261.122 199.985 261.171 199.891 261.201 199.791C261.23 199.69 261.24 199.584 261.228 199.48C261.217 199.375 261.184 199.274 261.133 199.182Z" fill="#E6E6E6"/>
<path d="M244.694 212.338L239.892 203.529C239.842 203.441 239.76 203.375 239.662 203.348C239.564 203.32 239.46 203.332 239.371 203.381L237.041 204.65L235.832 205.309L229.344 208.848L228.085 209.535C227.997 209.585 227.932 209.668 227.904 209.766C227.876 209.864 227.888 209.968 227.937 210.057L228.245 210.623L232.739 218.866C232.788 218.954 232.87 219.019 232.966 219.047C233.063 219.075 233.167 219.063 233.255 219.014L241.002 214.789L242.211 214.129L244.54 212.86C244.585 212.836 244.624 212.803 244.656 212.764C244.688 212.725 244.712 212.679 244.726 212.631C244.741 212.582 244.745 212.531 244.74 212.481C244.734 212.431 244.719 212.382 244.694 212.338Z" fill="#E6E6E6"/>
<path d="M263.034 209.574C262.933 209.389 262.763 209.251 262.561 209.192C262.36 209.132 262.142 209.155 261.957 209.255L245.354 218.316C245.207 218.397 245.089 218.521 245.017 218.672C244.945 218.823 244.923 218.993 244.952 219.157C244.964 219.242 244.992 219.325 245.035 219.399C245.077 219.475 245.131 219.544 245.194 219.602L245.2 219.608C245.323 219.718 245.477 219.788 245.641 219.808C245.805 219.828 245.972 219.796 246.117 219.718L262.721 210.656C262.813 210.606 262.894 210.538 262.959 210.456C263.025 210.374 263.073 210.281 263.102 210.18C263.131 210.079 263.14 209.974 263.129 209.87C263.117 209.766 263.085 209.665 263.034 209.574Z" fill="#E6E6E6"/>
<path d="M267.21 210.36C267.159 210.268 267.091 210.187 267.01 210.122C266.928 210.056 266.834 210.008 266.733 209.979C266.633 209.95 266.528 209.941 266.424 209.952C266.32 209.964 266.219 209.996 266.127 210.046L246.639 220.679C246.493 220.757 246.375 220.879 246.303 221.028C246.231 221.178 246.208 221.346 246.238 221.509V221.515C246.25 221.6 246.278 221.682 246.321 221.757C246.363 221.835 246.419 221.906 246.485 221.965C246.607 222.078 246.761 222.15 246.926 222.169C247.091 222.189 247.258 222.156 247.403 222.075L266.891 211.442C267.076 211.34 267.214 211.169 267.274 210.967C267.333 210.764 267.31 210.546 267.21 210.36Z" fill="#E6E6E6"/>
<path d="M239.792 227.137C241.659 227.137 243.172 225.624 243.172 223.757C243.172 221.89 241.659 220.377 239.792 220.377C237.926 220.377 236.413 221.89 236.413 223.757C236.413 225.624 237.926 227.137 239.792 227.137Z" fill="#E6E6E6"/>
<path d="M265.422 171.465L263.13 172.716L234.883 188.13L232.59 189.382C231.478 189.99 230.652 191.016 230.294 192.232C229.937 193.449 230.076 194.758 230.682 195.872L251.717 234.431C252.326 235.543 253.351 236.369 254.567 236.727C255.784 237.084 257.093 236.945 258.207 236.339L258.213 236.335L291.033 218.425L291.039 218.422C292.151 217.813 292.977 216.788 293.335 215.571C293.692 214.354 293.553 213.045 292.947 211.931L271.912 173.373C271.303 172.26 270.278 171.434 269.062 171.077C267.845 170.719 266.536 170.858 265.422 171.465Z" fill="#CCCCCC"/>
<path d="M266.082 172.674L263.366 174.156L235.965 189.109L233.25 190.591C232.458 191.024 231.87 191.754 231.615 192.621C231.36 193.487 231.46 194.419 231.891 195.213L252.926 233.771C253.359 234.563 254.089 235.151 254.956 235.406C255.822 235.661 256.754 235.561 257.547 235.13L257.553 235.126L290.374 217.216L290.379 217.213C291.172 216.779 291.76 216.049 292.014 215.183C292.269 214.316 292.17 213.384 291.738 212.591L270.703 174.032C270.27 173.24 269.54 172.652 268.674 172.397C267.807 172.143 266.875 172.242 266.082 172.674Z" fill="white"/>
<path d="M266.853 183.56C266.751 183.375 266.58 183.237 266.377 183.178C266.174 183.118 265.956 183.141 265.77 183.241L260.133 186.318L258.562 187.175L253.529 189.923C253.345 190.025 253.208 190.196 253.149 190.398C253.09 190.601 253.114 190.818 253.214 191.003C253.315 191.188 253.485 191.326 253.687 191.386C253.889 191.446 254.107 191.424 254.293 191.324L260.227 188.088L261.468 187.406L266.534 184.642C266.719 184.54 266.856 184.369 266.916 184.166C266.976 183.964 266.953 183.746 266.853 183.56Z" fill="#CCCCCC"/>
<path d="M271.023 184.346C270.973 184.254 270.906 184.173 270.824 184.107C270.743 184.042 270.65 183.993 270.55 183.964C270.449 183.935 270.344 183.926 270.241 183.938C270.137 183.949 270.037 183.982 269.946 184.032L262.084 188.324L260.875 188.983L254.82 192.286C254.728 192.336 254.648 192.404 254.582 192.485C254.517 192.567 254.468 192.66 254.438 192.76C254.409 192.861 254.4 192.966 254.411 193.07C254.422 193.174 254.454 193.274 254.504 193.366C254.554 193.457 254.622 193.538 254.703 193.604C254.785 193.669 254.878 193.718 254.979 193.747C255.079 193.777 255.184 193.786 255.288 193.775C255.392 193.764 255.492 193.732 255.584 193.682L261.638 190.379L262.847 189.72L270.704 185.428C270.797 185.379 270.878 185.311 270.945 185.23C271.011 185.148 271.061 185.054 271.09 184.954C271.12 184.853 271.129 184.747 271.118 184.643C271.106 184.538 271.074 184.437 271.023 184.346Z" fill="#CCCCCC"/>
<path d="M254.584 197.501L250.754 190.478L250.095 189.269L249.782 188.692C249.732 188.604 249.649 188.538 249.552 188.511C249.454 188.483 249.349 188.495 249.26 188.544L241.486 192.786L237.975 194.698C237.886 194.748 237.821 194.831 237.794 194.929C237.766 195.027 237.778 195.131 237.827 195.22L238.14 195.792L238.48 196.424L238.799 197.001V197.006L242.628 204.029C242.677 204.117 242.759 204.182 242.856 204.21C242.953 204.238 243.057 204.226 243.145 204.177L254.43 198.023C254.475 197.999 254.514 197.966 254.546 197.927C254.578 197.888 254.602 197.843 254.616 197.794C254.63 197.745 254.635 197.695 254.629 197.644C254.624 197.594 254.608 197.545 254.584 197.501Z" fill="#63C1FF"/>
<path d="M272.924 194.737C272.823 194.552 272.653 194.415 272.451 194.355C272.249 194.295 272.032 194.318 271.847 194.418L266.885 197.127L265.677 197.787L260.886 200.397L255.243 203.48C255.151 203.53 255.07 203.598 255.004 203.679C254.938 203.761 254.889 203.854 254.86 203.955C254.83 204.055 254.821 204.161 254.832 204.265C254.843 204.369 254.874 204.47 254.924 204.562C254.975 204.654 255.042 204.735 255.124 204.801C255.205 204.867 255.299 204.916 255.4 204.946C255.5 204.975 255.606 204.985 255.71 204.974C255.814 204.963 255.915 204.931 256.007 204.881L266.441 199.188L267.649 198.528L272.611 195.819C272.702 195.769 272.783 195.701 272.849 195.619C272.914 195.538 272.963 195.444 272.992 195.343C273.021 195.243 273.03 195.137 273.018 195.033C273.007 194.929 272.974 194.828 272.924 194.737Z" fill="#CCCCCC"/>
<path d="M277.099 195.523C277.049 195.431 276.981 195.35 276.899 195.285C276.817 195.219 276.724 195.171 276.623 195.142C276.523 195.113 276.417 195.104 276.313 195.115C276.209 195.127 276.109 195.159 276.017 195.209L268.177 199.49L266.968 200.15L256.529 205.843C256.437 205.892 256.355 205.96 256.29 206.041C256.224 206.123 256.174 206.216 256.145 206.317C256.115 206.417 256.106 206.523 256.117 206.627C256.128 206.731 256.159 206.832 256.21 206.924C256.26 207.016 256.328 207.097 256.41 207.163C256.491 207.228 256.585 207.277 256.686 207.306C256.786 207.335 256.892 207.344 256.996 207.333C257.1 207.321 257.201 207.289 257.293 207.238L267.726 201.545L268.935 200.886L276.781 196.605C276.966 196.503 277.104 196.333 277.163 196.13C277.223 195.927 277.2 195.709 277.099 195.523Z" fill="#CCCCCC"/>
<path d="M249.682 212.3C251.548 212.3 253.061 210.787 253.061 208.92C253.061 207.054 251.548 205.54 249.682 205.54C247.816 205.54 246.303 207.054 246.303 208.92C246.303 210.787 247.816 212.3 249.682 212.3Z" fill="#CCCCCC"/>
<path d="M251.952 227.921C252.521 227.977 253.084 228.078 253.637 228.223L291.96 194.221L289.482 182.023L307.399 175.876L313.884 197.044C314.408 198.754 314.363 200.588 313.756 202.27C313.149 203.953 312.013 205.393 310.518 206.375L261.799 238.367C261.87 240.568 261.271 242.739 260.079 244.591C258.887 246.442 257.16 247.887 255.127 248.734C253.094 249.58 250.851 249.787 248.698 249.327C246.544 248.867 244.582 247.763 243.072 246.16C241.561 244.558 240.574 242.533 240.242 240.356C239.91 238.179 240.248 235.953 241.212 233.973C242.176 231.993 243.72 230.353 245.639 229.272C247.557 228.191 249.759 227.72 251.952 227.921Z" fill="#FFB8B8"/>
<path d="M318.339 178.922L307.482 158.183C306.365 155.029 304.066 152.432 301.071 150.942C298.075 149.451 294.618 149.183 291.428 150.193C291.307 150.226 291.192 150.265 291.071 150.309C287.839 151.439 285.187 153.805 283.698 156.889C282.208 159.972 282.003 163.521 283.126 166.756L287.483 189.676C287.608 190.332 287.873 190.953 288.26 191.498C288.647 192.042 289.147 192.497 289.725 192.83C290.357 193.2 291.07 193.411 291.802 193.446C292.404 193.484 293.008 193.4 293.576 193.198L295.906 192.385L310.861 187.176L315.751 185.472C316.382 185.251 316.958 184.898 317.439 184.435C317.921 183.972 318.298 183.41 318.543 182.789C318.789 182.167 318.897 181.5 318.862 180.833C318.827 180.166 318.649 179.514 318.339 178.922Z" fill="#63C1FF"/>
<path d="M359.323 258.915H0.549423C0.403707 258.915 0.263959 258.857 0.160922 258.754C0.0578851 258.651 0 258.511 0 258.365C0 258.219 0.0578851 258.08 0.160922 257.976C0.263959 257.873 0.403707 257.816 0.549423 257.816H359.323C359.468 257.816 359.608 257.873 359.711 257.976C359.814 258.08 359.872 258.219 359.872 258.365C359.872 258.511 359.814 258.651 359.711 258.754C359.608 258.857 359.468 258.915 359.323 258.915Z" fill="#3D4A56"/>
<path d="M62.3573 248.749V249.023C62.3592 250.886 62.9017 252.709 63.9189 254.27C64.9361 255.83 66.3843 257.062 68.0879 257.816C69.3098 258.362 70.6337 258.643 71.9722 258.64H160.704V248.749H62.3573Z" fill="#3D4A56"/>
<path d="M222.657 183.56C221.249 180.652 219.081 178.18 216.383 176.405C215.159 175.595 213.84 174.942 212.454 174.46C210.566 173.8 208.581 173.464 206.581 173.465H121.42C116.686 173.471 112.148 175.354 108.8 178.702C105.453 182.05 103.57 186.589 103.564 191.324V240.781C103.563 241.475 103.603 242.168 103.685 242.858C103.806 243.889 104.015 244.907 104.311 245.902C104.605 246.882 104.984 247.835 105.443 248.749C106.922 251.721 109.201 254.222 112.024 255.969C114.847 257.716 118.101 258.641 121.42 258.64H206.581C208.926 258.641 211.248 258.179 213.415 257.282C215.582 256.385 217.551 255.069 219.209 253.411C220.867 251.752 222.183 249.783 223.08 247.616C223.977 245.449 224.438 243.126 224.437 240.781V191.324C224.441 188.634 223.832 185.979 222.657 183.56Z" fill="#3D4A56"/>
<path d="M168.671 220.449C171.098 220.449 173.066 218.48 173.066 216.052C173.066 213.625 171.098 211.656 168.671 211.656C166.243 211.656 164.275 213.625 164.275 216.052C164.275 218.48 166.243 220.449 168.671 220.449Z" fill="white"/>
</g>
<defs>
<clipPath id="clip0_222_3288">
<rect width="393" height="332" fill="white"/>
</clipPath>
</defs>
</svg>
