<svg width="464" height="353" viewBox="0 0 464 353" fill="none" xmlns="http://www.w3.org/2000/svg">
<g clip-path="url(#clip0_197_3602)">
<path d="M185.67 73.2041H183.977V26.8364C183.977 23.3122 183.283 19.8225 181.934 16.5666C180.585 13.3106 178.608 10.3522 176.116 7.86021C173.624 5.36822 170.665 3.39146 167.409 2.04281C164.153 0.69415 160.663 2.98598e-06 157.139 0H58.8955C51.7776 -1.35683e-05 44.9512 2.82736 39.918 7.86015C34.8849 12.8929 32.0573 19.7189 32.0573 26.8363V281.213C32.0572 284.737 32.7514 288.227 34.1002 291.483C35.4489 294.739 37.4258 297.697 39.918 300.189C42.4101 302.681 45.3688 304.658 48.6249 306.007C51.8811 307.355 55.371 308.05 58.8954 308.05H157.138C164.256 308.05 171.083 305.222 176.116 300.189C181.149 295.157 183.977 288.331 183.977 281.213V106.209H185.67V73.2041Z" fill="#3D4856"/>
<path d="M158.221 6.98193H145.397C145.987 8.42769 146.212 9.99628 146.053 11.5495C145.894 13.1028 145.355 14.593 144.484 15.8889C143.613 17.1849 142.436 18.2467 141.058 18.981C139.68 19.7152 138.143 20.0993 136.581 20.0994H80.2991C78.7376 20.0993 77.2001 19.7152 75.822 18.981C74.4439 18.2467 73.2676 17.1849 72.3966 15.8889C71.5256 14.593 70.9867 13.1028 70.8274 11.5495C70.668 9.99629 70.8932 8.42769 71.4829 6.98193H59.5053C56.8733 6.98193 54.267 7.50031 51.8353 8.50747C49.4037 9.51463 47.1942 10.9908 45.3331 12.8518C43.472 14.7128 41.9956 16.9221 40.9884 19.3536C39.9812 21.7851 39.4628 24.3912 39.4628 27.023V281.027C39.4628 283.658 39.9812 286.264 40.9884 288.696C41.9956 291.127 43.472 293.337 45.3331 295.198C47.1942 297.059 49.4037 298.535 51.8353 299.542C54.267 300.549 56.8732 301.068 59.5052 301.068H158.221C160.853 301.068 163.46 300.549 165.891 299.542C168.323 298.535 170.533 297.059 172.394 295.198C174.255 293.337 175.731 291.128 176.738 288.696C177.746 286.264 178.264 283.658 178.264 281.027V27.023C178.264 24.3912 177.746 21.7851 176.738 19.3536C175.731 16.9221 174.255 14.7128 172.394 12.8518C170.533 10.9908 168.323 9.51463 165.891 8.50747C163.46 7.50031 160.853 6.98193 158.221 6.98193Z" fill="white"/>
<path d="M217.158 308.093H0.568477C0.417708 308.093 0.273113 308.034 0.166503 307.927C0.0598926 307.82 0 307.676 0 307.525C0 307.374 0.0598926 307.23 0.166503 307.123C0.273113 307.016 0.417708 306.957 0.568477 306.957H217.158C217.309 306.957 217.454 307.016 217.56 307.123C217.667 307.23 217.727 307.374 217.727 307.525C217.727 307.676 217.667 307.82 217.56 307.927C217.454 308.034 217.309 308.093 217.158 308.093Z" fill="#CBCBCB"/>
<path d="M108.863 196.498C135.376 196.498 156.869 175.006 156.869 148.495C156.869 121.984 135.376 100.493 108.863 100.493C82.3506 100.493 60.8577 121.984 60.8577 148.495C60.8577 175.006 82.3506 196.498 108.863 196.498Z" fill="#1B9DBD"/>
<path d="M104.106 166.807C103.026 166.808 101.975 166.459 101.111 165.811L101.057 165.771L89.7754 157.141C89.2528 156.741 88.8144 156.241 88.4849 155.671C88.1555 155.101 87.9415 154.472 87.8553 153.819C87.7691 153.166 87.8123 152.503 87.9824 151.867C88.1525 151.231 88.4463 150.635 88.8469 150.112C89.2475 149.59 89.747 149.151 90.3171 148.822C90.8871 148.493 91.5165 148.279 92.1692 148.193C92.8219 148.106 93.4853 148.149 94.1213 148.32C94.7574 148.49 95.3537 148.783 95.8762 149.184L103.184 154.787L120.452 132.261C120.852 131.738 121.352 131.3 121.922 130.971C122.491 130.642 123.12 130.428 123.773 130.342C124.425 130.255 125.088 130.299 125.724 130.469C126.36 130.639 126.956 130.932 127.478 131.333L127.48 131.334L127.373 131.483L127.483 131.334C128.536 132.144 129.226 133.338 129.4 134.656C129.573 135.973 129.217 137.306 128.41 138.361L108.099 164.846C107.629 165.456 107.024 165.95 106.333 166.289C105.641 166.628 104.881 166.803 104.111 166.801L104.106 166.807Z" fill="white"/>
<path d="M394.662 312.811C395.247 311.867 395.934 310.991 396.712 310.199C397.033 309.867 397.372 309.553 397.721 309.248C399.843 307.359 402.431 306.069 405.217 305.511C408.004 304.954 410.888 305.148 413.574 306.075C416.261 307.001 418.652 308.627 420.501 310.783C422.351 312.94 423.593 315.551 424.099 318.347C426.444 309.677 420.341 301.137 414.204 294.577C408.065 288.02 401.048 280.826 401.083 271.841C401.101 266.841 403.547 262.38 407.239 259.074C407.353 258.973 407.467 258.873 407.584 258.777C412.047 254.951 417.79 252.95 423.665 253.173C434.579 253.757 444.109 261.092 450.727 269.793C461.379 283.792 466.047 303.442 458.59 319.378C452.03 333.394 438.04 341.717 423.762 348.408C421.768 349.342 419.778 350.248 417.793 351.127C417.78 351.13 417.765 351.139 417.752 351.143C417.656 351.185 417.561 351.227 417.471 351.27C417.061 351.451 416.651 351.632 416.245 351.81L416.433 351.933L417.02 352.314C416.817 352.19 416.615 352.071 416.412 351.947C416.351 351.91 416.287 351.875 416.227 351.838C409.214 347.63 402.104 343.179 397.259 336.61C392.235 329.79 390.215 320.021 394.662 312.811Z" fill="#F1F1F1"/>
<path d="M441.45 296.973C443.003 300.505 444.032 304.245 444.506 308.074C444.878 311.489 444.738 314.94 444.09 318.313C442.698 325.245 439.661 331.741 435.235 337.255C431.896 341.441 428.041 345.188 423.762 348.408C421.768 349.342 419.779 350.249 417.793 351.127C417.78 351.13 417.765 351.14 417.752 351.143C417.657 351.185 417.561 351.227 417.471 351.27C417.061 351.451 416.651 351.632 416.245 351.81L416.433 351.934L417.02 352.314C416.817 352.19 416.615 352.071 416.412 351.948C416.351 351.91 416.287 351.875 416.227 351.838C417.77 346.44 417.997 340.751 416.889 335.247C415.78 329.743 413.369 324.586 409.856 320.206C406.325 315.882 401.821 312.453 396.713 310.199C397.033 309.867 397.372 309.553 397.721 309.248C399.689 310.151 401.573 311.227 403.351 312.462C409.711 316.858 414.486 323.184 416.971 330.504C419.189 337.146 419.466 344.282 417.769 351.075C418.121 350.845 418.475 350.609 418.818 350.374C425.351 345.969 431.372 340.678 435.907 334.19C439.819 328.707 442.322 322.346 443.196 315.668C444.065 308.373 442.24 301.199 438.982 294.69C435.386 287.726 430.853 281.286 425.512 275.55C420.146 269.656 414.08 264.44 407.448 260.019C407.298 259.919 407.193 259.764 407.155 259.588C407.116 259.412 407.146 259.228 407.239 259.074C407.311 258.933 407.434 258.827 407.584 258.777C407.659 258.757 407.739 258.755 407.815 258.771C407.892 258.786 407.964 258.819 408.027 258.866C408.846 259.413 409.657 259.964 410.459 260.532C417.138 265.26 423.204 270.801 428.517 277.025C433.651 283.025 438.323 289.691 441.45 296.973Z" fill="white"/>
<path d="M298.474 22.2887C304.105 22.2887 308.67 17.7245 308.67 12.0943C308.67 6.46409 304.105 1.8999 298.474 1.8999C292.844 1.8999 288.279 6.46409 288.279 12.0943C288.279 17.7245 292.844 22.2887 298.474 22.2887Z" fill="#F1F1F1"/>
<path d="M425.245 158.714C428.678 158.714 431.461 155.931 431.461 152.499C431.461 149.066 428.678 146.283 425.245 146.283C421.812 146.283 419.029 149.066 419.029 152.499C419.029 155.931 421.812 158.714 425.245 158.714Z" fill="#F1F1F1"/>
<path d="M243.332 175.767C246.765 175.767 249.548 172.984 249.548 169.552C249.548 166.119 246.765 163.336 243.332 163.336C239.899 163.336 237.116 166.119 237.116 169.552C237.116 172.984 239.899 175.767 243.332 175.767Z" fill="#F1F1F1"/>
<path d="M246.842 353H463.432C463.582 353 463.727 352.94 463.834 352.834C463.94 352.727 464 352.582 464 352.432C464 352.281 463.94 352.136 463.834 352.03C463.727 351.923 463.582 351.863 463.432 351.863H246.842C246.691 351.863 246.546 351.923 246.44 352.03C246.333 352.136 246.273 352.281 246.273 352.432C246.273 352.582 246.333 352.727 246.44 352.834C246.546 352.94 246.691 353 246.842 353Z" fill="#CBCBCB"/>
<path d="M439.529 54.931C439.814 52.912 439.348 50.8587 438.219 49.1604C437.091 47.4621 435.379 46.2367 433.407 45.7163C431.436 45.196 429.342 45.4169 427.522 46.3372C425.702 47.2575 424.284 48.8133 423.534 50.7097L405.959 70.8575L411.116 85.2599L428.791 61.7179C429.945 62.0874 431.165 62.1994 432.367 62.0462C433.568 61.893 434.721 61.4783 435.745 60.8312C436.769 60.1842 437.638 59.3205 438.292 58.3011C438.946 57.2817 439.368 56.1313 439.529 54.931Z" fill="#FFB7B7"/>
<path d="M366.675 133.327L425.018 71.0661L417.148 58.5559L343.972 120.438L366.675 133.327Z" fill="#3D4856"/>
<path d="M353.654 95.4976C364.957 95.4976 374.119 86.3357 374.119 75.0338C374.119 63.732 364.957 54.5701 353.654 54.5701C342.352 54.5701 333.189 63.732 333.189 75.0338C333.189 86.3357 342.352 95.4976 353.654 95.4976Z" fill="#2E3841"/>
<path d="M355.299 63.4736C359.703 59.0082 365.032 55.5624 370.911 53.3786C374.685 51.9806 378.793 51.1168 382.739 51.9108C386.684 52.7047 390.415 55.434 391.516 59.3049C392.416 62.4702 391.487 65.8782 390.09 68.8578C388.693 71.8374 386.828 74.6004 385.699 77.6912C384.546 80.8449 384.199 84.2366 384.69 87.5582C385.181 90.8798 386.494 94.0263 388.509 96.712C390.524 99.3977 393.179 101.538 396.231 102.937C399.283 104.337 402.637 104.952 405.987 104.727C402.11 105.247 398.537 107.069 394.748 108.039C390.959 109.008 386.486 108.942 383.67 106.228C380.691 103.356 380.631 98.6864 380.775 94.5508C380.989 88.4032 381.204 82.2555 381.418 76.1078C381.527 72.9727 381.62 69.737 380.489 66.8107C379.359 63.8845 376.672 61.3221 373.534 61.3487C371.157 61.3689 369.052 62.8092 367.145 64.2296C365.239 65.65 363.22 67.1654 360.852 67.3767C358.484 67.5879 355.78 65.8354 355.957 63.4644L355.299 63.4736Z" fill="#2E3841"/>
<path d="M275.926 212.438C273.961 212.984 271.865 212.79 270.033 211.894C268.202 210.997 266.763 209.46 265.99 207.573C265.216 205.686 265.162 203.582 265.836 201.658C266.511 199.733 267.868 198.124 269.65 197.133L287.33 177.077L302.284 180.307L281.252 200.906C281.769 202.001 282.04 203.197 282.045 204.408C282.05 205.619 281.789 206.816 281.282 207.916C280.774 209.015 280.031 209.99 279.106 210.771C278.18 211.553 277.095 212.122 275.926 212.438Z" fill="#FFB7B7"/>
<path d="M334.093 140.634L290.027 195.943L276.595 189.777L328.389 109.147L334.093 140.634Z" fill="#3D4856"/>
<path d="M298.933 307.645L288.431 307.48L289.694 343.272H298.931L298.933 307.645Z" fill="#FFB7B7"/>
<path d="M301.287 340.257L283.095 340.256H283.095C280.02 340.256 277.071 341.478 274.897 343.651C272.723 345.825 271.502 348.774 271.501 351.848V352.225L301.287 352.226L301.287 340.257Z" fill="#2E3841"/>
<path d="M368.467 298.152L356.995 305.517L379.943 333.123L387.716 328.133L368.467 298.152Z" fill="#FFB7B7"/>
<path d="M388.07 324.322L372.761 334.149L372.76 334.15C370.173 335.811 368.352 338.432 367.697 341.436C367.042 344.44 367.607 347.58 369.269 350.168L369.472 350.485L394.536 334.394L388.07 324.322Z" fill="#2E3841"/>
<path d="M372.554 188.858C372.554 188.858 347.064 104.202 338.872 103.058C330.68 101.914 317.481 124.78 317.481 124.78C300.369 146.612 282.722 217.333 282.722 217.333C282.722 217.333 312.139 219.174 333.643 230.614C355.147 242.054 380.524 230.035 380.524 230.035L372.554 188.858Z" fill="#3D4856"/>
<path opacity="0.1" d="M372.554 188.858C372.554 188.858 347.064 104.202 338.872 103.058C330.68 101.914 320.834 125.012 320.834 125.012C312.307 160.255 282.722 217.333 282.722 217.333C282.722 217.333 312.139 219.174 333.643 230.614C355.147 242.054 380.524 230.035 380.524 230.035L372.554 188.858Z" fill="black"/>
<path d="M351.641 163.529V206.068L356.648 267.689L381.661 314.301L369.723 322.828L335.614 278.49L322.124 234.465L300.937 331.923L285.02 330.786L296.074 195.662L317.052 157.628L351.641 163.529Z" fill="#2E3841"/>
<path d="M325.941 122.385C317.982 130.343 325.372 138.869 325.372 138.869L316.277 159.333L352.091 168.996L364.607 113.074L356.079 103.979C339.025 103.411 339.016 103.058 339.016 103.058C336.028 105.982 325.941 122.385 325.941 122.385Z" fill="#1B9DBD"/>
<path d="M366.049 107.281C364.422 106.08 362.573 105.214 360.61 104.733C358.646 104.252 356.607 104.165 354.609 104.478C352.612 104.791 350.696 105.496 348.973 106.555C347.251 107.613 345.755 109.002 344.573 110.642C335.57 123.178 327.245 143.419 338.715 168.664C357.133 209.199 373.161 229.95 379.677 229.947C379.961 229.95 380.244 229.905 380.514 229.816C384.525 228.455 390.324 221.669 391.374 215.689C391.75 213.548 391.66 210.567 389.1 208.519C381.747 202.638 368.545 184.326 364.427 160.223C362.151 146.904 366.565 134.773 370.668 126.941C372.401 123.7 372.908 119.943 372.096 116.359C371.284 112.775 369.207 109.604 366.247 107.427L366.049 107.281Z" fill="#3D4856"/>
<path d="M354.707 93.4873C362.007 89.4968 364.69 80.3441 360.699 73.0442C356.709 65.7442 347.555 63.0614 340.255 67.0519C332.954 71.0424 330.271 80.1951 334.262 87.495C338.253 94.795 347.406 97.4778 354.707 93.4873Z" fill="#FFB7B7"/>
<path d="M326.294 79.1306H348.048L348.271 76.0077L349.386 79.1306H352.736L353.178 72.9411L355.388 79.1306H361.869V78.8239C361.864 74.5149 360.15 70.3837 357.103 67.3368C354.056 64.2898 349.925 62.5759 345.615 62.571H342.548C338.239 62.5759 334.108 64.2898 331.06 67.3368C328.013 70.3837 326.299 74.5149 326.294 78.8239V79.1306Z" fill="#2E3841"/>
<path d="M358.583 90.3556L367.866 87.3436V64.8019H350.332L350.766 65.2353C356.806 71.2669 363.523 92.6664 358.583 90.3556Z" fill="#2E3841"/>
</g>
<defs>
<clipPath id="clip0_197_3602">
<rect width="464" height="353" fill="white"/>
</clipPath>
</defs>
</svg>
