<svg width="417" height="353" viewBox="0 0 417 353" fill="none" xmlns="http://www.w3.org/2000/svg">
<path d="M302.349 322.6L311.522 332.545C311.522 332.545 320.008 332.642 318.348 327.939C318.016 326.92 317.78 325.872 317.643 324.809C317.225 321.471 317.025 318.109 317.045 314.744C317.045 312.539 317.079 310.992 317.079 310.992C317.079 310.992 303.718 305.114 305.083 311.237C305.253 312.003 305.344 312.784 305.356 313.568C305.362 315.838 304.84 318.077 303.832 320.108C303.42 320.986 302.923 321.82 302.349 322.6Z" fill="#FFB9B9"/>
<path d="M281.064 337.576C284.175 340.238 288.15 341.661 292.236 341.575C299.802 341.468 313.937 341.243 317.219 341.106C321.61 340.912 320.152 337.148 320.012 334.554V334.297C319.958 331.698 319.443 326.066 318.567 325.186C317.691 324.307 314.693 329.105 314.693 329.105C314.693 329.105 308.84 330.819 307.23 325.678C305.62 320.536 302.35 320.04 302.35 320.04C300.865 319.395 300.791 323.273 300.791 323.273L288.403 329.688L281.133 330.83C280.9 330.937 280.689 331.047 280.49 331.156C277.202 333.007 278.659 335.486 281.064 337.576Z" fill="#080E14"/>
<path d="M267.867 322.6L277.04 332.545C277.04 332.545 285.527 332.642 283.867 327.939C283.535 326.92 283.299 325.872 283.161 324.809C282.743 321.471 282.543 318.109 282.564 314.744C282.564 312.539 282.598 310.992 282.598 310.992C282.598 310.992 269.236 305.114 270.601 311.237C270.771 312.003 270.863 312.784 270.875 313.568C270.88 315.838 270.358 318.077 269.35 320.108C268.938 320.986 268.442 321.82 267.867 322.6Z" fill="#FFB9B9"/>
<path d="M246.583 337.576C249.694 340.238 253.669 341.661 257.755 341.575C265.321 341.468 279.456 341.243 282.738 341.106C287.129 340.912 285.671 337.148 285.531 334.554V334.297C285.477 331.698 284.962 326.066 284.086 325.186C283.21 324.307 280.212 329.105 280.212 329.105C280.212 329.105 274.359 330.819 272.749 325.678C271.139 320.536 267.869 320.04 267.869 320.04C266.384 319.395 266.311 323.273 266.311 323.273L253.922 329.688L246.652 330.83C246.419 330.937 246.208 331.047 246.009 331.156C242.721 333.007 244.178 335.486 246.583 337.576Z" fill="#080E14"/>
<path d="M101.633 29.7166C101.633 29.7166 101.9 45.0953 96.5411 46.4367C91.1819 47.7782 104.259 61.6848 111.266 59.8994C118.274 58.114 120.976 46.8403 120.976 46.8403C120.976 46.8403 114.63 39.052 117.041 34.8516C119.452 30.6512 101.633 29.7166 101.633 29.7166Z" fill="#A0616A"/>
<path d="M309.599 67.9827C312.367 56.5053 314.713 43.5615 309.493 32.9887C305.87 25.6516 292.47 23.1838 284.789 25.8262C277.107 28.4686 271.554 35.6375 269.109 43.4539C266.665 51.2702 266.95 59.6934 268.015 67.8215C282.144 67.5467 296.271 67.2741 309.599 67.9827Z" fill="#080E14"/>
<path d="M10.4221 317.604C10.6346 325.567 11.9632 333.461 14.3687 341.053C14.422 341.229 14.4812 341.402 14.5388 341.579H29.2647C29.2492 341.421 29.2332 341.244 29.2178 341.053C28.2359 329.717 33.8454 261.548 40.6142 249.75C40.0217 250.707 9.28032 281.586 10.4221 317.604Z" fill="#E6E6E6"/>
<path d="M11.5272 341.053C11.6504 341.229 11.7784 341.405 11.9096 341.579H22.9577C22.874 341.429 22.7769 341.253 22.6644 341.053C20.8394 337.745 15.4374 327.856 10.4232 317.604C5.03673 306.586 0.0907685 295.151 0.507288 291.012C0.378225 291.945 -3.35072 320.401 11.5272 341.053Z" fill="#E6E6E6"/>
<path d="M190.603 329.398C190.711 333.444 191.386 337.455 192.608 341.311C192.635 341.401 192.665 341.489 192.694 341.579H200.176C200.168 341.499 200.16 341.409 200.152 341.311C199.654 335.552 202.503 300.918 205.942 294.924C205.641 295.413 190.022 311.099 190.603 329.398Z" fill="#E6E6E6"/>
<path d="M191.164 341.31C191.227 341.399 191.292 341.489 191.358 341.578H196.972C196.929 341.501 196.88 341.412 196.823 341.31C195.895 339.629 193.151 334.605 190.604 329.396C187.867 323.799 185.354 317.989 185.566 315.887C185.5 316.362 183.606 330.819 191.164 341.31Z" fill="#E6E6E6"/>
<path d="M146.308 98.734L127.264 112.337L139.114 113.612L155.62 99.5855L146.308 98.734Z" fill="#080E14"/>
<path d="M277.461 83.9688L301.231 84.3238L294.309 62.2793L278.61 65.5728C281.109 70.9415 280.578 77.1132 277.461 83.9688Z" fill="#FFB9B9"/>
<path d="M70.7322 330.045H85.9316L93.1597 285.678H70.7295L70.7322 330.045Z" fill="#9F616A"/>
<path d="M64.5968 172.527C64.5968 172.527 59.6327 177.85 67.85 198.602V312.387H88.8402L98.897 256.391L109.561 175.396L64.5968 172.527Z" fill="#F2F2F2"/>
<path d="M37.9998 153.513C36.4262 153.509 34.9162 152.889 33.7902 151.785C32.6642 150.682 32.0108 149.181 31.9686 147.601L30.7185 100.291L52.1092 59.5397C52.5949 58.6221 53.3056 57.8439 54.1741 57.2789C55.0426 56.7138 56.0403 56.3805 57.0728 56.3103L73.3741 55.2596L71.9667 150.623L38.5278 153.492C38.3518 153.506 38.1758 153.513 37.9998 153.513Z" fill="#1B9DBD"/>
<path d="M118.697 189.18L118.405 189.135C84.3263 183.916 58.6098 178.913 58.3538 178.862L58.0338 178.8L66.97 156.98C66.8997 154.7 64.9658 90.6745 68.6676 72.2794C72.2515 54.4718 89.1437 51.5536 91.0668 51.2789L92.9995 44.848L117.418 57.608L121.678 72.3271L122.543 112.669L118.697 189.18Z" fill="#080E14"/>
<path d="M85.1391 128.107C69.4063 128.107 56.6067 110.929 56.6067 89.815C56.6067 68.7009 69.4063 51.5231 85.1391 51.5231C100.872 51.5231 113.671 68.7009 113.671 89.815C113.671 110.929 100.872 128.107 85.1391 128.107ZM85.1391 55.2719C71.4649 55.2719 60.3399 70.7681 60.3399 89.815C60.3399 108.862 71.4649 124.358 85.1391 124.358C98.8133 124.358 109.938 108.862 109.938 89.815C109.938 70.7681 98.8133 55.2719 85.1391 55.2719Z" fill="#1B9DBD"/>
<path d="M133.404 106.149C132.304 106.149 131.216 106.377 130.209 106.819C129.201 107.262 128.295 107.909 127.549 108.72H86.5055L71.4713 111.933L73.9395 131.052L127.421 119.501C128.307 120.506 129.429 121.271 130.685 121.729C131.94 122.186 133.29 122.32 134.611 122.118C135.932 121.917 137.181 121.386 138.245 120.575C139.309 119.764 140.154 118.698 140.702 117.474C141.25 116.251 141.484 114.909 141.383 113.572C141.282 112.234 140.849 110.943 140.123 109.817C139.397 108.69 138.402 107.765 137.229 107.124C136.055 106.483 134.74 106.148 133.404 106.149Z" fill="#9F616A"/>
<path d="M130.392 42.1382C138.117 34.3807 138.117 21.8035 130.392 14.046C122.667 6.28861 110.142 6.28861 102.417 14.046C94.6919 21.8035 94.6919 34.3807 102.417 42.1382C110.142 49.8956 122.667 49.8956 130.392 42.1382Z" fill="#9F616A"/>
<path d="M97.7984 12.2136L96.8384 10.2754L101.664 7.86543C101.664 7.86543 106.987 -0.832464 116.62 1.61179C126.252 4.05605 130.586 5.52132 130.586 5.52132L135.399 7.95326L132.983 10.367L137.317 11.8301L134.422 13.2761L137.79 15.2207L135.977 25.1878C135.977 25.1878 132.965 17.628 127.177 20.5168C121.39 23.4055 110.795 19.0231 110.795 19.0231L101.592 36.9025C101.592 36.9025 99.6938 30.6339 96.3089 32.3053C96.3089 32.3064 87.6628 18.4795 97.7984 12.2136Z" fill="#080E14"/>
<path d="M269.679 134.505L268.834 118.58L260.301 111.618L255.358 126.364L227.711 163.394C226.404 163.604 225.184 164.186 224.196 165.071C223.208 165.955 222.493 167.106 222.136 168.386C221.778 169.666 221.794 171.022 222.179 172.293C222.565 173.565 223.306 174.699 224.314 175.561C225.321 176.423 226.554 176.977 227.865 177.158C229.177 177.339 230.512 177.139 231.714 176.581C232.916 176.024 233.933 175.132 234.646 174.012C235.359 172.892 235.738 171.59 235.737 170.261C235.737 170.167 235.727 170.076 235.723 169.984L269.679 134.505Z" fill="#FFB9B9"/>
<path d="M293.659 65.9522C301.643 61.5698 304.577 51.5181 300.213 43.5012C295.849 35.4843 285.839 32.5379 277.855 36.9204C269.872 41.3028 266.938 51.3544 271.302 59.3713C275.666 67.3882 285.676 70.3346 293.659 65.9522Z" fill="#FFB9B9"/>
<path d="M305.898 48.0286C305.953 45.2426 305.449 42.474 304.417 39.8874C303.385 37.3008 301.845 34.9492 299.89 32.9722C297.934 30.9953 295.603 29.4336 293.034 28.38C290.465 27.3263 287.711 26.8022 284.937 26.839C282.162 26.8757 279.423 27.4724 276.883 28.5937C274.342 29.715 272.053 31.3379 270.15 33.3658C268.247 35.3938 266.769 37.7854 265.805 40.3984C264.841 43.0114 264.411 45.7924 264.539 48.5759C278.64 48.6064 292.74 48.6364 305.898 48.0286Z" fill="#080E14"/>
<path d="M259.304 151.105C259.304 151.105 256.623 190.206 258.078 202.134C259.532 214.062 268.954 315.265 268.954 315.265H285.576L290.871 195.433L302.191 318.222L319.786 316.75L324.365 196.85C324.365 196.85 323.266 151.411 314.332 146.854L259.304 151.105Z" fill="#080E14"/>
<path d="M278.047 189.865C269.27 189.862 260.621 187.759 252.815 183.729L252.645 183.641L259.249 139.634L258.823 87.1853C258.811 85.7458 259.085 84.3183 259.629 82.9861C260.172 81.654 260.974 80.4439 261.989 79.4265C263.003 78.409 264.209 77.6046 265.536 77.0602C266.863 76.5157 268.285 76.2421 269.718 76.2553L305.158 76.582C306.727 76.5964 308.276 76.9349 309.709 77.5764C311.143 78.218 312.429 79.1489 313.489 80.3111C314.548 81.4734 315.358 82.8422 315.868 84.3324C316.378 85.8225 316.578 87.4022 316.454 88.973L313.137 131.019L324.105 165.147L322.199 167.692C317.059 174.576 310.394 180.163 302.731 184.012C295.068 187.86 286.617 189.864 278.049 189.863L278.047 189.865Z" fill="#F2F2F2"/>
<path d="M255.26 121.504L258.973 83.452L260.167 81.7463C260.984 80.5782 262.024 79.5838 263.225 78.8201C264.426 78.0564 265.766 77.5384 267.167 77.296C268.568 77.0536 270.003 77.0914 271.39 77.4073C272.776 77.7233 274.087 78.3111 275.247 79.137L276.27 79.8659L275.26 118.428L255.26 121.504Z" fill="#F2F2F2"/>
<path d="M407.428 307.409C417.028 304.746 421.125 319.386 411.549 322.134C401.949 324.799 397.852 310.159 407.428 307.409Z" fill="#080E14"/>
<path d="M354.199 326.254C363.798 323.591 367.896 338.23 358.32 340.979C348.721 343.642 344.623 329.002 354.199 326.254Z" fill="#080E14"/>
<path d="M332.657 171.85L332.805 171.808L357.533 239.225L360.793 238.305L335.887 170.405C335.834 169.358 335.425 168.362 334.729 167.58C334.034 166.799 333.093 166.281 332.063 166.111C319.696 164.147 314.684 175.171 314.684 175.171L314.733 175.244L340.013 244.169L343.273 243.249L318.738 176.352C326.208 168.932 332.657 171.85 332.657 171.85Z" fill="#080E14"/>
<path d="M360.997 330.046C357.469 330.015 354.042 328.854 351.217 326.732C348.392 324.609 346.315 321.636 345.29 318.246C340.57 302.734 329.435 265.567 327.957 255.48C326.037 242.347 336.863 238.61 337.102 238.532C337.393 238.433 341.745 237.21 347.768 235.517C358.008 232.639 373.481 228.291 374.049 228.034C376.447 227.197 378.991 226.866 381.521 227.062C384.052 227.259 386.515 227.978 388.756 229.174C391.067 230.394 393.106 232.074 394.75 234.11C396.394 236.146 397.608 238.497 398.319 241.019L414.246 297.923C415.229 301.411 414.954 305.136 413.468 308.44C411.983 311.745 409.383 314.416 406.128 315.983C393.838 321.912 375.813 329.822 361.237 330.045L360.997 330.046Z" fill="#1B9DBD"/>
<path d="M330.027 169.518L322.02 122.551L321.127 106.698L308.183 110.956L319.1 172.455C318.659 173.652 318.554 174.948 318.798 176.2C319.041 177.453 319.622 178.614 320.478 179.557C321.335 180.5 322.432 181.188 323.652 181.547C324.871 181.905 326.166 181.921 327.393 181.59C328.62 181.26 329.734 180.597 330.611 179.674C331.489 178.751 332.097 177.604 332.369 176.358C332.641 175.111 332.566 173.814 332.153 172.607C331.74 171.4 331.005 170.33 330.027 169.515L330.027 169.518Z" fill="#FFB9B9"/>
<path d="M324.21 119.606L304.006 118.502L299.26 80.2216L299.722 79.8194C300.859 78.8284 302.181 78.0728 303.61 77.5959C305.039 77.1191 306.548 76.9304 308.05 77.0407C309.552 77.151 311.018 77.5582 312.363 78.2388C313.708 78.9194 314.905 79.86 315.887 81.0067L316.822 82.0982L316.836 82.1673L324.21 119.606Z" fill="#F2F2F2"/>
<path d="M406.483 306.595L385.833 236.41L337.275 250.191L336.985 249.16L386.558 235.092L386.707 235.599L407.506 306.292L406.483 306.595Z" fill="#3F3D56"/>
<path d="M39.5411 148.481L37.3423 100.335L59.8653 56.1229L60.8146 56.6107L38.4212 100.569L40.6078 148.432L39.5411 148.481Z" fill="#3F3D56"/>
<path d="M358.743 342.752H11.7754C11.6755 342.752 11.5797 342.696 11.509 342.596C11.4384 342.495 11.3987 342.359 11.3987 342.217C11.3987 342.075 11.4384 341.939 11.509 341.838C11.5797 341.738 11.6755 341.681 11.7754 341.681H358.743C358.843 341.681 358.939 341.738 359.01 341.838C359.081 341.939 359.12 342.075 359.12 342.217C359.12 342.359 359.081 342.495 359.01 342.596C358.939 342.696 358.843 342.752 358.743 342.752Z" fill="#CCCCCC"/>
<path d="M74.2024 134.635L69.5092 120.615L68.3738 73.8775L70.3737 67.2463C71.0934 64.8596 72.2855 62.6433 73.8786 60.7303C75.4716 58.8173 77.4329 57.247 79.6448 56.1135C81.8568 54.9799 84.2739 54.3065 86.7512 54.1335C89.2285 53.9605 91.7152 54.2915 94.062 55.1068C96.4089 55.922 98.5678 57.2046 100.409 58.8777C102.251 60.5509 103.737 62.5801 104.778 64.8439C105.82 67.1076 106.396 69.5592 106.471 72.0518C106.547 74.5444 106.121 77.0266 105.218 79.3497L94.4982 106.934L95.0433 107.996L118.267 107.807L126.516 122.718L74.2024 134.635Z" fill="#080E14"/>
<path d="M222.147 234.408L222.13 234.412L196.39 239.586L174.248 248.541C173.961 248.656 173.655 248.714 173.347 248.711C173.038 248.708 172.733 248.644 172.449 248.523C172.165 248.401 171.908 248.225 171.692 248.004C171.476 247.783 171.305 247.521 171.19 247.233C171.163 247.166 171.139 247.097 171.118 247.027L154.942 192.635C154.772 192.072 154.819 191.465 155.073 190.935C155.328 190.404 155.771 189.989 156.316 189.771L178.863 180.653L178.88 180.65L204.62 175.475L226.763 166.521C227.049 166.405 227.355 166.347 227.663 166.35C227.972 166.353 228.277 166.417 228.561 166.539C228.845 166.66 229.102 166.836 229.318 167.058C229.534 167.279 229.705 167.541 229.82 167.828C229.847 167.896 229.871 167.964 229.892 168.034L246.068 222.426C246.238 222.989 246.191 223.596 245.937 224.127C245.682 224.657 245.239 225.072 244.694 225.29L222.147 234.408Z" fill="#1B9DBD"/>
<path d="M194.526 197.873C188.623 195.781 182.522 193.949 176.393 192.427L176.085 192.35L179.197 202.812L195.049 198.058L194.526 197.873ZM179.441 202.36L176.614 192.856C182.447 194.314 188.252 196.053 193.881 198.03L179.441 202.36ZM225.456 212.015C222.709 210.455 219.922 208.961 217.095 207.533C216.316 207.141 215.534 206.752 214.749 206.368C209.962 204.03 205.103 201.898 200.17 199.973L200.112 199.951L180.129 205.943L185.586 224.292L225.825 212.224L225.456 212.015ZM185.831 223.841L180.581 206.187L200.1 200.333C204.857 202.19 209.559 204.248 214.207 206.506C215.014 206.899 215.818 207.296 216.619 207.699C219.419 209.106 222.182 210.58 224.91 212.121L185.831 223.841ZM225.456 212.015C222.709 210.455 219.922 208.961 217.095 207.533C216.316 207.141 215.534 206.752 214.749 206.368C209.962 204.03 205.103 201.898 200.17 199.973L200.112 199.951L180.129 205.943L185.586 224.292L225.825 212.224L225.456 212.015ZM185.831 223.841L180.581 206.187L200.1 200.333C204.857 202.19 209.559 204.248 214.207 206.506C215.014 206.899 215.818 207.296 216.619 207.699C219.419 209.106 222.182 210.58 224.91 212.121L185.831 223.841ZM194.528 197.873C188.625 195.781 182.525 193.949 176.395 192.427L176.087 192.35L179.199 202.812L195.051 198.058L194.528 197.873ZM179.443 202.36L176.616 192.856C182.449 194.314 188.254 196.053 193.884 198.03L179.443 202.36ZM194.528 197.873C188.625 195.781 182.525 193.949 176.395 192.427L176.087 192.35L179.199 202.812L195.051 198.058L194.528 197.873ZM179.443 202.36L176.616 192.856C182.449 194.314 188.254 196.053 193.884 198.03L179.443 202.36ZM225.459 212.015C222.711 210.455 219.924 208.961 217.097 207.533C216.318 207.141 215.536 206.752 214.751 206.368C209.964 204.03 205.105 201.898 200.172 199.973L200.114 199.951L180.129 205.943L185.586 224.292L225.825 212.224L225.459 212.015ZM185.833 223.841L180.583 206.187L200.102 200.333C204.859 202.19 209.561 204.248 214.209 206.506C215.016 206.899 215.82 207.296 216.622 207.699C219.421 209.106 222.184 210.58 224.912 212.121L185.833 223.841ZM169.371 232.566L169.474 232.914L183.156 228.811L184.656 233.856L170.975 237.959L171.078 238.307L185.104 234.1L183.398 228.36L169.371 232.566ZM189.157 236.295L190.205 239.82L190.542 239.684L189.607 236.539L242.953 220.54L242.85 220.192L189.157 236.295ZM240.317 211.669L240.214 211.321L186.517 227.424L188.224 233.164L241.919 217.062L241.815 216.714L188.467 232.712L186.966 227.666L240.317 211.669ZM200.44 196.063C192.263 192.908 183.863 190.369 175.31 188.467L174.263 184.945L173.926 185.081L174.981 188.631L175.335 188.845C183.855 190.745 192.222 193.278 200.367 196.424L200.425 196.446L232.894 186.709L232.79 186.361L200.44 196.063ZM175.632 203.503L161.95 207.607L162.054 207.955L176.08 203.748L170.893 186.307L170.556 186.443L175.632 203.503ZM233.826 189.84L205.282 198.401L205.747 198.597C210.124 200.446 214.491 202.491 218.847 204.731C219.466 205.049 220.084 205.372 220.702 205.699C223.776 207.32 226.827 209.032 229.854 210.834L230.19 210.918L239.283 208.191L239.18 207.843L230.108 210.564C227.113 208.778 224.091 207.08 221.042 205.468C220.432 205.147 219.821 204.828 219.209 204.511C214.946 202.312 210.66 200.295 206.351 198.459L233.931 190.188L233.826 189.84ZM172.009 241.437L172.113 241.785L185.793 237.681L186.833 241.18L187.17 241.044L186.035 237.229L172.009 241.437ZM162.983 211.085L163.086 211.433L176.768 207.33L182.018 224.985L168.337 229.088L168.44 229.436L182.466 225.229L177.009 206.879L162.983 211.085ZM194.526 197.873C188.623 195.781 182.522 193.949 176.393 192.427L176.085 192.35L179.197 202.812L195.049 198.058L194.526 197.873ZM179.441 202.36L176.614 192.856C182.447 194.314 188.252 196.053 193.881 198.03L179.441 202.36ZM225.456 212.015C222.709 210.455 219.922 208.961 217.095 207.533C216.316 207.141 215.534 206.752 214.749 206.368C209.962 204.03 205.103 201.898 200.17 199.973L200.112 199.951L180.129 205.943L185.586 224.292L225.825 212.224L225.456 212.015ZM185.831 223.841L180.581 206.187L200.1 200.333C204.857 202.19 209.559 204.248 214.207 206.506C215.014 206.899 215.818 207.296 216.619 207.699C219.419 209.106 222.182 210.58 224.91 212.121L185.831 223.841ZM194.528 197.873C188.625 195.781 182.525 193.949 176.395 192.427L176.087 192.35L179.199 202.812L195.051 198.058L194.528 197.873ZM179.443 202.36L176.616 192.856C182.449 194.314 188.254 196.053 193.884 198.03L179.443 202.36ZM225.459 212.015C222.711 210.455 219.924 208.961 217.097 207.533C216.318 207.141 215.536 206.752 214.751 206.368C209.964 204.03 205.105 201.898 200.172 199.973L200.114 199.951L180.129 205.943L185.586 224.292L225.825 212.224L225.459 212.015ZM185.833 223.841L180.583 206.187L200.102 200.333C204.859 202.19 209.561 204.248 214.209 206.506C215.016 206.899 215.82 207.296 216.622 207.699C219.421 209.106 222.184 210.58 224.912 212.121L185.833 223.841Z" fill="white"/>
<path d="M199.122 199.511C200.432 203.916 195.407 216.113 195.407 216.113C195.407 216.113 184.546 208.682 183.236 204.278C182.924 203.23 182.821 202.132 182.932 201.044C183.044 199.957 183.367 198.902 183.884 197.94C184.401 196.978 185.102 196.128 185.947 195.438C186.791 194.748 187.763 194.231 188.806 193.918C189.849 193.605 190.943 193.502 192.026 193.614C193.109 193.725 194.159 194.05 195.117 194.569C196.075 195.089 196.922 195.792 197.609 196.64C198.296 197.488 198.81 198.464 199.122 199.511Z" fill="#F2F2F2"/>
<path d="M194.707 200.46C194.922 201.181 194.918 201.95 194.698 202.669C194.477 203.389 194.049 204.026 193.468 204.501C192.886 204.976 192.177 205.267 191.431 205.338C190.685 205.409 189.935 205.255 189.275 204.898C188.616 204.54 188.076 203.994 187.726 203.329C187.375 202.663 187.229 201.909 187.306 201.16C187.383 200.411 187.679 199.702 188.157 199.122C188.635 198.542 189.273 198.118 189.991 197.903C190.954 197.614 191.992 197.721 192.877 198.201C193.761 198.68 194.419 199.493 194.707 200.46Z" fill="#1B9DBD"/>
<path d="M196.48 221.962C197.714 221.962 198.715 220.958 198.715 219.718C198.715 218.479 197.714 217.474 196.48 217.474C195.246 217.474 194.246 218.479 194.246 219.718C194.246 220.958 195.246 221.962 196.48 221.962Z" fill="#F2F2F2"/>
<path d="M220.862 190.215L205.333 194.874C205.314 194.88 205.294 194.884 205.274 194.887L208.819 179.909C208.84 179.816 208.886 179.73 208.951 179.66C209.016 179.591 209.098 179.54 209.189 179.512C209.28 179.485 209.377 179.483 209.469 179.505C209.561 179.528 209.646 179.575 209.715 179.641L217.194 186.736L217.552 187.075L220.862 190.215Z" fill="white"/>
<path opacity="0.2" d="M220.863 190.214L215.56 191.804L217.034 187.227L217.141 186.897L217.194 186.733L217.552 187.072L220.863 190.214Z" fill="black"/>
<path d="M229.51 187.622L216.078 191.65L217.551 187.073L217.658 186.743L219.578 180.778C219.615 180.684 219.672 180.6 219.744 180.529C219.816 180.459 219.902 180.405 219.997 180.37C220.091 180.336 220.191 180.322 220.292 180.329C220.392 180.336 220.489 180.364 220.578 180.411C220.602 180.425 220.624 180.441 220.645 180.457L229.51 187.622Z" fill="white"/>
<path d="M68.7365 341.859L106.036 342.696C108.576 342.511 110.729 340.739 111.212 338.441C111.441 337.279 111.217 336.074 110.586 335.074C109.955 334.074 108.966 333.355 107.823 333.067C99.8793 330.702 97.7277 328.085 93.8795 323.679C89.3258 315.877 88.9675 316.21 85.9542 321.474C79.2489 327.738 74.7499 325.796 68.4996 321.931L64.4067 336.73C64.2322 337.343 64.2114 337.99 64.3463 338.613C64.4811 339.236 64.7674 339.816 65.1796 340.301C65.6236 340.805 66.1719 341.206 66.7862 341.475C67.4005 341.744 68.0665 341.875 68.7365 341.859Z" fill="#080E14"/>
</svg>
