<svg width="402" height="353" viewBox="0 0 402 353" fill="none" xmlns="http://www.w3.org/2000/svg">
<path d="M381.32 87.9154C381.32 122.55 327.491 224.691 296.628 280.408C294.534 284.188 291.475 287.338 287.765 289.53C284.056 291.722 279.832 292.878 275.529 292.878C271.227 292.878 267.002 291.722 263.293 289.53C259.583 287.338 256.524 284.188 254.43 280.408C223.567 224.691 169.738 122.55 169.738 87.9154C169.738 39.3611 217.102 0 275.529 0C333.956 0 381.32 39.3611 381.32 87.9154Z" fill="#1B9DBD"/>
<path d="M276.026 144.861C307.845 144.861 333.64 118.918 333.64 86.9164C333.64 54.9146 307.845 28.9721 276.026 28.9721C244.206 28.9721 218.411 54.9146 218.411 86.9164C218.411 118.918 244.206 144.861 276.026 144.861Z" fill="white"/>
<path d="M232.891 295.567L228.781 288.679L267.138 255.613C295.495 241.885 329.677 245.846 365.772 255.613V265.256L330.154 303.834L289.056 312.1L232.891 295.567Z" fill="#3D4C56"/>
<path d="M382.75 275.017C389.561 267.397 390.508 260.151 382.75 253.461H369.836V260.258L365.771 255.613L332.894 288.679L327.413 294.19L320.564 321.745L332.894 352.055H395.909V290.057L382.75 275.017Z" fill="#CCCCCC"/>
<path d="M228.781 288.679H332.894V352.055H228.781C216.185 338.35 222.729 313.369 228.781 288.679Z" fill="#F2F2F2"/>
<path d="M318.51 308.656H296.591V327.945H318.51V308.656Z" fill="#3D4C56"/>
<path d="M287.687 307.967H268.508V352.055H287.687V307.967Z" fill="#CCCCCC"/>
<path d="M246.59 314.856V307.968H238.371V314.856H245.904H246.59Z" fill="#3D4C56"/>
<path d="M245.904 320.367H238.371V327.256H246.59V320.367H245.904Z" fill="#3D4C56"/>
<path d="M260.289 307.967H252.069V314.856H260.289V307.967Z" fill="#3D4C56"/>
<path d="M260.289 320.367H252.069V327.256H260.289V320.367Z" fill="#3D4C56"/>
<path d="M362.347 315.545V308.656H354.127V315.545H361.661H362.347Z" fill="#3D4C56"/>
<path d="M361.661 321.056H354.127V327.945H362.347V321.056H361.661Z" fill="#3D4C56"/>
<path d="M376.045 308.656H367.826V315.545H376.045V308.656Z" fill="#3D4C56"/>
<path d="M376.045 321.056H367.826V327.945H376.045V321.056Z" fill="#3D4C56"/>
<path d="M47.5101 179.837L40.661 174.325L79.0181 139.881H176.281V170.192L113.266 212.903L47.5101 179.837Z" fill="#3D4C56"/>
<path d="M194.014 159.203V140.569H181.1V145.133L176.281 139.881L144.773 174.325L132.444 182.592L113.327 323.06L142.157 352.055H209.158C219.424 300.117 227.565 246.762 209.158 175.703L194.014 159.203Z" fill="#CCCCCC"/>
<path d="M40.6604 174.325H144.773V352.055H40.6604C29.2675 283.009 23.7034 218.978 40.6604 174.325Z" fill="#F2F2F2"/>
<path d="M100.251 308.656H81.0725V352.055H100.251V308.656Z" fill="#CCCCCC"/>
<path d="M60.5239 321.056V314.168H52.3049V321.056H59.8395H60.5239Z" fill="#3D4C56"/>
<path d="M59.8395 326.567H52.3049V333.456H60.5239V326.567H59.8395Z" fill="#3D4C56"/>
<path d="M74.2229 314.167H66.0035V321.056H74.2229V314.167Z" fill="#3D4C56"/>
<path d="M116.005 326.567H108.471V333.456H116.69V326.567H116.005Z" fill="#3D4C56"/>
<path d="M130.389 314.167H122.17V321.056H130.389V314.167Z" fill="#3D4C56"/>
<path d="M130.389 326.567H122.17V333.456H130.389V326.567Z" fill="#3D4C56"/>
<path d="M174.225 183.281V176.392H166.006V183.281H173.541H174.225Z" fill="#3D4C56"/>
<path d="M173.541 188.792H166.006V195.681H174.225V188.792H173.541Z" fill="#3D4C56"/>
<path d="M187.925 176.392H179.705V183.281H187.925V176.392Z" fill="#3D4C56"/>
<path d="M187.925 188.792H179.705V195.68H187.925V188.792Z" fill="#3D4C56"/>
<path d="M174.225 221.859V214.969H166.006V221.859H173.541H174.225Z" fill="#3D4C56"/>
<path d="M173.541 227.369H166.006V234.258H174.225V227.369H173.541Z" fill="#3D4C56"/>
<path d="M187.925 214.969H179.705V221.858H187.925V214.969Z" fill="#3D4C56"/>
<path d="M187.925 227.369H179.705V234.257H187.925V227.369Z" fill="#3D4C56"/>
<path d="M174.225 260.435V253.546H166.006V260.435H173.541H174.225Z" fill="#3D4C56"/>
<path d="M173.541 265.946H166.006V272.835H174.225V265.946H173.541Z" fill="#3D4C56"/>
<path d="M187.925 253.546H179.705V260.435H187.925V253.546Z" fill="#3D4C56"/>
<path d="M187.925 265.946H179.705V272.835H187.925V265.946Z" fill="#3D4C56"/>
<path d="M174.225 299.012V292.123H166.006V299.012H173.541H174.225Z" fill="#3D4C56"/>
<path d="M173.541 304.523H166.006V311.411H174.225V304.523H173.541Z" fill="#3D4C56"/>
<path d="M187.925 292.123H179.705V299.012H187.925V292.123Z" fill="#3D4C56"/>
<path d="M187.925 304.523H179.705V311.411H187.925V304.523Z" fill="#3D4C56"/>
<path d="M52.3046 183.281H131.759V199.814C106.291 192.745 79.7336 193.252 52.3046 199.814V183.281Z" fill="#3D4C56"/>
<path d="M52.3046 216.347C77.1031 223.695 103.588 223.695 131.759 216.347V232.88H52.3046V216.347Z" fill="#3D4C56"/>
<path d="M52.3046 249.413H131.759V265.946C104.681 257.25 78.1683 256.84 52.3046 265.946V249.413Z" fill="#3D4C56"/>
<path d="M52.3046 282.479C78.2171 292.523 104.726 292.105 131.759 282.479V299.012H52.3046V282.479Z" fill="#3D4C56"/>
<path d="M103.959 101.902H115.765C127.41 101.902 138.579 106.554 146.813 114.836C155.047 123.117 159.673 134.349 159.673 146.061H103.959V101.902Z" fill="#3D4C56"/>
<path d="M292.695 212.795H304.501C316.146 212.795 327.314 217.448 335.549 225.729C343.783 234.011 348.409 245.243 348.409 256.954H292.695V212.795Z" fill="#3D4C56"/>
<path d="M396.251 351H18.8688V353H396.251V351Z" fill="#3D4C56"/>
<path d="M21.1714 272.443H19.1847V351.367H21.1714V272.443Z" fill="#3D4C56"/>
<path d="M39.5063 282.501C39.6328 310.099 20.3269 332.561 20.3269 332.561C20.3269 332.561 -4.39684 309.801 0.689469 282.681C5.8048 255.406 21.7474 232.737 19.8689 232.621C19.8689 232.621 39.3798 254.903 39.5063 282.501Z" fill="#1B9DBD"/>
<path d="M219.841 272.443H217.854V351.367H219.841V272.443Z" fill="#3D4C56"/>
<path d="M238.176 282.501C239.967 310.04 218.996 332.561 218.996 332.561C218.996 332.561 199.485 310.279 199.359 282.681C199.233 255.083 218.538 232.621 218.538 232.621C216.656 240.186 236.727 260.219 238.176 282.501Z" fill="#1B9DBD"/>
<path d="M90.7673 144.15L177.063 139.904L213.264 170.294L206.864 176.106L149.539 174.808L90.7673 144.15Z" fill="#3D4C56"/>
<path d="M279.503 259.04L365.799 254.794L402 285.184L395.6 290.995L338.275 289.697L279.503 259.04Z" fill="#3D4C56"/>
</svg>
