<svg width="24" height="24" viewBox="0 0 24 24" fill="none" xmlns="http://www.w3.org/2000/svg">
<path d="M3 12C3 8.70017 3 7.05026 4.05441 6.02512C5.10883 5 6.80588 5 10.2 5H13.8C17.1941 5 18.8912 5 19.9456 6.02512C21 7.05026 21 8.70017 21 12C21 15.2998 21 16.9498 19.9456 17.9748C18.8912 19 17.1941 19 13.8 19H10.2C6.80588 19 5.10883 19 4.05441 17.9748C3 16.9498 3 15.2998 3 12Z" stroke="#CDD5D2" stroke-width="1.5"/>
<path d="M10 16H7" stroke="#CDD5D2" stroke-width="1.5" stroke-linecap="round"/>
<path d="M14 16H12" stroke="#CDD5D2" stroke-width="1.5" stroke-linecap="round"/>
<path d="M3 10H21" stroke="#CDD5D2" stroke-width="1.5" stroke-linecap="round"/>
</svg>
