<svg width="24" height="24" viewBox="0 0 24 24" fill="none" xmlns="http://www.w3.org/2000/svg">
<path d="M3 14C3 10.7002 3 9.05026 4.05441 8.02512C5.10883 7 6.80588 7 10.2 7H13.8C17.1941 7 18.8912 7 19.9456 8.02512C21 9.05026 21 10.7002 21 14C21 17.2998 21 18.9498 19.9456 19.9748C18.8912 21 17.1941 21 13.8 21H10.2C6.80588 21 5.10883 21 4.05441 19.9748C3 18.9498 3 17.2998 3 14Z" stroke="#CDD5D2" stroke-width="1.5"/>
<path d="M16 7C16 5.11438 16 4.17157 15.4142 3.58579C14.8284 3 13.8856 3 12 3C10.1144 3 9.17157 3 8.58579 3.58579C8 4.17157 8 5.11438 8 7" stroke="#CDD5D2" stroke-width="1.5"/>
<path d="M12 16.4166C13.1046 16.4166 14 15.7637 14 14.9584C14 14.1529 13.1046 13.5 12 13.5C10.8954 13.5 10 12.8471 10 12.0416C10 11.2363 10.8954 10.5834 12 10.5834M12 16.4166C10.8954 16.4166 10 15.7637 10 14.9584M12 16.4166V17M12 10.5834V10M12 10.5834C13.1046 10.5834 14 11.2363 14 12.0416" stroke="#CDD5D2" stroke-width="1.5" stroke-linecap="round"/>
</svg>
