<svg width="24" height="24" viewBox="0 0 24 24" fill="none" xmlns="http://www.w3.org/2000/svg">
<path d="M14.4023 16.5056V16.5066C14.6982 16.8249 15.0529 17.0806 15.4473 17.2556C15.4645 17.2633 15.4826 17.2698 15.5 17.2771L13.252 19.6883C12.5525 20.4377 11.4396 20.4377 10.7402 19.6883L8.55078 17.3435C8.61615 17.3197 8.68124 17.2947 8.74512 17.2664C9.13926 17.0915 9.49335 16.8354 9.78906 16.5174L9.79004 16.5183L12.1016 14.0408L14.4023 16.5056ZM11.9961 3.75076C12.4564 3.75085 12.9095 3.94653 13.252 4.31326L15.501 6.72244C15.4834 6.72987 15.4657 6.73715 15.4482 6.7449C15.0544 6.91974 14.6998 7.17421 14.4043 7.49197L12.1016 9.95877L9.79004 7.48221C9.43986 7.10699 9.01659 6.82667 8.55176 6.65701L10.7402 4.31326C11.0828 3.94647 11.5357 3.75076 11.9961 3.75076Z" stroke="#CDD5D2" stroke-width="1.5"/>
<path d="M7.17676 8.77811L7.28613 8.78299C7.50351 8.805 7.70925 8.89074 7.87793 9.02811L7.95898 9.10037L10.668 11.8006C10.7421 11.8747 10.823 11.9411 10.9072 12.0027C10.8281 12.0589 10.7519 12.1198 10.6807 12.1873L10.667 12.201L7.95801 14.9021C7.75483 15.1046 7.46975 15.2223 7.17871 15.2224H6.16211L4.33008 13.3963H4.3291C3.55638 12.6245 3.55754 11.3759 4.33008 10.6062L6.16309 8.77811H7.17676ZM17.0381 8.78885H17.8467L19.6699 10.6062C20.4429 11.3764 20.4429 12.6252 19.6699 13.3953L17.8486 15.2107H17.0381C16.7477 15.2107 16.462 15.0925 16.2607 14.8914L16.2598 14.8904L13.5596 12.2L13.5527 12.1941L13.5459 12.1873C13.4747 12.1198 13.3984 12.0589 13.3193 12.0027C13.4036 11.9411 13.4844 11.8747 13.5586 11.8006L13.5596 11.8015L16.2598 9.11111L16.2607 9.11014C16.4629 8.90806 16.749 8.78885 17.0381 8.78885Z" stroke="#CDD5D2" stroke-width="1.5"/>
</svg>
