<svg width="24" height="24" viewBox="0 0 24 24" fill="none" xmlns="http://www.w3.org/2000/svg">
<path d="M15 5V8" stroke="#CDD5D2" stroke-width="1.5" stroke-linecap="round"/>
<path d="M15 16V19" stroke="#CDD5D2" stroke-width="1.5" stroke-linecap="round"/>
<path d="M15 11V13" stroke="#CDD5D2" stroke-width="1.5" stroke-linecap="round"/>
<path d="M4.44165 10.4557C3.79257 9.73379 2.96687 8.93468 3.07904 7.97035C3.35836 5.56902 4.46027 5 7.64805 5H16.352C19.5398 5 20.6417 5.56902 20.921 7.97035C21.0332 8.93468 20.2075 9.73379 19.5584 10.4557C19.2424 10.8072 19 11.3037 19 12C19 12.6963 19.2424 13.1928 19.5584 13.5443C20.2075 14.2662 21.0332 15.0653 20.921 16.0296C20.6417 18.431 19.5398 19 16.352 19H7.64805C4.46027 19 3.35836 18.431 3.07904 16.0296C2.96687 15.0653 3.79257 14.2662 4.44165 13.5443C4.75766 13.1928 5.00005 12.6963 5.00005 12C5.00005 11.3037 4.75766 10.8072 4.44165 10.4557Z" stroke="#CDD5D2" stroke-width="1.5"/>
</svg>
