<svg width="24" height="24" viewBox="0 0 24 24" fill="none" xmlns="http://www.w3.org/2000/svg">
<path fill-rule="evenodd" clip-rule="evenodd" d="M3.69231 14C4.07466 14 4.38462 14.3134 4.38462 14.7C4.38462 16.0397 4.38608 16.9741 4.47983 17.6791C4.57089 18.364 4.73746 18.7266 4.99293 18.9849C5.2484 19.2433 5.60709 19.4117 6.28442 19.5038C6.98166 19.5985 7.90578 19.6 9.23077 19.6H14.7692C16.0942 19.6 17.0183 19.5985 17.7156 19.5038C18.393 19.4117 18.7516 19.2433 19.0071 18.9849C19.2626 18.7266 19.4291 18.364 19.5202 17.6791C19.6139 16.9741 19.6154 16.0397 19.6154 14.7C19.6154 14.3134 19.9254 14 20.3077 14C20.69 14 21 14.3134 21 14.7V14.7512C21 16.0277 21 17.0565 20.8925 17.8657C20.7808 18.7058 20.5418 19.4131 19.9862 19.9748C19.4305 20.5367 18.731 20.7783 17.9001 20.8913C17.0998 21 16.0823 21 14.8199 21H9.18012C7.91773 21 6.9002 21 6.09992 20.8913C5.26905 20.7783 4.56948 20.5367 4.01386 19.9749C3.45824 19.4131 3.21927 18.7058 3.10756 17.8657C2.99996 17.0565 2.99998 16.0277 3 14.7512C3 14.7342 3 14.7171 3 14.7C3 14.3134 3.30996 14 3.69231 14Z" fill="#CDD5D2"/>
<path fill-rule="evenodd" clip-rule="evenodd" d="M12 3C12.1773 3 12.3464 3.07936 12.4661 3.21869L15.8345 7.1411C16.0699 7.41518 16.052 7.8405 15.7946 8.09109C15.5372 8.34167 15.1377 8.32263 14.9023 8.04855L12.6316 5.40437V15.3276C12.6316 15.6989 12.3488 16 12 16C11.6512 16 11.3684 15.6989 11.3684 15.3276V5.40437L9.09771 8.04855C8.86234 8.32263 8.46285 8.34167 8.20542 8.09109C7.94798 7.8405 7.93009 7.41518 8.16546 7.1411L11.5339 3.21869C11.6536 3.07936 11.8227 3 12 3Z" fill="#CDD5D2"/>
</svg>
